<?xml version="1.0" standalone="no"?>
<!DOCTYPE svg PUBLIC "-//W3C//DTD SVG 20010904//EN"
 "http://www.w3.org/TR/2001/REC-SVG-20010904/DTD/svg10.dtd">
<svg version="1.0" xmlns="http://www.w3.org/2000/svg"
 width="565.000000pt" height="441.000000pt" viewBox="0 0 565.000000 441.000000"
 preserveAspectRatio="xMidYMid meet">
<metadata>
Created by potrace 1.16, written by Peter Selinger 2001-2019
</metadata>
<g transform="translate(0.000000,441.000000) scale(0.100000,-0.100000)"
fill="#ff87d" stroke="none">
<path d="M2820 4403 c0 -5 -5 -15 -10 -23 -8 -13 -11 -12 -23 4 -15 20 -37 14
-37 -10 0 -16 -26 -19 -35 -4 -8 14 -35 1 -29 -15 7 -17 -15 -30 -28 -17 -16
16 -36 3 -31 -19 5 -17 1 -20 -23 -17 -25 3 -29 0 -29 -22 0 -20 -4 -24 -23
-22 -12 2 -25 -3 -28 -11 -3 -10 -29 -17 -77 -22 -93 -9 -287 -58 -378 -95
-55 -23 -88 -30 -138 -30 -51 0 -75 -6 -108 -25 -24 -13 -43 -20 -43 -14 0 5
-7 9 -15 9 -8 0 -15 -5 -15 -12 0 -6 -6 -3 -14 8 -15 19 -15 19 -30 -1 -14
-18 -15 -18 -16 -2 0 22 -30 23 -30 0 0 -13 -3 -14 -12 -5 -17 17 -38 15 -38
-4 0 -14 -3 -14 -16 -4 -13 11 -16 10 -20 -7 -4 -15 -11 -19 -26 -15 -18 4
-20 2 -16 -16 5 -17 2 -21 -16 -19 -16 1 -20 -3 -18 -17 3 -13 -1 -17 -12 -13
-21 8 -31 -10 -16 -28 10 -12 9 -15 -9 -15 -24 0 -27 -10 -9 -28 9 -9 8 -12
-4 -12 -25 0 -32 -20 -13 -34 17 -12 16 -13 -5 -19 -19 -5 -21 -9 -12 -20 10
-12 2 -15 -48 -20 -77 -7 -160 -46 -200 -95 -17 -20 -44 -65 -60 -99 -22 -46
-35 -63 -50 -63 -30 0 -118 -36 -160 -65 -68 -47 -109 -129 -114 -225 -2 -48
-5 -52 -48 -79 -32 -20 -53 -44 -72 -82 -14 -29 -26 -59 -26 -66 0 -7 -6 -13
-14 -13 -21 0 -30 -20 -17 -33 19 -19 12 -29 -18 -22 -37 8 -49 -10 -25 -36
18 -20 14 -22 -23 -20 -29 3 -38 -16 -19 -38 23 -25 20 -34 -8 -29 -16 3 -27
0 -31 -10 -5 -14 10 -31 28 -32 18 0 5 -19 -15 -22 -30 -4 -37 -38 -9 -45 29
-7 26 -19 -5 -27 -31 -8 -29 -40 4 -44 28 -4 29 -19 1 -27 -26 -9 -21 -39 9
-43 25 -4 29 -20 7 -28 -19 -8 -20 -33 -1 -40 12 -5 11 -12 -4 -48 -11 -23
-20 -65 -22 -94 -2 -31 -8 -54 -16 -57 -9 -3 -11 -15 -6 -40 5 -27 3 -36 -10
-41 -21 -8 -21 -30 0 -38 12 -5 15 -14 10 -36 -5 -26 -2 -32 18 -40 32 -12 57
-63 63 -132 6 -56 6 -56 -23 -60 -40 -4 -47 -43 -10 -52 21 -5 26 -12 26 -40
0 -25 -6 -35 -25 -44 -22 -10 -24 -15 -15 -32 6 -11 21 -20 33 -20 17 0 28
-10 41 -36 15 -33 15 -38 1 -54 -16 -17 -11 -50 7 -50 5 0 17 4 26 9 12 6 24
4 40 -10 19 -15 22 -24 17 -49 -8 -37 16 -51 44 -26 16 15 24 15 60 4 35 -11
41 -17 41 -40 0 -23 4 -28 24 -28 17 0 26 7 30 25 9 36 62 36 78 0 12 -27 24
-31 48 -14 12 8 11 9 -6 5 -15 -5 -24 0 -32 19 -10 21 -19 25 -52 25 -34 0
-41 -4 -46 -25 -8 -33 -32 -32 -36 2 -2 21 -11 29 -46 41 -39 13 -45 12 -62
-3 -25 -22 -42 -12 -30 19 7 19 3 29 -20 51 -24 23 -31 25 -50 15 -28 -15 -48
1 -25 20 20 16 19 28 -6 79 -18 37 -24 42 -45 37 -18 -5 -24 -2 -24 10 0 9 9
18 20 21 16 4 20 14 20 48 0 38 -3 44 -26 49 -31 8 -27 30 8 34 20 2 28 12 40
53 16 48 16 50 -5 64 -29 20 -10 42 22 26 18 -10 25 -8 46 16 28 32 29 37 15
63 -14 27 6 36 31 14 19 -17 21 -17 64 4 36 17 45 27 45 47 0 30 25 34 33 5 4
-16 14 -20 46 -20 35 0 43 4 51 25 12 33 28 32 32 -1 2 -21 13 -30 49 -45 46
-17 47 -17 64 1 22 25 37 16 29 -16 -10 -39 30 -76 73 -68 36 7 41 0 18 -26
-14 -15 -13 -22 5 -63 17 -37 26 -47 45 -47 35 0 40 -18 10 -32 -23 -10 -26
-17 -23 -52 2 -34 7 -42 26 -44 31 -5 28 -30 -4 -34 -21 -2 -30 -13 -44 -50
-17 -45 -17 -48 1 -64 24 -22 15 -35 -19 -28 -21 4 -33 -1 -51 -20 -21 -22
-23 -29 -13 -51 14 -31 -2 -44 -27 -21 -16 15 -21 15 -64 -4 -36 -16 -47 -26
-46 -43 1 -17 2 -18 6 -4 2 9 6 17 7 17 2 0 25 -21 52 -48 59 -56 91 -82 103
-82 5 0 11 -9 14 -21 3 -12 10 -18 17 -14 7 4 14 -2 17 -15 4 -15 11 -20 25
-17 11 3 21 0 25 -9 3 -9 13 -12 29 -8 15 4 24 2 24 -5 0 -6 7 -11 15 -11 8 0
15 5 15 10 0 6 10 8 24 4 16 -4 25 -1 29 9 4 10 13 13 26 10 15 -4 21 -1 21
11 0 9 8 16 19 16 11 0 21 4 23 10 2 5 36 16 77 25 68 14 76 14 99 -1 20 -13
26 -14 33 -3 5 8 9 17 9 22 0 4 7 7 16 7 13 0 15 -7 11 -30 -4 -16 -2 -30 2
-30 5 0 16 -3 24 -6 11 -4 16 2 19 23 4 34 32 38 36 6 3 -20 8 -22 50 -19 26
2 41 2 34 -1 -6 -3 -10 -9 -6 -14 3 -5 -2 -9 -10 -9 -24 0 -30 -20 -10 -35 18
-13 18 -14 2 -15 -10 0 -18 -7 -18 -15 0 -8 8 -15 18 -15 15 -1 15 -2 -3 -16
-19 -14 -19 -16 -3 -28 12 -9 14 -16 7 -23 -15 -15 -2 -33 19 -26 14 5 15 3 5
-8 -20 -21 -16 -42 7 -36 21 5 28 -7 10 -18 -16 -10 0 -26 20 -20 15 5 17 2
13 -16 -5 -19 -3 -21 16 -16 18 4 21 2 15 -15 -5 -18 -3 -20 19 -14 20 5 26 2
31 -16 4 -18 8 -20 17 -11 10 10 15 8 25 -5 12 -16 14 -16 27 2 13 18 14 18
21 -5 6 -24 6 -24 22 -4 11 14 18 16 21 8 7 -19 33 -16 33 3 0 13 3 14 15 4 8
-6 20 -10 27 -7 7 2 29 -10 48 -26 39 -34 149 -87 180 -87 11 0 20 -7 20 -15
0 -9 9 -15 25 -15 14 0 25 5 25 10 0 15 30 12 36 -4 5 -12 11 -13 32 -4 15 5
50 12 77 14 184 16 641 102 685 129 6 4 17 2 24 -4 8 -7 18 -10 23 -9 4 2 32
-12 61 -31 28 -18 86 -48 128 -66 69 -30 78 -38 96 -77 49 -111 176 -178 336
-178 l43 0 -20 -26 c-29 -37 -35 -84 -18 -127 19 -43 56 -69 110 -77 36 -4 42
-9 51 -38 24 -85 145 -172 240 -172 48 0 48 0 42 28 -3 15 -9 71 -13 124 -6
104 5 185 38 273 l19 50 121 29 c138 33 296 95 390 151 74 45 168 131 211 193
17 25 37 42 48 42 11 0 34 13 51 28 42 38 51 105 20 157 -15 27 -21 53 -21
101 0 57 2 64 20 64 16 0 20 -7 20 -30 0 -29 1 -30 50 -30 28 0 53 -1 58 -2 4
-2 8 12 10 30 3 34 25 44 36 16 3 -9 13 -14 21 -10 8 3 18 0 22 -7 5 -7 23
-17 41 -24 29 -10 33 -10 28 2 -3 8 0 14 6 12 6 -1 13 4 16 12 3 10 0 12 -13
8 -56 -22 -61 -21 -83 32 -18 43 -23 49 -44 44 -30 -8 -38 -20 -38 -65 l0 -38
-49 0 -50 0 -3 53 c-3 50 -4 52 -34 55 -28 3 -32 -1 -49 -43 -13 -36 -21 -45
-34 -40 -9 4 -29 12 -44 17 -24 9 -28 15 -22 35 18 73 18 81 -5 93 -20 11 -27
8 -60 -25 l-38 -37 -36 27 c-20 15 -36 29 -36 32 0 2 11 21 25 41 29 43 31 55
9 72 -13 11 -23 10 -60 -8 -24 -12 -46 -22 -48 -22 -3 0 -15 16 -27 37 l-23
36 38 32 c32 26 36 35 31 58 -6 24 -4 27 18 27 14 0 32 3 40 6 10 3 23 -10 40
-39 80 -136 224 -218 387 -221 80 -1 192 23 205 44 2 4 -6 13 -20 20 -34 18
-155 -14 -155 -41 0 -14 -7 -19 -31 -19 -26 0 -29 3 -24 20 5 14 2 20 -9 20
-21 0 -20 16 1 25 16 6 15 8 -6 24 l-24 18 24 7 c22 6 23 7 7 20 -27 20 -22
26 20 26 l37 0 -3 -55 c-2 -30 0 -55 5 -55 4 1 37 9 73 19 80 22 91 46 35 81
-49 30 -40 34 17 7 42 -20 45 -24 41 -53 -3 -18 0 -35 6 -38 8 -5 10 21 9 92
l-3 99 -31 -23 c-50 -39 -99 -54 -172 -54 -82 0 -156 32 -202 88 -36 43 -36
49 -10 57 15 5 26 0 41 -19 11 -14 42 -38 67 -53 91 -54 211 -30 281 54 30 37
31 40 31 143 l0 105 -37 47 c-21 26 -46 47 -55 48 -20 0 -25 35 -7 46 6 3 31
-8 55 -26 l44 -31 0 109 0 110 -30 12 c-28 12 -30 16 -30 67 0 62 22 123 44
123 27 0 18 17 -14 29 -36 12 -40 26 -5 17 29 -7 32 1 8 21 -17 13 -16 14 5 8
24 -7 29 4 10 23 -9 9 -9 12 0 12 9 0 12 46 12 179 l0 179 -30 25 c-16 14 -46
31 -65 38 -23 9 -35 19 -35 32 0 10 -9 21 -20 24 -27 7 -25 22 5 33 28 11 24
40 -5 40 -30 0 -32 16 -4 29 32 14 27 35 -9 39 -32 4 -35 17 -7 32 27 15 15
43 -17 37 -29 -5 -38 6 -18 23 8 7 15 19 15 27 0 12 -7 14 -30 10 -32 -7 -41
8 -18 31 9 9 9 15 0 24 -10 10 -17 10 -33 0 -26 -17 -34 -10 -19 17 20 39 -8
55 -43 24 -19 -18 -20 -17 -15 14 5 37 -19 55 -38 29 -17 -24 -32 -19 -27 8 6
31 -23 43 -39 16 -17 -26 -26 -25 -30 2 -4 30 -34 35 -43 9 -8 -27 -21 -27
-28 -1 -7 29 -34 25 -45 -7 l-9 -28 -13 28 c-7 15 -16 27 -20 27 -13 0 -30
-25 -30 -44 0 -19 -1 -19 -23 2 -13 12 -26 20 -29 17 -3 -3 -8 7 -11 24 -10
49 -110 146 -193 187 -56 28 -77 34 -87 26 -8 -7 -29 -9 -50 -5 -30 4 -41 13
-62 49 -14 23 -40 53 -58 65 -17 13 -72 64 -122 113 -49 50 -112 103 -140 118
-130 69 -306 102 -437 80 -47 -7 -67 -6 -110 9 -98 34 -239 20 -345 -34 l-46
-24 -51 19 c-28 11 -54 25 -58 31 -4 7 -18 12 -30 12 -16 0 -22 5 -20 17 4 23
-14 31 -38 18 -17 -9 -20 -8 -20 9 0 26 -17 36 -36 20 -13 -11 -19 -9 -35 11
-18 24 -20 24 -30 6 -11 -18 -12 -18 -30 5 -19 24 -19 24 -35 4 -14 -19 -16
-19 -28 -2 -13 17 -36 23 -36 10z m42 -33 c6 0 20 7 30 17 16 14 18 15 18 0 0
-25 19 -31 40 -12 17 15 19 15 25 -4 7 -23 25 -27 43 -9 8 8 14 5 21 -15 12
-30 21 -33 39 -15 7 7 13 8 13 3 1 -6 2 -17 3 -25 1 -10 10 -14 29 -13 24 2
28 -2 25 -20 -2 -17 3 -23 23 -25 22 -3 25 -7 21 -28 -4 -20 -1 -24 22 -24 30
0 30 0 12 -34 l-13 -26 -70 69 c-40 39 -90 78 -118 90 -26 11 -49 21 -51 21
-1 0 0 -15 3 -33 3 -23 0 -37 -11 -46 -20 -16 -21 -31 -3 -31 26 0 97 -59 91
-75 -8 -20 -43 -10 -65 18 -15 18 -28 21 -100 20 -46 0 -97 -1 -112 -3 -16 -1
-33 2 -39 8 -13 13 30 36 84 46 35 6 37 8 26 31 -8 19 -8 31 0 50 11 24 10 25
-23 25 -44 0 -125 -31 -177 -66 l-39 -28 23 -12 c21 -12 22 -13 3 -14 -11 -1
5 -9 35 -19 84 -27 137 -57 143 -83 8 -28 -20 -61 -45 -55 -11 3 -25 -4 -35
-18 l-18 -24 -85 29 c-105 36 -165 37 -285 6 -104 -28 -229 -81 -221 -95 3 -5
-2 -7 -13 -4 -21 5 -37 -12 -21 -22 5 -3 10 -12 10 -18 -1 -7 -5 -6 -13 4 -18
23 -47 20 -48 -5 0 -15 -2 -17 -6 -6 -10 25 -26 30 -40 12 -11 -15 -12 -14
-10 8 2 21 -2 25 -23 23 -23 -3 -24 -2 -7 11 20 16 13 46 -12 47 -11 0 -9 3 7
9 22 9 31 30 12 30 -5 0 -10 5 -10 12 0 9 3 9 11 1 18 -18 41 -4 33 19 -5 16
-3 18 7 12 25 -16 39 -12 40 9 0 12 3 16 6 10 3 -9 21 -4 61 16 129 65 301
102 439 95 43 -2 56 0 34 4 -39 8 -53 29 -19 28 18 -1 23 4 22 22 0 18 5 22
28 22 24 0 28 4 28 26 0 22 2 24 15 14 20 -17 45 -5 45 21 0 18 2 19 15 9 19
-15 45 -6 45 16 0 15 2 15 21 -2 21 -19 22 -19 37 4 13 20 17 21 24 8 5 -9 14
-16 20 -16z m1201 -111 c122 -42 193 -87 277 -176 61 -64 90 -105 124 -176 59
-119 60 -129 19 -134 -31 -4 -44 9 -23 22 18 11 11 35 -10 35 -21 0 -27 15
-10 25 8 5 7 11 -1 21 -8 10 -16 11 -31 3 -19 -10 -20 -9 -16 15 6 30 -8 44
-25 27 -18 -18 -27 -13 -27 14 0 16 -6 25 -15 25 -8 0 -15 -4 -15 -10 0 -19
-28 -10 -33 11 -4 15 -11 19 -25 15 -12 -4 -25 1 -36 13 -17 19 -17 20 12 35
86 45 42 173 -47 136 -21 -8 -35 -25 -47 -55 l-16 -44 -52 21 c-90 36 -156 51
-172 37 -23 -19 -16 -29 19 -30 l32 -1 -30 -10 c-43 -15 -43 -17 -10 -45 20
-17 24 -23 10 -18 -58 21 -67 16 -44 -27 6 -11 8 -22 5 -25 -3 -3 -11 6 -17
21 -16 35 -39 34 -39 -1 1 -32 40 -66 65 -57 12 5 14 14 10 35 -8 36 10 39 19
3 9 -33 49 -30 54 4 3 22 25 28 22 7 -4 -40 -15 -56 -39 -61 -50 -10 -70 -23
-86 -54 -41 -80 66 -162 132 -100 21 19 25 28 37 83 4 15 11 25 16 22 5 -3 19
-1 30 5 16 9 20 8 20 -5 0 -8 -9 -15 -20 -15 -14 0 -20 -7 -20 -24 0 -15 7
-26 20 -29 11 -3 20 -11 20 -17 0 -8 -9 -10 -24 -6 -34 8 -52 -21 -29 -47 9
-9 13 -20 10 -24 -4 -4 -13 2 -20 11 -20 27 -56 6 -50 -29 3 -15 1 -25 -6 -25
-6 0 -11 11 -11 25 0 20 -5 25 -25 25 -18 0 -26 -7 -31 -25 -9 -36 -28 -32
-21 5 5 23 2 32 -13 40 -15 8 -22 6 -34 -12 -11 -15 -19 -19 -26 -12 -7 7 -4
16 9 28 16 14 18 23 10 37 -5 11 -15 19 -22 19 -8 0 -7 -3 2 -9 10 -7 7 -9
-12 -8 -15 1 -27 7 -27 14 0 15 -32 25 -52 18 -19 -8 -12 -45 8 -45 8 0 14 5
14 10 0 6 -4 10 -10 10 -5 0 -10 5 -10 10 0 6 8 5 20 -2 11 -7 20 -18 20 -24
0 -6 -9 -19 -20 -29 -28 -25 -26 -70 5 -100 30 -31 75 -33 100 -5 10 11 25 20
34 19 10 0 12 -2 3 -6 -6 -2 -10 -9 -6 -14 3 -5 -2 -9 -11 -9 -10 0 -13 -5 -9
-12 5 -8 2 -9 -9 -5 -12 4 -17 1 -17 -10 0 -12 -3 -13 -14 -4 -11 9 -15 9 -20
-1 -5 -10 -7 -10 -12 -1 -3 7 -12 9 -20 6 -8 -3 -14 0 -14 6 0 7 -10 2 -22 -9
-25 -23 -64 -20 -84 6 -7 8 -29 14 -57 14 -38 0 -45 3 -40 16 4 11 8 12 13 4
5 -8 13 -9 21 -4 21 12 53 13 62 0 5 -8 10 -6 17 4 8 13 10 12 10 -2 0 -25 17
-22 31 4 9 17 9 23 0 26 -9 3 -9 7 0 18 9 11 9 14 -1 14 -10 0 -10 3 0 15 7 8
9 15 4 15 -5 0 -2 5 6 10 10 7 11 12 4 18 -6 4 -14 16 -19 27 -7 18 -9 17 -14
-10 -4 -20 -9 -26 -14 -17 -5 6 -6 16 -2 21 3 5 1 12 -5 16 -5 3 -10 -3 -10
-14 0 -11 -5 -23 -11 -27 -9 -5 -10 1 -5 20 7 27 -8 37 -18 11 -3 -8 -11 -15
-18 -15 -9 0 -9 3 0 12 7 7 12 19 12 27 0 11 -4 10 -20 -4 -11 -10 -20 -13
-20 -7 0 6 5 14 10 17 19 12 11 26 -9 15 -11 -5 -29 -10 -40 -10 -23 0 -27
-19 -8 -39 10 -12 9 -13 -7 -7 -11 4 -22 2 -26 -3 -3 -6 -26 -13 -50 -17 l-45
-7 21 24 c35 39 54 85 54 132 0 78 -42 89 -101 27 -51 -54 -77 -137 -56 -179
l14 -28 -56 -24 c-31 -13 -64 -23 -75 -21 -10 1 -24 -3 -32 -8 -10 -9 -11 -6
-7 11 5 19 3 21 -15 17 -17 -5 -22 -2 -22 12 0 10 -5 20 -11 22 -8 3 -8 10 2
26 18 28 24 28 61 -3 49 -42 98 -29 98 26 0 15 -13 53 -30 84 -16 31 -30 63
-30 70 0 7 -9 15 -20 18 -11 3 -20 11 -20 17 0 7 7 10 18 5 69 -26 181 -11
207 29 35 52 -29 91 -134 82 -84 -7 -103 -10 -120 -20 -9 -6 -17 -2 -25 10
-18 31 -16 63 4 74 28 15 50 12 50 -6 0 -13 -3 -14 -15 -4 -17 14 -36 5 -28
-15 3 -8 0 -15 -7 -15 -6 0 -8 -5 -5 -10 10 -16 25 -2 25 23 0 16 3 18 12 9
18 -18 28 -15 29 11 0 12 3 16 6 10 7 -18 33 -16 33 2 0 8 5 15 10 15 6 0 10
-4 10 -10 0 -18 30 -11 31 8 1 16 2 16 6 0 5 -19 33 -25 33 -8 0 6 5 10 10 10
6 0 10 -7 10 -15 0 -18 12 -19 28 -3 9 9 12 8 12 -6 0 -13 5 -17 19 -13 13 3
21 -2 25 -16 4 -18 7 -18 21 -7 15 12 16 11 13 -6 -2 -14 2 -18 18 -17 17 2
20 -2 17 -22 -4 -21 -2 -23 18 -18 20 5 22 3 12 -8 -19 -19 -16 -29 9 -29 17
0 19 -3 10 -12 -16 -16 -15 -28 3 -28 18 0 20 -17 3 -22 -23 -8 1 -38 29 -38
24 1 25 2 11 11 -10 5 -18 15 -18 21 0 7 6 6 15 -2 20 -17 32 -5 15 15 -15 18
0 20 19 3 11 -11 12 -9 6 10 -4 13 -2 22 4 22 6 0 11 -7 11 -15 0 -24 20 -17
21 8 1 21 1 21 9 -3 l8 -25 7 23 c10 32 27 27 19 -5 -6 -27 -6 -27 30 10 53
55 49 66 -19 42 -15 -5 -13 -1 8 17 31 27 27 38 -15 38 -15 0 -28 5 -28 10 0
6 14 10 31 10 20 0 29 4 26 13 -6 15 -3 15 -107 -25 -96 -37 -131 -39 -122 -6
4 18 2 20 -17 15 -18 -4 -21 -2 -15 15 5 18 3 20 -21 14 -22 -6 -26 -4 -22 8
8 21 -10 31 -28 16 -10 -8 -15 -9 -15 -2 0 27 250 123 365 142 88 13 235 3
308 -21z m-1088 -118 c6 -21 63 -37 79 -21 17 17 39 12 33 -9 -7 -28 41 -70
74 -66 15 2 36 8 47 14 11 6 32 11 47 11 21 0 24 -3 17 -17 -7 -11 -6 -23 3
-37 12 -18 11 -24 0 -40 -18 -23 -35 -12 -35 22 0 37 -15 60 -24 37 -5 -13
-10 -14 -19 -7 -9 8 -16 6 -25 -8 -16 -26 -4 -81 20 -87 21 -6 25 -33 3 -33
-21 0 -39 -72 -21 -86 18 -13 4 -39 -17 -31 -20 8 -62 -38 -62 -69 -1 -13 3
-24 7 -24 4 0 8 -5 8 -11 0 -6 -13 -1 -29 10 -16 12 -40 21 -53 21 -12 0 -30
5 -38 10 -12 8 -12 10 5 10 25 0 78 34 68 44 -4 4 0 4 10 1 12 -5 20 1 29 20
16 35 -3 70 -51 96 l-34 18 64 3 c62 3 64 4 60 28 -18 127 -176 195 -279 120
-57 -41 -75 -72 -79 -136 -3 -48 6 -82 35 -136 2 -4 -10 -2 -26 4 -24 9 -31
19 -36 51 -5 27 -12 41 -26 44 -25 7 -26 29 -2 36 23 5 37 64 21 83 -14 17 -2
37 18 30 19 -7 64 44 57 65 -5 20 19 32 34 17 16 -16 74 1 79 23 7 24 30 25
38 0z m1271 -6 c19 -19 23 -31 18 -48 -10 -34 -23 -46 -78 -74 -28 -14 -64
-37 -81 -50 -40 -34 -85 -101 -85 -128 0 -37 -37 -75 -72 -75 -42 0 -68 25
-68 66 0 41 17 58 81 79 68 23 132 87 170 170 40 89 70 104 115 60z m-2535
-85 c8 11 12 12 16 3 2 -7 11 -13 18 -13 7 0 16 6 18 13 4 7 6 6 6 -4 1 -18
31 -35 31 -19 0 6 4 10 10 10 5 0 7 -7 3 -16 -5 -14 -2 -16 19 -11 23 6 25 4
20 -15 -4 -18 -2 -20 17 -15 16 4 21 1 19 -11 -2 -11 3 -16 14 -16 14 1 16 -4
12 -23 -6 -23 -4 -25 17 -18 20 6 22 5 12 -6 -18 -19 -16 -39 5 -40 10 0 12
-3 5 -6 -19 -7 -16 -33 5 -33 15 -1 15 -2 -3 -16 -20 -15 -20 -15 -1 -30 17
-12 18 -14 3 -14 -9 0 -17 -7 -17 -15 0 -8 5 -15 11 -15 5 0 7 5 4 10 -7 11 8
14 18 4 7 -8 -17 -34 -32 -34 -15 0 -14 -13 2 -29 10 -11 9 -13 -5 -8 -22 8
-33 -10 -18 -29 11 -12 9 -14 -11 -12 -18 2 -23 -1 -21 -15 2 -13 -2 -17 -15
-15 -12 2 -18 -3 -17 -15 1 -13 -3 -16 -16 -12 -11 3 -20 0 -23 -10 -4 -8 -13
-12 -22 -9 -8 3 -15 1 -15 -6 0 -7 -8 -9 -20 -5 -15 5 -22 1 -29 -17 -7 -17
-10 -19 -10 -5 -1 20 -27 23 -34 5 -3 -9 -9 -7 -20 7 -15 20 -16 20 -23 1 -7
-18 -8 -18 -15 2 -8 22 -29 31 -29 12 0 -5 5 -10 10 -10 6 0 10 -7 10 -15 0
-17 16 -20 25 -4 5 6 12 4 20 -8 13 -17 14 -17 29 2 8 11 16 15 16 8 0 -7 16
-20 35 -29 43 -20 41 -40 -3 -36 -27 3 -32 0 -32 -17 0 -16 6 -21 25 -21 36 0
32 -29 -5 -36 -16 -4 -27 -11 -24 -16 9 -14 -15 -38 -32 -31 -8 3 -14 13 -14
23 0 25 -40 37 -52 16 -5 -9 -15 -16 -23 -16 -8 0 -18 7 -23 16 -12 22 -52 9
-52 -16 0 -24 -18 -36 -33 -21 -7 7 -14 7 -23 0 -18 -15 -56 -1 -52 19 3 12
13 16 35 15 24 -2 32 2 36 19 8 28 1 38 -28 38 -12 0 -25 6 -28 14 -7 17 1 26
24 26 24 0 32 16 19 40 -10 18 -12 19 -34 5 -19 -13 -25 -13 -34 -2 -9 10 -7
19 5 36 14 21 14 24 -5 44 l-21 20 -12 -26 c-7 -15 -20 -27 -31 -27 -16 0 -18
5 -12 35 4 22 2 35 -4 35 -6 0 -17 3 -25 6 -12 4 -16 -3 -19 -28 -3 -35 -34
-52 -43 -24 -3 9 -7 23 -10 31 -3 12 -9 13 -29 4 -23 -11 -24 -13 -10 -35 25
-37 -8 -63 -36 -29 -16 19 -4 50 42 107 55 70 188 118 243 88 23 -12 23 -14 7
-26 -16 -13 -15 -14 6 -20 17 -5 20 -9 11 -20 -14 -17 -3 -35 17 -27 14 5 15
3 5 -15 -13 -24 -1 -35 26 -25 15 6 16 5 5 -9 -15 -19 0 -33 24 -24 12 5 14 1
9 -15 -6 -19 -4 -21 18 -15 19 4 24 2 23 -11 0 -8 5 -18 12 -20 6 -3 12 0 12
6 0 6 -4 11 -10 11 -5 0 -7 6 -4 14 6 17 -12 31 -21 16 -11 -18 -23 -10 -17
12 4 18 2 20 -17 15 -18 -4 -21 -2 -16 14 5 14 2 19 -13 19 -15 0 -19 5 -15
20 4 14 0 20 -10 20 -10 0 -13 6 -10 20 4 14 0 20 -12 20 -15 0 -15 2 -4 16
11 13 10 17 -5 26 -17 9 -17 10 1 23 17 13 17 14 0 20 -17 7 -17 8 0 20 15 11
15 15 4 29 -11 14 -11 16 3 16 19 0 21 11 4 28 -9 9 -7 12 11 12 19 0 22 4 18
21 -4 15 -2 19 8 15 20 -7 29 12 14 30 -11 13 -9 14 15 8 26 -6 28 -5 21 17
-6 19 -5 21 5 12 17 -16 40 -5 32 15 -5 15 -3 15 11 4 20 -17 38 -7 30 16 -5
14 -3 15 8 5 19 -18 39 -16 39 4 0 15 2 14 15 -3 13 -16 16 -17 26 -4z m619
-65 c64 -47 128 -74 545 -234 752 -289 951 -361 994 -361 55 0 81 -15 81 -45
0 -26 -24 -55 -45 -55 -7 0 -26 11 -42 24 -43 36 -95 60 -357 163 -866 341
-1109 430 -1199 440 -43 4 -62 11 -72 27 -19 27 -19 32 5 56 27 27 35 26 90
-15z m-93 -62 c9 -7 32 -13 51 -13 26 0 35 -5 39 -21 5 -19 11 -21 54 -17 37
4 49 2 49 -8 0 -10 -15 -14 -55 -14 l-55 0 15 -37 c9 -21 26 -48 37 -60 12
-13 17 -23 10 -23 -16 0 -49 46 -62 86 -6 19 -17 34 -23 34 -7 0 -4 5 6 11 14
8 16 14 6 25 -14 17 -29 9 -29 -17 0 -11 -4 -17 -10 -14 -32 20 21 -115 59
-149 11 -11 21 -25 21 -32 0 -7 6 -14 13 -17 6 -2 9 -8 5 -12 -4 -4 -14 -2
-22 4 -10 8 -16 9 -21 1 -3 -5 -11 -10 -16 -10 -6 0 -7 5 -4 10 4 6 4 18 1 27
-5 13 -9 13 -22 2 -13 -11 -14 -9 -8 16 6 25 5 28 -15 22 -22 -5 -30 8 -9 15
6 2 8 10 4 17 -5 7 -14 10 -22 7 -8 -3 -14 -1 -14 4 0 6 5 10 10 10 6 0 10 7
10 15 0 9 -9 15 -22 15 -23 1 -23 1 -3 16 20 15 20 15 1 30 -11 8 -15 14 -8
14 8 0 9 7 2 24 -6 17 -5 26 3 30 7 3 -1 3 -18 0 -27 -5 -28 -4 -12 9 24 20
21 37 -5 37 -23 0 -23 1 2 13 23 12 26 11 32 -13 4 -14 15 -31 25 -37z m2006
21 c20 20 27 20 27 1 0 -18 31 -20 48 -3 9 9 12 7 12 -9 0 -29 17 -38 37 -21
15 11 16 10 11 -9 -7 -27 13 -46 38 -36 17 6 17 5 5 -10 -16 -20 1 -49 25 -40
8 3 14 0 14 -6 0 -6 -4 -11 -10 -11 -5 0 -10 -9 -10 -20 0 -13 7 -20 20 -20
11 0 20 -4 20 -10 0 -5 -5 -10 -10 -10 -20 0 -23 -31 -4 -45 18 -13 18 -14 1
-15 -23 0 -33 -26 -17 -45 10 -12 9 -15 -8 -15 -21 0 -37 -26 -22 -35 17 -11
11 -22 -12 -21 -17 1 -23 -4 -22 -21 0 -17 -5 -21 -25 -20 -20 2 -27 -3 -29
-21 -3 -21 -5 -22 -16 -7 -13 18 -46 11 -46 -11 0 -8 -4 -14 -10 -14 -5 0 -10
7 -10 15 0 8 -7 15 -15 15 -9 0 -18 -7 -21 -15 -8 -19 -24 -20 -24 -1 0 20
-30 29 -36 11 -9 -22 -27 -18 -21 5 5 21 -19 35 -45 25 -10 -4 -14 1 -14 17 1
18 -4 22 -22 21 -19 -2 -21 0 -14 15 13 23 4 42 -19 42 -16 0 -17 3 -7 19 9
15 9 23 -1 35 -8 10 -9 20 -3 32 8 15 11 14 24 -5 19 -27 71 -33 76 -9 2 11
-9 22 -32 33 -22 11 -33 22 -29 31 6 17 15 18 30 3 16 -16 43 -3 43 20 0 14
-9 23 -25 27 -14 3 -25 12 -25 20 0 8 10 14 25 14 16 0 25 -6 25 -15 0 -9 9
-15 21 -15 15 0 20 5 17 23 -2 14 -10 22 -23 22 -11 0 -21 8 -23 18 -2 9 -10
17 -17 17 -8 0 -17 5 -20 11 -4 6 3 9 21 7 22 -2 29 2 34 22 4 17 8 21 14 12
13 -22 46 -14 46 11 l0 22 19 -23 c16 -22 19 -23 34 -8z m491 -116 c47 -24
134 -104 159 -147 17 -30 17 -30 -11 -63 -16 -18 -32 -41 -35 -51 -5 -13 -13
-16 -26 -12 -24 7 -37 -11 -21 -30 17 -20 3 -38 -20 -25 -25 13 -47 -12 -25
-30 23 -19 18 -33 -11 -27 -29 5 -44 -17 -25 -36 20 -20 12 -27 -34 -27 -42 0
-58 11 -35 25 18 11 -1 35 -25 29 -20 -5 -22 -2 -18 20 4 19 1 26 -10 26 -9 0
-19 -5 -22 -10 -9 -15 -27 -1 -21 16 3 8 -2 18 -11 21 -9 4 -19 1 -21 -5 -6
-20 -22 -13 -32 14 -9 22 -1 43 56 152 100 190 102 194 128 186 11 -4 39 -15
60 -26z m-2180 -58 c9 0 16 7 16 15 0 8 5 15 10 15 6 0 10 -7 10 -15 0 -18 36
-20 46 -3 5 7 10 4 15 -10 5 -12 15 -22 24 -22 18 0 20 17 3 23 -7 2 -10 8 -6
12 11 11 37 -19 35 -41 -2 -15 4 -19 26 -17 27 2 36 -10 17 -22 -18 -11 10
-36 31 -30 11 4 19 2 19 -4 0 -6 -4 -11 -10 -11 -5 0 -10 -9 -10 -20 0 -14 7
-20 23 -20 20 -1 21 -2 5 -14 -24 -18 -23 -33 4 -47 l22 -12 -22 -8 c-26 -10
-28 -27 -4 -45 16 -12 15 -13 -5 -14 -13 0 -23 -2 -23 -4 0 -2 -3 -12 -7 -22
-5 -13 -3 -16 10 -11 11 4 20 -1 28 -14 12 -23 24 -16 32 16 4 18 5 18 6 -2 1
-27 16 -30 31 -5 8 14 9 12 4 -10 -6 -27 8 -39 21 -18 3 6 11 10 17 10 5 0 0
-9 -13 -19 -19 -16 -21 -21 -9 -24 8 -3 22 -8 30 -10 9 -4 6 -6 -7 -6 -22 -1
-34 -21 -13 -21 6 0 10 -4 10 -9 0 -5 -9 -7 -20 -4 -22 6 -26 -7 -8 -25 8 -8
8 -12 1 -12 -6 0 -14 8 -17 17 -8 19 -22 8 -29 -22 -3 -14 -5 -11 -6 10 l-2
30 -20 -24 -20 -25 6 27 c5 18 3 27 -5 27 -6 0 -8 5 -5 10 3 6 -4 14 -17 19
l-23 10 25 1 25 1 -24 20 -25 20 28 -7 c22 -5 28 -4 24 7 -5 16 -37 19 -56 5
-7 -5 -10 -17 -7 -27 5 -15 3 -17 -12 -12 -10 3 -22 13 -26 20 -5 8 -16 11
-27 8 -15 -5 -17 -2 -13 14 7 29 -23 38 -48 15 -20 -18 -21 -18 -40 6 -18 24
-20 24 -30 7 -10 -18 -12 -18 -32 4 -18 20 -21 20 -32 5 -11 -15 -35 -22 -35
-11 0 3 6 14 12 25 9 14 9 23 2 30 -18 18 -42 0 -48 -36 -8 -42 -24 -44 -37
-4 -8 21 -18 30 -32 30 -20 1 -21 2 -4 14 9 7 17 18 17 24 0 6 -8 15 -17 21
-17 9 -17 10 0 16 18 7 24 45 7 45 -5 0 -10 5 -10 10 0 6 6 10 14 10 21 0 30
19 16 35 -9 11 -6 14 12 17 18 2 23 9 21 31 -1 23 1 26 16 17 21 -11 42 5 34
26 -6 16 13 19 22 4 10 -16 35 1 35 24 1 20 2 20 14 4 7 -10 21 -18 30 -18z
m221 -19 c38 -15 49 -24 47 -37 -2 -10 4 -24 14 -31 15 -11 20 -10 35 3 16 14
17 11 15 -44 l-3 -59 41 8 c45 8 56 0 55 -41 l0 -25 -16 23 c-21 30 -41 28
-49 -4 l-7 -27 -14 26 c-12 25 -43 29 -43 6 0 -5 -11 0 -24 12 l-24 21 24 25
c13 14 24 29 24 33 0 4 -16 18 -34 31 -19 13 -40 34 -46 47 -7 16 -16 22 -26
18 -21 -8 -34 1 -27 19 3 8 6 15 7 15 0 0 24 -9 51 -19z m847 -25 c12 -17 9
-42 -4 -53 -7 -6 -47 -14 -88 -17 -41 -4 -108 -19 -149 -32 -71 -24 -75 -24
-122 -9 -27 9 -47 20 -44 25 7 11 101 54 163 75 59 19 185 35 217 27 11 -3 23
-10 27 -16z m-1591 -113 l29 -86 -46 6 c-33 3 -47 1 -51 -9 -3 -8 -12 -14 -20
-14 -11 0 -13 7 -8 29 4 21 2 30 -10 35 -22 8 -35 -1 -35 -25 0 -11 -7 -19
-16 -19 -12 0 -15 6 -10 23 3 12 6 27 6 33 0 7 8 11 18 10 10 0 16 6 16 17 -1
10 5 17 17 17 22 0 24 11 7 28 -9 9 -7 12 10 12 13 0 22 6 22 15 0 8 -6 15
-12 15 -7 0 -2 6 12 13 31 16 32 15 71 -100z m1033 26 c31 -11 58 -25 62 -30
5 -9 -114 -134 -122 -126 -2 2 -10 39 -18 83 -18 103 -13 107 78 73z m2026 -9
c0 -13 7 -20 19 -20 11 0 23 9 26 20 9 28 25 25 25 -4 0 -31 26 -41 40 -16 15
28 33 25 26 -4 -8 -33 13 -39 43 -12 l24 21 -6 -32 c-7 -38 10 -49 43 -26 22
15 22 15 16 -15 -8 -35 5 -48 32 -33 26 14 36 2 16 -20 -22 -25 -9 -42 27 -34
32 7 40 -8 12 -23 -26 -15 -9 -46 22 -38 28 7 33 -5 10 -24 -23 -19 -18 -40
10 -40 30 0 33 -20 5 -27 -27 -7 -22 -37 8 -41 30 -4 28 -20 -3 -28 -33 -8
-32 -27 3 -44 l27 -14 -25 -4 c-40 -7 -53 -37 -20 -47 27 -8 26 -25 -1 -25
-12 0 -28 -8 -35 -17 -19 -27 -28 -8 -10 19 16 24 13 38 -7 38 -5 0 -7 -6 -4
-13 3 -8 1 -20 -4 -28 -7 -12 -9 -12 -9 1 0 12 -2 13 -9 1 -12 -19 -31 -5 -30
22 1 20 2 20 9 -3 7 -25 8 -24 24 13 11 25 16 58 14 90 -3 44 -6 52 -24 55
-33 5 -44 -19 -46 -106 -3 -72 -4 -78 -16 -56 -7 13 -16 24 -21 24 -16 0 -20
-13 -10 -32 15 -28 7 -41 -15 -25 -17 12 -17 16 -3 43 8 16 18 39 21 52 7 20
4 22 -26 22 -29 0 -37 -5 -51 -35 -19 -40 -70 -75 -109 -75 -25 0 -28 -3 -28
-36 0 -36 1 -37 34 -31 19 3 59 17 91 32 31 15 59 24 62 21 4 -3 1 -6 -5 -6
-6 0 -9 -7 -6 -15 4 -10 0 -15 -15 -15 -12 0 -21 -6 -21 -13 0 -7 -9 -18 -21
-25 -16 -10 -19 -19 -15 -38 4 -16 3 -23 -3 -20 -5 4 -12 2 -15 -3 -3 -5 1
-11 9 -15 8 -3 15 -1 15 4 0 6 15 10 33 10 18 0 42 7 53 16 18 14 18 15 -6 9
-25 -5 -25 -5 -2 6 12 7 22 18 22 26 0 7 -10 14 -22 14 -21 1 -21 2 -3 6 29 8
36 25 17 41 -16 13 -16 13 2 8 10 -4 24 -1 32 5 20 17 84 19 84 3 0 -8 6 -14
14 -14 9 0 12 -7 9 -20 -5 -17 0 -20 28 -22 l34 -1 -32 -4 c-39 -5 -43 -24 -8
-43 14 -7 23 -15 20 -18 -2 -3 -16 3 -30 12 -23 15 -26 15 -32 1 -3 -9 -1 -21
6 -28 6 -6 11 -16 11 -21 0 -6 -7 0 -16 12 -23 33 -44 28 -46 -10 l-1 -33 -4
33 c-5 37 -24 41 -47 10 -16 -22 -16 -21 -2 8 14 30 13 44 -5 44 -5 0 -6 -6
-3 -14 7 -17 -21 -62 -42 -70 -9 -3 -38 4 -65 15 -39 17 -49 26 -49 45 0 24
-7 28 -49 24 -18 -1 -22 2 -18 14 9 23 -12 30 -32 12 -18 -16 -31 -12 -31 10
0 7 10 14 23 16 33 5 37 55 5 67 -30 11 -52 37 -39 45 5 3 7 15 4 26 -6 24 9
26 42 4 60 -39 138 12 119 78 -13 45 -53 67 -95 51 -21 -8 -38 -9 -50 -3 -16
9 -16 12 -3 40 11 21 25 31 50 36 19 3 34 12 34 19 0 7 3 20 6 29 8 22 -44 22
-94 0 -49 -21 -92 -28 -92 -15 0 6 18 22 40 36 42 27 55 67 24 79 -19 7 -82
-24 -113 -58 -14 -14 -30 -26 -37 -26 -7 0 -17 -7 -22 -17 -13 -22 -42 -10
-35 15 2 11 0 23 -6 26 -22 14 -10 26 22 24 33 -3 33 -3 19 47 -5 19 -5 19 20
3 31 -21 53 -6 37 24 -15 27 -3 35 20 14 24 -22 41 -13 41 20 0 28 8 31 25 7
16 -22 45 -10 46 19 l0 23 16 -22 c20 -30 39 -29 47 2 8 30 26 33 26 5z
m-3786 -29 c-5 -24 -2 -32 17 -42 14 -7 24 -8 26 -2 2 6 10 19 18 29 11 15 16
16 26 7 10 -10 9 -17 -6 -33 -15 -17 -17 -25 -8 -38 11 -18 25 -19 56 -7 12 5
17 2 17 -9 0 -9 -8 -16 -19 -16 -25 0 -32 -11 -24 -38 3 -14 13 -22 27 -22 27
0 36 -8 30 -24 -3 -7 -17 -11 -33 -8 -23 3 -30 -1 -36 -19 -6 -17 -2 -26 15
-39 14 -10 20 -22 15 -29 -5 -9 -13 -7 -29 8 -18 16 -24 18 -38 7 -20 -15 -23
-37 -7 -53 8 -8 8 -13 0 -17 -15 -10 -31 2 -31 23 0 24 -7 29 -35 23 -20 -3
-25 -10 -25 -33 0 -22 -5 -29 -19 -29 -17 0 -18 4 -11 30 7 25 5 32 -10 40
-28 15 -36 12 -49 -17 -8 -18 -15 -23 -23 -15 -14 14 21 72 44 72 9 0 28 -5
42 -11 13 -6 37 -8 52 -5 38 10 84 59 84 91 0 65 -62 120 -122 108 -38 -7 -78
-50 -78 -83 0 -15 -7 -33 -15 -40 -13 -11 -15 -8 -15 14 0 23 -4 26 -35 26
-24 0 -35 5 -35 15 0 11 8 13 31 8 50 -10 69 36 24 59 -18 10 -22 17 -15 28 8
12 12 11 32 -7 20 -19 25 -20 42 -7 17 12 18 17 8 39 -15 33 -15 35 2 35 8 0
17 -11 20 -25 5 -18 13 -25 31 -25 20 0 27 6 32 30 3 17 12 30 19 30 10 0 12
-8 8 -29z m1910 -20 l38 -17 -41 -28 c-88 -61 -184 -191 -221 -299 -30 -89
-42 -200 -31 -282 11 -78 3 -105 -33 -105 -45 0 -51 22 -51 174 0 159 14 219
83 351 39 74 175 226 202 224 8 0 32 -8 54 -18z m428 -27 c2 -38 7 -48 25 -55
20 -7 26 -3 43 30 12 25 28 40 44 43 14 3 23 2 21 -3 -3 -4 4 -11 16 -14 12
-4 18 -13 15 -20 -3 -8 -8 -29 -11 -48 -6 -30 -4 -36 15 -42 17 -5 30 0 54 24
l31 30 30 -23 c28 -23 29 -25 15 -51 -14 -25 -18 -27 -71 -23 -36 3 -107 23
-188 53 -130 49 -131 50 -131 82 0 52 8 63 51 63 l38 0 3 -46z m-1766 -34 c17
0 24 5 24 20 0 11 6 20 14 20 9 0 12 -7 9 -20 -3 -11 0 -27 7 -35 12 -14 16
-13 35 5 13 12 26 17 29 12 3 -5 -1 -15 -9 -22 -30 -25 -7 -67 26 -49 16 8 19
6 16 -13 -2 -19 3 -23 28 -23 27 0 30 3 30 30 0 28 -2 30 -37 29 -26 -1 -38 3
-38 13 0 7 6 16 13 18 17 7 285 -20 294 -29 5 -4 10 -48 12 -98 5 -128 -25
-278 -56 -278 -12 0 -13 3 -3 15 16 20 5 34 -23 28 -18 -5 -20 -3 -9 8 20 21
14 32 -14 25 -17 -5 -23 -3 -19 4 4 6 4 18 1 27 -5 12 -9 13 -21 3 -12 -10
-15 -9 -15 9 0 24 -10 27 -28 9 -9 -9 -12 -7 -12 10 0 13 -6 22 -15 22 -8 0
-15 -4 -15 -10 0 -5 -4 -10 -10 -10 -5 0 -10 7 -10 15 0 8 -5 15 -11 15 -6 0
-8 8 -5 18 4 10 -1 27 -9 38 -8 10 -15 29 -15 42 0 16 -6 22 -21 22 -16 0 -20
5 -16 20 3 11 1 20 -4 20 -18 0 -9 -42 11 -47 29 -8 24 -26 -5 -21 -34 7 -50
-20 -28 -45 9 -9 13 -20 10 -24 -4 -4 -13 1 -20 11 -18 25 -49 10 -45 -22 2
-14 -3 -27 -9 -29 -8 -3 -13 5 -13 21 0 21 -5 26 -25 26 -18 0 -25 -5 -25 -19
0 -21 -16 -37 -23 -24 -2 5 -1 17 3 28 5 13 2 24 -9 32 -13 9 -21 7 -43 -14
-14 -14 -31 -22 -37 -19 -17 11 -6 70 13 74 20 4 21 -16 0 -39 -10 -11 -12
-19 -4 -24 6 -3 9 -2 8 4 -2 5 6 16 16 24 17 13 18 16 5 35 -11 15 -19 18 -29
11 -19 -11 -30 -11 -30 0 0 5 12 12 26 15 33 9 31 49 -3 54 -13 2 -23 8 -23
13 0 6 12 8 29 4 21 -4 30 -2 35 10 6 18 -27 69 -38 58 -3 -3 -6 -1 -6 5 0 17
14 15 43 -8 30 -24 61 -17 52 11 -4 10 -3 24 2 31 5 9 9 4 11 -14 3 -22 9 -28
28 -28z m-747 1 c8 -5 11 -16 8 -25 -5 -13 -14 -16 -42 -10 -33 6 -35 4 -35
-19 0 -22 5 -26 32 -29 46 -4 49 -32 6 -45 -19 -5 -32 -15 -30 -23 2 -7 -3
-17 -10 -21 -20 -13 -31 -11 -25 5 8 21 -25 30 -39 12 -15 -22 -24 -20 -24 4
0 14 -7 20 -21 20 -16 0 -19 -4 -14 -20 7 -24 -2 -26 -24 -6 -10 9 -22 12 -30
7 -11 -7 -10 -13 4 -35 l18 -27 -28 11 c-36 14 -60 -4 -32 -24 22 -17 22 -26
-3 -26 -14 0 -20 -7 -20 -21 0 -16 5 -20 20 -16 23 6 27 -11 5 -27 -10 -8 -12
-16 -5 -26 7 -12 12 -12 22 -2 19 19 31 14 24 -12 -7 -30 12 -45 29 -23 16 23
25 21 25 -3 0 -14 7 -20 21 -20 16 0 20 5 16 20 -3 13 0 20 8 20 8 0 15 7 17
15 2 12 6 11 16 -6 12 -19 12 -21 -3 -15 -11 4 -15 2 -12 -6 2 -7 0 -21 -4
-30 -6 -10 -5 -19 1 -23 15 -9 12 -25 -4 -25 -8 0 -16 7 -20 15 -9 24 -31 17
-43 -12 l-10 -28 -11 28 c-6 15 -18 27 -26 27 -8 0 -19 -12 -24 -27 l-9 -28
-13 28 c-15 30 -34 31 -37 1 -3 -18 -2 -18 6 1 8 19 9 18 20 -7 13 -33 38 -37
43 -6 4 29 26 34 30 7 4 -32 26 -35 39 -5 13 28 29 26 29 -4 0 -29 22 -36 38
-12 20 30 36 28 28 -3 -8 -31 21 -48 36 -22 13 25 31 21 25 -5 -4 -12 -1 -28
5 -35 9 -11 14 -10 29 3 23 21 34 13 20 -14 -14 -26 5 -45 31 -31 26 14 32 6
18 -20 -15 -30 -5 -41 33 -34 l32 6 -22 -24 c-28 -31 -17 -53 20 -43 33 8 34
-2 5 -25 -25 -21 -17 -41 18 -41 31 0 31 -14 -1 -28 -28 -13 -24 -42 6 -42 25
0 24 -17 -1 -25 -11 -3 -20 -13 -20 -22 0 -8 9 -17 20 -20 28 -7 25 -23 -4
-23 -31 0 -41 -27 -16 -42 27 -17 25 -28 -4 -28 -33 0 -42 -17 -20 -41 21 -23
13 -35 -14 -20 -16 8 -21 7 -26 -6 -4 -9 -2 -21 4 -27 5 -5 10 -16 10 -23 0
-11 -5 -11 -20 -3 -29 16 -42 3 -34 -33 l6 -31 -24 16 c-32 21 -51 7 -38 -28
11 -28 4 -31 -20 -9 -24 22 -48 10 -42 -21 5 -26 -12 -34 -22 -9 -3 8 -15 15
-26 15 -15 0 -20 -7 -20 -25 0 -30 -16 -33 -23 -5 -7 28 -35 25 -43 -5 -8 -31
-22 -32 -26 -3 -4 30 -34 35 -43 9 -9 -29 -25 -26 -25 4 0 31 -35 35 -45 5 -9
-29 -28 -25 -22 6 6 33 -17 43 -45 18 -21 -19 -21 -19 -15 13 7 38 -8 47 -42
24 -23 -15 -23 -15 -17 16 8 36 -5 49 -34 33 -15 -8 -20 -8 -20 3 0 7 5 18 11
24 19 19 0 35 -32 28 -31 -7 -38 5 -14 25 27 22 18 43 -15 38 -35 -5 -39 4 -8
24 26 17 17 38 -18 38 -29 0 -32 16 -4 25 26 8 27 45 1 45 -30 0 -35 19 -6 26
31 8 33 39 3 49 -23 7 -23 7 5 18 33 13 34 29 4 50 l-22 16 32 0 c39 1 47 19
19 50 l-21 23 32 -6 c34 -8 53 8 34 27 -6 6 -11 17 -11 24 0 11 5 11 21 2 30
-16 46 2 31 36 -9 20 -9 25 1 25 7 0 18 -5 24 -11 7 -7 19 -9 28 -5 13 5 14
10 5 27 -16 28 -5 36 19 15 25 -23 41 -13 42 27 l0 32 16 -22 c17 -25 38 -30
49 -11 5 8 2 9 -9 5 -10 -4 -22 1 -31 15 -17 25 -36 16 -36 -18 0 -29 -5 -30
-35 -5 l-24 18 24 35 c13 20 45 46 70 58 l45 22 0 67 c0 139 95 244 242 267
21 4 41 11 44 15 7 11 15 11 33 0z m200 -22 c11 -11 24 -31 27 -45 15 -61 -57
-131 -109 -106 l-22 11 22 0 c51 2 93 41 93 87 0 21 -46 64 -69 64 -21 0 -81
-46 -81 -62 0 -6 13 4 29 21 35 38 60 39 91 6 20 -21 22 -30 14 -52 -11 -33
-40 -48 -119 -62 -69 -12 -128 -50 -163 -101 -41 -62 -50 -70 -87 -70 -29 0
-36 -4 -41 -25 -3 -14 -10 -25 -15 -25 -13 0 -11 14 3 28 20 20 -7 40 -32 24
-13 -8 -20 -8 -20 -2 0 6 6 13 14 16 22 8 7 46 -15 39 -11 -4 -19 -2 -19 4 0
6 9 11 19 11 11 0 22 6 24 13 3 6 6 -2 6 -19 1 -19 10 -39 23 -50 l22 -19 -17
25 c-9 13 -17 37 -17 52 0 21 -6 29 -25 34 -14 3 -22 10 -19 15 3 5 15 3 27
-6 19 -13 23 -13 38 1 11 9 48 19 88 24 59 6 80 14 128 48 44 30 57 45 56 61
-4 33 14 61 49 75 36 16 70 10 97 -15z m1999 -10 c22 -24 33 -30 50 -25 12 4
22 16 22 26 0 16 7 15 79 -13 66 -26 82 -37 95 -64 17 -35 42 -42 76 -21 27
17 47 -2 30 -29 -10 -15 -9 -25 4 -51 9 -18 21 -32 26 -32 11 0 60 51 60 62 0
14 27 9 40 -7 10 -12 9 -15 -4 -15 -12 0 -15 -6 -11 -23 7 -26 -18 -56 -30
-37 -10 16 -25 2 -18 -18 6 -14 4 -15 -9 -5 -33 28 -24 -1 13 -39 46 -48 74
-130 65 -189 -6 -36 -3 -40 49 -90 30 -28 55 -58 55 -65 0 -14 -77 -114 -88
-114 -5 0 -33 22 -62 48 l-54 49 -32 -19 c-41 -24 -118 -33 -170 -19 -59 16
-104 49 -142 105 -25 38 -32 43 -30 25 2 -18 -1 -23 -15 -21 -23 4 -49 -17
-43 -34 7 -18 -12 -28 -28 -15 -7 6 -16 8 -20 4 -6 -7 -25 14 -26 28 0 3 12
12 28 19 15 7 22 15 15 17 -15 6 -17 33 -3 33 6 0 3 11 -6 25 -15 23 -17 23
-32 8 -16 -16 -17 -14 -20 25 -2 23 -7 42 -13 42 -23 0 4 -136 41 -210 75
-148 265 -243 423 -210 265 55 406 329 290 568 -15 31 -28 59 -30 62 -2 3 11
13 27 22 17 9 30 25 30 35 0 10 14 26 31 36 30 17 32 17 45 0 28 -38 27 -54
-6 -82 -26 -21 -31 -31 -25 -50 6 -21 11 -22 56 -16 27 4 49 5 49 3 0 -2 4
-18 9 -36 10 -33 9 -34 -35 -52 -24 -11 -44 -24 -44 -29 0 -24 14 -41 34 -41
53 0 66 -11 66 -51 l0 -39 -45 0 c-38 0 -47 -4 -54 -22 -11 -29 -6 -37 35 -54
19 -8 34 -21 34 -29 0 -26 -23 -66 -36 -61 -7 3 -28 8 -47 11 -30 6 -36 4 -42
-15 -5 -17 1 -30 25 -55 l31 -32 -25 -29 c-26 -31 -22 -31 -86 8 -16 11 -23
10 -37 -5 -17 -17 -17 -20 5 -59 17 -32 20 -44 10 -49 -7 -4 -22 -14 -33 -23
-19 -14 -22 -13 -50 21 -25 29 -35 34 -54 28 -21 -6 -22 -11 -16 -55 6 -47 6
-48 -26 -59 -17 -6 -34 -11 -36 -11 -2 0 -12 20 -22 44 -17 38 -22 43 -45 39
-21 -4 -26 -11 -26 -33 0 -49 -9 -60 -51 -60 l-38 0 -3 48 c-3 42 -6 47 -29
50 -21 2 -28 -4 -43 -37 l-18 -39 -37 13 c-32 11 -36 16 -32 41 7 56 6 66 -11
77 -14 9 -24 6 -51 -21 l-34 -33 -26 21 c-32 26 -33 33 -7 71 18 24 19 31 8
49 -16 25 -18 25 -64 -2 -30 -18 -38 -19 -44 -7 -5 8 -15 23 -24 34 -14 19
-13 22 21 50 28 24 34 36 29 52 -6 20 -12 21 -55 16 -47 -5 -48 -5 -60 27 -6
18 -11 35 -11 37 0 2 21 13 46 23 34 15 44 24 40 36 -3 9 -6 20 -6 25 0 5 -16
9 -35 9 -38 0 -42 -6 -21 -35 12 -17 16 -18 32 -5 14 13 17 13 13 1 -6 -17
-77 -44 -96 -36 -11 4 -11 8 -1 25 11 18 10 23 -12 40 -22 17 -23 20 -7 25 18
8 24 50 7 60 -15 9 -12 25 5 25 11 0 15 -13 17 -52 l2 -53 3 47 4 47 47 3 c42
3 47 6 50 28 2 21 -4 29 -37 45 l-39 20 15 38 c12 28 20 37 32 32 9 -4 30 -9
47 -12 27 -4 33 -2 39 17 5 17 0 30 -25 55 l-31 32 25 29 c27 31 21 32 88 -10
14 -8 22 -7 35 7 16 16 16 19 -6 57 -13 23 -21 43 -20 44 23 17 55 36 61 36 5
0 21 -14 36 -31z m1117 1 c8 0 19 8 24 18 10 16 10 16 11 -1 0 -23 26 -33 45
-17 12 10 15 9 15 -8 0 -25 28 -36 48 -20 13 11 15 10 9 -6 -8 -21 9 -47 27
-40 7 3 12 -5 11 -23 0 -23 4 -27 23 -25 26 4 29 -6 5 -23 -11 -8 -13 -17 -7
-26 11 -18 12 -79 1 -102 -6 -14 -4 -22 10 -33 17 -13 17 -13 -5 -14 -15 0
-26 -7 -29 -20 -5 -18 -7 -18 -29 -3 -13 8 -24 24 -24 34 0 15 -7 19 -38 19
-21 0 -48 -7 -60 -16 -42 -29 -18 -104 35 -104 16 0 23 -6 23 -20 0 -11 -4
-20 -10 -20 -5 0 -10 5 -10 10 0 19 -31 10 -39 -12 -6 -18 -9 -19 -14 -5 -8
21 -47 22 -47 2 0 -8 -4 -15 -10 -15 -5 0 -10 9 -10 20 0 13 -7 20 -20 20 -11
0 -20 -4 -20 -10 0 -5 -5 -10 -10 -10 -6 0 -10 8 -8 18 2 13 -4 17 -24 17 -21
-1 -27 4 -25 20 2 15 -5 21 -26 23 -23 3 -26 6 -17 17 15 18 4 35 -23 35 -16
0 -18 3 -9 12 7 7 12 21 12 33 0 12 3 25 8 30 4 6 3 7 -2 3 -17 -14 -74 -9
-90 8 -40 39 -6 97 63 109 46 8 58 19 41 40 -9 11 -6 14 17 17 22 2 28 8 26
26 -3 19 1 21 23 16 20 -5 26 -2 31 15 4 17 8 19 19 10 18 -15 44 -4 44 18 1
17 1 17 11 1 5 -10 16 -18 24 -18z m-1995 -55 c12 -14 15 -14 32 1 17 16 19
16 32 -1 12 -17 16 -17 30 -6 14 12 19 11 31 -5 12 -16 17 -17 35 -6 18 11 21
10 30 -13 11 -28 20 -31 38 -13 7 7 13 9 13 5 1 -4 3 -11 4 -17 1 -5 3 -15 4
-21 1 -7 11 -9 26 -5 22 6 25 3 25 -20 0 -22 4 -26 24 -22 21 4 24 1 23 -21
-2 -19 3 -27 19 -29 17 -2 20 -8 16 -28 -3 -19 0 -26 16 -31 17 -4 19 -9 12
-23 -5 -9 -7 -20 -4 -22 2 -3 5 -71 7 -151 1 -112 -1 -147 -10 -147 -7 0 -13
-8 -13 -18 0 -10 6 -24 13 -31 10 -11 8 -12 -9 -7 -27 8 -53 -19 -36 -36 18
-18 14 -24 -15 -23 -25 0 -28 -3 -25 -29 3 -26 1 -28 -12 -17 -25 21 -49 6
-41 -27 5 -22 4 -25 -6 -14 -23 22 -49 15 -49 -15 0 -25 -1 -26 -20 -8 -16 15
-22 16 -35 5 -9 -7 -14 -19 -11 -27 7 -18 -4 -16 -19 4 -16 22 -45 10 -45 -19
l0 -23 -19 24 c-21 27 -51 23 -51 -6 -1 -13 -5 -11 -16 10 -18 33 -27 34 -47
5 l-16 -23 0 23 c-1 29 -30 41 -46 19 -16 -23 -22 -21 -21 6 1 16 -5 23 -21
25 -13 2 -23 -1 -23 -7 0 -6 -4 -11 -9 -11 -6 0 -9 12 -8 28 2 28 -9 32 -46
17 -17 -7 -18 -6 -6 13 11 17 11 24 1 34 -6 6 -12 19 -12 27 0 10 11 5 33 -16
36 -34 77 -63 89 -63 5 0 8 11 8 24 0 13 9 35 21 50 11 14 16 26 10 26 -18 0
-72 53 -67 66 3 7 1 16 -5 20 -6 3 -8 12 -5 20 3 8 1 14 -4 14 -14 0 -12 -23
3 -39 10 -11 9 -13 -6 -7 -27 9 -39 -2 -27 -24 8 -15 7 -17 -12 -12 -18 4 -20
2 -16 -16 5 -17 2 -21 -16 -19 -16 1 -20 -3 -18 -17 3 -16 1 -18 -10 -9 -16
14 -44 1 -34 -16 4 -6 2 -11 -3 -11 -6 0 -11 5 -11 10 0 19 -21 10 -29 -12 -6
-18 -9 -19 -14 -5 -8 21 -27 22 -27 2 0 -8 -4 -15 -10 -15 -5 0 -10 7 -10 15
0 20 -17 19 -29 -2 -10 -17 -10 -17 -11 0 0 19 -25 23 -36 5 -5 -7 -10 -4 -16
11 -7 19 -11 21 -23 11 -13 -10 -15 -9 -15 9 0 24 -10 27 -28 9 -10 -10 -12
-7 -10 12 3 21 -1 25 -21 22 -19 -2 -22 0 -12 12 15 18 0 29 -26 20 -15 -6
-16 -4 -5 7 16 18 15 39 -2 39 -9 0 -12 7 -9 20 4 14 0 20 -12 20 -15 0 -15 2
-4 16 11 14 10 18 -6 30 -17 12 -17 14 -2 14 9 0 17 7 17 15 0 8 -4 15 -10 15
-5 0 -10 5 -10 10 0 6 7 10 15 10 18 0 19 12 3 28 -9 9 -8 12 6 12 13 0 17 5
13 19 -3 14 2 21 16 25 17 4 19 8 9 18 -17 17 -15 33 2 19 17 -14 31 2 22 25
-4 11 0 13 20 8 24 -6 26 -5 19 17 -7 21 -6 22 8 11 20 -17 38 -7 30 16 -6 15
-5 15 11 2 16 -13 20 -12 32 5 8 10 14 13 14 7 0 -19 30 -14 30 6 1 15 2 15
16 -3 15 -20 15 -20 30 -1 12 17 14 17 14 4 0 -26 20 -32 35 -12 14 18 14 18
15 -3 0 -25 10 -29 28 -11 9 9 12 7 12 -11 0 -18 4 -21 21 -16 16 5 20 3 17
-12 -2 -14 3 -17 21 -15 20 2 22 0 11 -13 -11 -14 -10 -17 7 -21 14 -4 19 -12
16 -25 -4 -15 0 -19 18 -19 24 -1 24 -1 4 -16 -19 -14 -19 -15 3 -20 22 -6 31
-24 12 -24 -5 0 -10 -7 -10 -15 0 -8 8 -15 17 -15 15 0 14 -2 -3 -15 -19 -15
-19 -15 0 -30 19 -15 19 -15 -2 -15 -13 0 -22 -6 -22 -15 0 -8 5 -15 10 -15 6
0 10 -6 10 -13 0 -8 11 -24 26 -37 33 -32 44 -16 44 66 0 48 -6 74 -28 115
l-27 54 20 79 c18 71 23 81 50 92 17 7 51 13 77 14 l46 0 -1 38 c-1 20 3 45 7
55 7 15 2 17 -40 17 -27 0 -64 -4 -82 -9 -27 -8 -32 -7 -31 7 1 30 15 57 23
44 10 -17 46 -15 46 3 0 19 14 19 30 0z m2316 -20 c9 -8 24 -15 35 -15 10 0
19 7 19 15 0 18 12 19 28 3 10 -10 17 -10 31 -1 16 10 20 9 24 -8 4 -16 12
-20 34 -17 22 2 27 -1 25 -15 -2 -12 4 -21 18 -24 14 -4 19 -11 15 -24 -4 -11
1 -25 14 -36 19 -16 19 -18 4 -36 -15 -16 -15 -19 -3 -27 12 -8 11 -12 -7 -29
-14 -14 -19 -27 -16 -42 5 -18 3 -21 -11 -16 -12 5 -19 -1 -26 -19 -8 -21 -13
-24 -24 -14 -12 9 -19 7 -36 -10 -21 -21 -22 -21 -35 -3 -11 14 -16 16 -26 6
-17 -17 -29 -16 -29 1 0 17 -25 27 -46 19 -11 -4 -15 -1 -12 13 2 13 -4 20
-20 22 -18 3 -21 8 -16 29 5 19 2 30 -12 40 -16 12 -17 15 -4 23 12 8 13 13 3
29 -11 18 -10 22 8 31 13 7 19 19 17 33 -2 16 2 22 17 22 13 0 21 8 23 23 3
17 -2 22 -17 22 -12 0 -21 5 -21 10 0 15 29 12 46 -5z m-3210 -40 c8 -20 44
-19 59 2 13 18 39 9 31 -12 -6 -16 41 -39 50 -24 4 6 11 6 20 -2 10 -8 11 -15
4 -24 -13 -16 16 -56 35 -49 10 4 15 0 15 -15 0 -12 -4 -21 -10 -21 -5 0 -10
-11 -10 -24 0 -14 5 -28 10 -31 18 -11 11 -35 -10 -35 -20 0 -23 -5 -24 -50
-1 -20 -6 -25 -26 -26 -45 -1 -50 -4 -50 -24 0 -23 -25 -27 -34 -5 -3 8 6 47
20 85 23 60 25 74 14 99 -15 38 -59 57 -92 40 -27 -14 -38 -28 -37 -49 0 -8 4
-5 9 8 15 35 54 48 84 28 38 -24 40 -53 11 -129 -32 -86 -34 -180 -5 -237 26
-51 25 -84 -2 -110 -29 -27 -64 -25 -93 5 -32 31 -31 43 5 112 26 49 30 66 29
132 0 47 -7 95 -19 126 -10 28 -19 45 -19 39 -1 -6 6 -31 14 -54 25 -71 16
-147 -10 -87 -7 16 -18 22 -40 22 -23 0 -30 5 -31 20 -2 41 -5 46 -29 55 -28
11 -32 25 -10 34 8 3 15 17 15 31 0 16 -6 25 -15 25 -8 0 -15 7 -15 15 0 8 9
15 20 15 26 0 46 36 30 56 -10 11 -9 15 3 20 9 3 21 3 26 -1 14 -8 53 13 46
26 -7 11 2 29 16 29 5 0 12 -7 15 -15z m-335 -158 c9 9 16 9 30 0 15 -9 24 -9
39 1 17 11 20 10 20 -7 0 -26 21 -32 44 -12 17 15 18 15 15 -6 -4 -23 35 -73
55 -69 6 2 8 1 4 -1 -15 -9 -8 -25 8 -19 14 5 15 4 4 -9 -11 -13 -10 -19 5
-35 9 -10 24 -16 33 -14 15 5 15 4 0 -9 -24 -19 -23 -48 2 -54 11 -3 17 -9 14
-14 -3 -5 0 -9 5 -9 6 0 11 7 11 15 0 8 -6 15 -14 15 -25 0 -28 18 -6 40 24
24 34 26 26 4 -4 -11 1 -18 14 -21 27 -7 27 -62 0 -93 -11 -13 -20 -29 -20
-36 0 -7 -6 -17 -12 -21 -7 -4 -13 -15 -13 -23 0 -8 -9 -16 -20 -18 -12 -2
-16 0 -9 5 17 13 24 41 11 47 -7 3 -2 3 10 0 18 -4 22 -2 17 10 -4 9 -1 16 6
16 7 0 10 7 6 16 -4 10 -2 13 6 8 6 -4 8 -3 5 4 -4 5 -17 8 -29 4 -17 -4 -20
-2 -15 11 4 10 2 17 -3 17 -17 0 -11 -28 8 -39 15 -8 14 -11 -10 -20 -26 -10
-40 -41 -18 -41 6 0 10 -5 10 -11 0 -6 -7 -8 -16 -5 -9 4 -22 1 -30 -5 -10 -9
-12 -4 -7 25 4 24 0 44 -10 60 -14 21 -14 25 -2 30 8 3 15 15 15 26 0 25 -35
28 -48 3 -11 -19 -40 -11 -49 14 -24 70 -88 82 -153 28 -53 -45 -64 -44 -45 2
14 32 14 38 1 52 -13 12 -18 12 -31 1 -9 -7 -14 -19 -11 -26 3 -7 -2 -18 -10
-24 -15 -13 -18 -8 -14 23 1 11 -8 26 -19 34 -27 19 -27 33 2 30 18 -2 22 3
20 25 -1 23 2 26 25 25 22 -2 27 2 25 21 -3 24 7 28 23 12 14 -14 44 -2 44 16
0 12 4 12 20 2 15 -9 22 -10 31 -1z m2970 -39 c10 -10 25 -18 34 -18 11 0 15
-8 13 -27 -3 -23 1 -27 22 -28 21 0 24 -4 22 -24 -3 -21 -1 -23 21 -17 21 5
26 2 29 -16 2 -12 14 -28 28 -35 17 -9 20 -13 8 -13 -26 0 -33 -21 -13 -37 18
-12 18 -13 -3 -13 -15 0 -22 -6 -22 -19 0 -10 -6 -24 -14 -31 -8 -6 -12 -18
-9 -26 4 -10 0 -15 -8 -14 -30 5 -37 0 -32 -22 5 -19 3 -21 -8 -10 -20 19 -39
14 -39 -10 -1 -21 -2 -21 -11 -5 -5 9 -17 17 -24 17 -8 0 -15 -8 -15 -17 -1
-17 -1 -17 -14 0 -7 9 -18 17 -25 17 -6 0 -11 -8 -12 -17 0 -11 -3 -13 -6 -5
-3 7 0 26 6 42 10 29 8 31 -30 51 -27 13 -39 26 -37 37 3 14 16 18 68 20 71 3
90 13 90 47 0 31 -15 41 -87 56 -36 7 -65 19 -68 27 -7 18 -10 15 40 35 28 11
39 21 38 34 -1 10 5 22 13 26 8 4 14 16 15 25 0 14 2 14 6 2 3 -8 14 -23 24
-32z m383 -23 c110 -78 785 -335 880 -335 37 0 48 -4 61 -24 13 -19 14 -29 6
-45 -19 -35 -46 -35 -98 3 -106 75 -790 336 -883 336 -51 0 -70 13 -70 46 0
24 24 54 43 54 7 0 34 -16 61 -35z m-2797 -50 c10 -22 9 -25 -8 -25 -21 0 -26
-15 -8 -25 6 -5 4 -12 -8 -20 -17 -13 -17 -14 1 -28 17 -12 17 -14 2 -20 -20
-8 -21 -27 -1 -27 8 0 15 -4 15 -10 0 -5 -4 -10 -10 -10 -5 0 -10 -7 -10 -15
0 -8 7 -15 16 -15 13 0 14 -3 4 -15 -14 -17 -5 -36 15 -28 8 3 15 1 15 -5 0
-6 -5 -12 -12 -14 -6 -2 -8 -10 -4 -17 5 -7 14 -10 22 -7 9 4 13 -2 11 -17 -1
-17 3 -21 17 -19 13 3 17 -1 13 -12 -8 -21 10 -31 28 -16 13 10 15 8 15 -14 0
-31 -16 -66 -30 -66 -5 0 -10 15 -12 32 -4 41 -30 48 -46 13 -15 -33 -29 -32
-37 5 -4 20 -13 30 -25 30 -12 0 -21 -10 -25 -30 -4 -16 -10 -30 -15 -30 -15
0 -22 40 -10 55 10 12 7 17 -14 26 -35 16 -33 29 4 29 20 0 30 5 30 15 0 10
-10 15 -31 15 -20 0 -29 4 -26 13 2 6 -2 17 -9 22 -6 6 -15 21 -19 35 -5 20
-4 22 5 10 9 -13 10 -12 7 5 -2 11 -9 19 -15 18 -8 -2 -12 10 -12 32 0 30 3
35 24 35 18 0 25 6 28 23 2 16 10 22 28 22 35 0 52 13 45 36 -13 41 23 54 42
14z m2739 -90 c4 -8 12 -15 20 -15 8 0 14 7 14 15 0 8 7 15 15 15 8 0 15 -9
15 -20 0 -22 10 -26 27 -9 16 16 32 3 26 -21 -3 -12 0 -20 8 -20 7 0 10 -3 6
-6 -3 -3 -29 2 -57 11 -88 29 -167 -2 -201 -81 -29 -65 -19 -117 33 -169 22
-21 35 -41 29 -43 -6 -2 -11 -13 -11 -25 0 -11 -3 -17 -7 -13 -5 4 -8 18 -8
29 0 12 -6 21 -12 20 -7 -2 -19 -4 -25 -5 -7 -2 -12 3 -10 10 1 6 3 18 5 25 1
7 -7 11 -20 10 -24 -3 -32 20 -13 32 17 10 11 25 -10 25 -11 0 -20 7 -20 15 0
8 7 15 15 15 8 0 15 6 15 14 0 8 -7 16 -15 20 -22 8 -18 26 5 26 21 0 28 24
10 35 -18 11 -10 26 13 23 19 -3 22 1 19 25 -3 28 6 35 25 16 14 -14 34 -3 27
16 -10 25 7 40 22 21 14 -20 34 -14 34 10 0 19 19 18 26 -1z m235 -4 c-17 -11
1 -23 23 -15 11 4 16 1 16 -10 0 -10 -21 -25 -54 -40 -52 -23 -146 -99 -146
-117 0 -5 9 -9 20 -9 12 0 31 -11 44 -25 l23 -25 24 26 c22 23 69 54 84 54 3
0 5 -8 5 -18 0 -10 -21 -37 -46 -61 -52 -49 -73 -92 -76 -152 -1 -40 -18 -69
-40 -69 -7 0 -9 24 -6 70 5 68 5 70 -18 70 -12 0 -30 3 -40 7 -12 4 -15 3 -10
-5 4 -7 2 -12 -4 -12 -7 0 -9 8 -5 20 4 11 2 20 -4 20 -25 0 -39 -120 -22
-192 6 -27 5 -38 -4 -42 -8 -2 -16 2 -19 10 -3 8 -12 14 -21 14 -18 0 -19 4
-2 31 10 17 9 22 -7 35 -20 14 -20 14 0 28 18 14 18 16 2 32 -16 16 -15 18 5
35 18 14 20 20 10 30 -18 18 -16 29 3 29 13 0 15 7 11 30 -6 26 -3 30 15 30
18 0 20 4 14 30 -4 21 -2 30 7 29 32 -4 39 1 33 26 -5 21 -3 24 16 22 17 -1
24 4 28 23 4 19 11 25 30 25 18 0 24 5 22 17 -2 15 2 17 28 12 26 -6 30 -3 30
14 0 19 12 30 35 31 6 0 4 -3 -4 -8z m142 -41 l67 -24 0 -81 c0 -97 -29 -219
-67 -284 -49 -85 -140 -169 -228 -212 -98 -47 -285 -93 -285 -69 0 5 11 10 25
10 31 0 35 35 5 43 -27 7 -25 25 2 29 31 4 36 35 7 40 -45 6 -29 25 33 38 92
20 189 72 242 131 79 88 106 170 106 326 0 64 3 84 13 81 6 -3 42 -15 80 -28z
m-3543 -15 c34 -17 50 -43 50 -79 0 -25 -95 -176 -111 -176 -16 0 -10 17 13
32 26 17 17 38 -18 38 -30 0 -30 7 -2 29 26 22 15 45 -18 38 -27 -5 -29 0 -9
26 18 25 9 46 -17 39 -18 -4 -19 -3 -9 16 14 27 50 52 74 52 10 0 31 -7 47
-15z m4129 -57 c11 -10 14 -10 18 0 6 17 23 15 23 -3 0 -9 9 -15 25 -15 16 0
25 -6 25 -15 0 -8 7 -15 16 -15 10 0 13 -6 9 -19 -3 -10 1 -24 10 -31 12 -10
13 -16 4 -26 -9 -11 -8 -18 1 -29 10 -12 10 -15 -4 -15 -15 0 -20 -11 -17 -36
1 -7 -8 -14 -20 -17 -13 -4 -18 -10 -14 -17 5 -9 1 -10 -13 -6 -12 4 -26 1
-35 -8 -10 -11 -17 -12 -25 -4 -8 8 -15 8 -25 -1 -12 -9 -16 -8 -21 4 -3 8
-15 15 -26 15 -11 0 -20 7 -20 15 0 8 -7 15 -15 15 -9 0 -15 9 -15 23 0 13 -4
27 -10 33 -14 14 4 36 23 28 9 -3 14 -10 11 -15 -11 -18 31 -73 48 -63 14 9 8
24 -7 18 -11 -4 -15 0 -15 16 0 23 1 23 20 5 12 -11 18 -25 15 -36 -4 -12 1
-19 15 -24 30 -10 62 3 56 23 -7 22 8 47 23 38 6 -4 9 -12 5 -17 -3 -5 -10 -7
-15 -4 -5 4 -9 2 -9 -4 0 -20 19 -21 30 -2 7 13 7 22 0 26 -5 3 -10 16 -10 29
0 12 -5 27 -12 34 -9 9 -9 15 0 24 10 10 15 10 22 -2 6 -8 8 -21 5 -27 -2 -7
0 -13 5 -13 6 0 10 5 10 11 0 53 -114 108 -127 61 -3 -14 -12 -17 -39 -14 -38
5 -57 22 -25 22 13 0 21 7 21 16 0 10 6 14 15 10 8 -3 21 1 27 9 16 18 21 18
37 3z m-439 -76 c19 -14 38 -30 41 -34 3 -5 11 3 17 16 6 14 23 28 37 32 14 3
25 10 25 15 0 17 29 9 49 -12 12 -13 26 -19 35 -16 19 8 21 -4 4 -22 -11 -10
-9 -15 6 -26 10 -8 23 -12 27 -9 13 8 11 -10 -2 -23 -17 -17 -3 -43 22 -43 21
0 21 0 -2 -20 l-24 -21 22 -15 23 -16 -22 -17 c-22 -18 -18 -41 8 -41 8 0 14
-4 14 -10 0 -5 -9 -10 -19 -10 -28 0 -34 -27 -10 -44 21 -14 21 -14 -2 -18
-30 -4 -37 -35 -12 -53 17 -13 15 -14 -14 -15 -32 0 -46 -21 -23 -35 19 -11
10 -22 -14 -18 -29 6 -40 -10 -26 -36 9 -18 7 -20 -17 -18 -25 2 -28 -1 -26
-26 2 -24 0 -26 -18 -17 -26 14 -39 5 -39 -28 0 -20 -3 -23 -12 -14 -22 22
-48 14 -48 -15 -1 -25 -2 -26 -14 -10 -14 18 -46 24 -46 7 0 -5 7 -7 15 -4 24
10 28 -21 11 -89 -9 -35 -16 -80 -16 -100 0 -36 -1 -37 -35 -37 -24 0 -37 6
-45 19 -16 31 -12 35 16 16 20 -13 29 -14 38 -5 8 9 8 14 0 17 -6 2 -20 10
-30 18 -18 13 -17 14 14 15 22 0 32 5 32 15 0 10 -10 15 -30 15 -37 0 -39 13
-4 29 26 11 28 39 3 32 -8 -2 -22 -6 -32 -8 -17 -5 -17 -4 0 26 l18 31 16 -22
c15 -20 39 -18 39 3 0 6 -5 7 -11 4 -6 -4 -16 1 -23 11 -15 20 -46 13 -46 -11
0 -8 -4 -15 -10 -15 -5 0 -10 6 -10 14 0 26 -23 30 -41 7 -17 -21 -18 -21 -24
-1 -8 25 -33 26 -51 3 -12 -17 -13 -16 -14 5 0 27 -24 39 -45 22 -12 -10 -15
-9 -15 8 0 27 -15 35 -40 22 -18 -9 -20 -8 -20 16 0 23 -3 26 -26 21 -21 -4
-25 -1 -22 17 4 28 35 32 61 7 26 -24 120 -68 165 -77 l31 -6 -12 31 c-9 24
-9 36 1 51 16 26 15 30 -5 30 -9 0 -36 10 -61 21 -40 20 -42 23 -28 37 14 15
20 14 67 -2 36 -13 65 -17 101 -13 51 6 108 33 115 54 7 19 -80 45 -141 41
-31 -1 -56 -1 -56 1 0 14 47 51 65 51 11 0 31 7 44 16 20 14 22 22 17 63 -8
66 -7 94 4 105 7 7 10 6 10 -2 0 -24 52 -91 91 -116 21 -14 41 -26 44 -26 13
0 3 79 -16 120 -24 52 -53 86 -91 106 -19 10 -28 22 -28 39 0 29 16 26 70 -13z
m-3571 -12 c27 0 27 -14 -1 -32 -27 -18 -16 -43 13 -28 11 7 17 16 12 23 -4 7
-1 7 10 -2 15 -12 15 -16 1 -42 -8 -16 -19 -29 -25 -29 -7 0 -9 -12 -5 -35 8
-39 -5 -46 -36 -18 -28 25 -46 3 -31 -37 14 -36 7 -43 -23 -23 -20 12 -27 13
-39 3 -14 -11 -14 -15 0 -36 19 -30 19 -34 -2 -34 -17 0 -73 47 -73 62 0 4 11
8 25 8 31 0 34 29 5 37 -27 7 -25 22 5 33 27 10 31 20 16 36 -13 12 9 41 34
46 14 2 19 10 17 26 -3 20 0 23 25 20 26 -3 28 0 25 27 -2 27 -1 28 11 13 8
-10 24 -18 36 -18z m2562 -40 c10 0 19 5 19 10 0 6 7 10 15 10 8 0 15 -7 15
-15 0 -8 9 -15 19 -15 10 0 21 7 25 15 9 25 29 17 22 -9 -8 -34 20 -43 45 -14
l20 23 -4 -33 c-5 -41 15 -52 45 -26 21 19 21 19 14 -17 -8 -44 1 -54 30 -35
28 19 39 8 18 -16 -23 -25 -2 -53 28 -37 27 14 35 3 15 -19 -25 -28 -21 -42
13 -42 17 0 30 -4 30 -10 0 -5 -3 -10 -7 -10 -41 -1 -35 -50 6 -51 l26 0 -22
-16 c-30 -20 -29 -41 2 -49 28 -7 24 -24 -6 -24 -26 0 -25 -37 1 -45 28 -9 25
-25 -5 -25 -18 0 -25 -5 -25 -19 0 -10 7 -21 15 -25 25 -9 17 -29 -9 -22 -34
8 -43 -20 -14 -46 l23 -19 -32 5 c-39 6 -52 -17 -26 -46 17 -19 17 -20 -20
-13 -39 8 -47 -3 -28 -35 15 -23 1 -33 -20 -14 -15 14 -21 14 -34 4 -11 -9
-12 -17 -4 -32 14 -27 3 -35 -19 -15 -28 26 -42 20 -42 -15 l-1 -33 -18 23
c-11 12 -26 20 -34 16 -8 -3 -17 2 -20 11 -5 11 -14 14 -32 9 -28 -7 -33 7
-10 26 8 7 12 17 9 22 -7 11 25 89 40 99 5 4 6 14 3 23 -8 21 10 30 21 11 7
-14 14 -10 44 23 45 50 64 122 48 180 -13 49 -22 57 -50 42 -18 -10 -20 -17
-14 -55 6 -41 -8 -109 -24 -119 -4 -2 -7 38 -7 90 0 59 4 94 11 94 5 0 19 7
30 15 18 14 17 16 -28 59 -58 53 -61 69 -14 61 28 -6 36 -3 44 12 14 26 3 41
-49 61 -24 9 -54 24 -65 32 -28 20 -56 65 -47 74 5 4 9 -2 11 -13 2 -13 11
-21 23 -21z m-2274 -50 c7 -37 35 -40 51 -5 16 36 32 31 32 -10 0 -27 4 -35
18 -35 9 0 23 9 30 20 19 31 35 25 28 -10 -7 -37 15 -51 43 -26 17 16 41 22
41 10 0 -3 -5 -15 -11 -26 -9 -16 -8 -24 5 -36 14 -14 17 -14 34 1 18 16 42
23 42 12 0 -3 -7 -16 -15 -29 -14 -20 -14 -25 -1 -35 11 -9 20 -10 36 -1 32
17 45 1 19 -26 -18 -19 -20 -26 -10 -38 9 -11 19 -13 37 -5 33 12 34 12 34 -5
0 -7 -9 -20 -21 -27 -13 -9 -18 -20 -14 -31 9 -24 24 -23 18 1 -6 25 8 32 48
24 l33 -6 -34 -13 c-19 -7 -27 -13 -18 -13 28 -2 31 -20 4 -33 -36 -16 -34
-45 4 -53 37 -8 39 -22 5 -31 -37 -9 -33 -43 5 -51 37 -7 34 -27 -3 -31 -35
-4 -36 -38 -2 -54 34 -15 31 -28 -5 -28 -40 0 -52 -28 -22 -48 32 -21 27 -34
-10 -30 -39 4 -50 -22 -22 -53 22 -24 14 -32 -19 -20 -36 14 -57 -11 -33 -37
17 -19 21 -42 8 -42 -4 0 -17 7 -29 15 -18 13 -22 13 -33 0 -9 -10 -9 -19 0
-35 17 -31 -1 -45 -26 -21 -30 28 -55 11 -44 -29 11 -39 -3 -47 -28 -15 -25
32 -54 24 -50 -14 4 -34 -14 -43 -27 -13 -5 12 -17 22 -27 22 -20 0 -32 -16
-18 -25 5 -3 10 -1 10 4 0 22 16 10 34 -24 20 -37 16 -56 -7 -37 -19 16 -41
-6 -26 -24 17 -20 2 -36 -22 -24 -11 6 -17 15 -14 19 2 5 -2 14 -10 21 -8 7
-15 17 -15 23 0 7 4 7 12 -1 19 -19 38 -14 37 11 -1 16 -2 18 -6 5 -7 -27 -20
-22 -32 12 -16 48 -61 33 -48 -17 4 -16 6 -15 12 5 7 22 25 31 25 13 0 -19
-30 -39 -50 -34 -14 4 -20 14 -20 34 0 38 -35 40 -52 4 -15 -34 -28 -31 -28 5
0 44 -26 50 -56 14 -24 -30 -27 -28 -24 19 2 37 -24 46 -49 16 -17 -21 -20
-22 -26 -7 -4 9 -2 26 4 37 9 16 8 22 -8 30 -14 8 -22 7 -31 -4 -13 -16 -40
-21 -40 -7 0 4 7 17 15 29 21 30 -1 49 -39 32 -35 -16 -44 -4 -18 24 17 18 18
25 9 38 -9 12 -18 14 -36 7 -36 -13 -49 7 -17 27 36 24 21 54 -23 47 -38 -5
-41 14 -6 30 32 14 29 42 -5 46 -42 6 -47 21 -12 34 42 16 42 44 1 53 -36 8
-33 29 4 33 35 4 36 35 2 50 -34 16 -31 30 7 34 41 4 48 29 14 48 -32 17 -23
34 14 26 38 -7 48 19 20 49 -25 27 -12 42 21 25 33 -18 48 3 27 40 -20 36 -14
43 22 25 24 -12 30 -12 40 0 8 10 9 19 0 35 -17 31 -2 45 24 21 29 -28 50 -14
41 28 -8 36 0 39 30 11 29 -27 53 -18 47 19 -5 38 15 49 30 17 16 -37 48 -34
48 4 0 37 27 41 36 5 9 -36 41 -33 49 5 4 17 11 30 16 30 5 0 12 -13 16 -30z
m1160 -44 l22 -34 -36 -29 c-29 -23 -34 -33 -28 -52 6 -21 11 -22 55 -16 47 6
48 6 59 -26 16 -46 16 -46 -34 -65 -25 -9 -45 -23 -45 -30 0 -23 31 -44 66
-44 34 0 34 0 34 -44 l0 -45 -47 -3 c-43 -3 -48 -6 -51 -29 -3 -21 4 -28 38
-44 22 -10 40 -20 40 -22 0 -2 -7 -20 -16 -41 -16 -36 -16 -37 -27 -14 -7 16
-17 22 -29 19 -19 -5 -25 8 -8 18 19 11 -10 36 -33 29 -16 -5 -19 -3 -13 11 4
11 0 22 -10 30 -14 10 -16 28 -15 101 2 106 -13 162 -69 247 -22 32 -42 66
-45 76 -7 24 11 37 31 20 8 -6 17 -9 21 -6 3 4 12 2 19 -4 9 -7 23 -5 51 10
21 11 40 20 43 20 3 1 15 -14 27 -33z m1047 -19 l28 -20 23 29 23 29 21 -49
c33 -76 43 -132 44 -246 0 -88 -4 -118 -27 -187 -17 -52 -35 -88 -49 -98 -24
-17 -37 -4 -18 19 8 10 8 16 -3 25 -10 8 -16 9 -21 1 -10 -16 -35 -12 -29 5 4
8 3 22 0 31 -6 15 -8 15 -28 -2 -21 -19 -21 -19 -15 0 24 64 29 115 23 224
-11 182 -11 189 -30 217 -14 21 -15 29 -6 41 13 14 17 13 64 -19z m-863 -47
c10 0 30 12 45 28 22 22 24 23 15 5 -6 -12 -17 -26 -25 -30 -19 -11 41 -108
140 -225 104 -122 420 -438 464 -463 41 -24 49 -54 21 -79 -29 -26 -55 -13
-89 47 -62 108 -477 553 -561 602 -58 34 -73 65 -46 95 10 11 14 20 8 20 -5 0
-15 11 -21 25 -18 40 -14 43 9 8 12 -18 29 -33 40 -33z m2476 -92 c-6 -165
-21 -246 -42 -228 -6 5 -14 7 -18 4 -3 -3 -15 -3 -27 1 -14 5 -20 13 -18 28 3
19 -1 22 -31 19 l-34 -2 6 52 c4 29 7 94 7 144 l0 90 44 -2 c33 -2 46 1 50 13
5 12 9 13 20 4 10 -8 16 -8 25 2 6 8 8 17 4 20 -3 4 0 7 7 7 10 0 12 -31 7
-152z m-1762 48 l30 -24 -23 -46 c-24 -50 -30 -142 -12 -177 10 -18 12 -18 35
-3 22 14 24 21 19 54 -7 44 9 100 35 124 17 16 19 15 25 -6 8 -31 8 -208 -1
-208 -3 0 -14 7 -24 16 -14 13 -20 13 -38 2 -12 -7 -21 -18 -21 -24 0 -7 -9
-14 -20 -17 -16 -4 -25 3 -40 33 -10 20 -26 40 -34 43 -23 9 -50 -17 -43 -42
3 -14 1 -21 -8 -21 -8 0 -15 -9 -17 -21 l-3 -21 -24 21 c-13 12 -19 21 -12 21
26 0 5 35 -24 41 l-30 6 27 13 c31 15 27 36 -8 44 -28 7 -23 26 7 26 26 0 25
37 -1 45 -24 8 -17 25 10 25 27 0 32 26 7 43 -25 17 -18 32 10 23 25 -8 55
-78 48 -108 -12 -49 53 -66 67 -18 3 14 12 44 19 68 9 32 9 48 1 67 -24 52 -6
60 43 21z m-1479 -53 c-3 -16 -1 -23 7 -20 7 3 11 9 10 15 -1 5 8 8 20 5 13
-3 17 -1 10 4 -6 4 16 8 52 8 46 0 68 5 82 18 27 24 34 21 23 -7 -5 -13 -6
-27 -2 -31 4 -4 7 -10 7 -13 0 -4 9 -20 19 -35 27 -41 15 -42 -17 -2 -17 21
-23 35 -15 35 8 1 5 6 -6 15 -11 8 -27 15 -35 14 -9 0 -6 -4 8 -10 35 -14 20
-21 -18 -8 -94 33 -191 -39 -191 -142 0 -48 30 -108 60 -117 8 -3 0 11 -18 32
-27 31 -32 45 -32 87 0 44 4 55 39 92 37 40 43 42 95 42 32 0 60 -5 68 -13 11
-11 8 -12 -17 -5 -92 25 -175 -28 -175 -112 0 -66 61 -132 113 -122 18 4 17 5
-5 6 -15 0 -42 14 -60 30 -29 26 -33 36 -33 79 0 36 6 56 20 72 41 46 113 59
155 27 75 -57 62 -165 -24 -203 -21 -9 -25 -13 -13 -14 11 0 32 9 48 21 16 11
29 15 29 10 0 -6 -20 -21 -45 -33 -40 -19 -50 -21 -88 -11 -49 13 -63 9 -21
-8 36 -13 96 -6 130 16 31 20 64 73 63 100 0 13 -4 8 -10 -12 -5 -18 -15 -35
-21 -39 -8 -5 -9 -2 -3 12 20 46 17 98 -9 137 -14 20 -21 37 -16 37 14 0 50
-60 51 -85 1 -11 5 -5 9 14 5 19 6 41 2 49 -3 10 -1 13 6 8 8 -5 10 -2 6 8 -4
12 0 16 16 16 22 0 22 -1 7 -18 -25 -28 -20 -39 14 -34 31 5 31 4 13 -15 -16
-16 -20 -17 -26 -3 -3 8 -6 -5 -5 -30 1 -25 -2 -61 -6 -80 -5 -19 -4 -30 0
-23 6 9 12 6 22 -9 12 -19 11 -20 -6 -14 -33 13 -38 11 -35 -16 2 -23 -1 -26
-19 -23 -12 3 -26 2 -30 -1 -11 -7 26 -42 48 -46 14 -2 17 3 15 25 -3 28 6 35
25 16 16 -16 32 -3 26 21 -5 21 11 28 22 10 10 -15 35 -12 35 5 0 8 7 15 15
15 8 0 15 -7 15 -15 0 -8 7 -15 15 -15 8 0 15 7 15 15 0 8 7 15 15 15 8 0 15
-9 15 -20 0 -11 7 -20 15 -20 8 0 15 5 15 11 0 6 6 9 13 6 6 -2 11 -13 9 -25
-3 -22 13 -38 23 -22 14 22 26 9 20 -21 -7 -29 -5 -31 14 -26 28 7 38 -11 15
-28 -18 -13 -13 -30 8 -30 6 0 13 -6 16 -12 2 -7 -3 -13 -12 -13 -20 0 -21
-29 -1 -36 21 -9 19 -24 -4 -24 -25 0 -37 -18 -22 -33 16 -16 13 -30 -5 -23
-9 4 -23 1 -30 -5 -19 -16 -18 7 1 41 8 14 14 34 14 45 -1 14 -3 12 -9 -8 -5
-16 -14 -35 -21 -43 -11 -13 -15 -11 -30 18 -10 18 -18 44 -19 58 0 14 -7 36
-16 48 -23 33 -92 28 -113 -9 -21 -39 -8 -75 37 -98 21 -11 45 -28 53 -37 11
-14 4 -12 -26 6 -22 13 -48 29 -57 34 -28 17 -38 58 -23 93 17 39 47 56 85 48
25 -6 32 -3 41 19 15 31 19 32 47 6 24 -23 26 -29 13 -49 -8 -12 -13 -12 -36
3 -15 10 -29 16 -31 13 -2 -2 23 -20 56 -40 l60 -35 -6 26 c-18 76 -69 123
-141 129 -91 8 -163 -57 -163 -149 0 -99 55 -153 159 -153 49 -1 67 -5 75 -17
13 -21 0 -36 -16 -20 -17 17 -38 15 -38 -3 0 -8 -7 -15 -15 -15 -8 0 -15 7
-15 15 0 8 -5 15 -10 15 -6 0 -13 -7 -16 -15 -9 -22 -34 -18 -34 5 0 22 -10
26 -27 9 -16 -16 -32 -3 -26 20 5 21 -12 37 -22 21 -14 -22 -26 -9 -20 21 7
29 5 31 -14 26 -22 -5 -30 16 -11 28 16 10 12 23 -10 30 -11 3 -20 10 -20 15
0 4 9 10 20 13 11 3 20 10 20 15 0 6 -9 14 -20 17 -26 8 -26 25 -1 25 23 0 40
22 23 28 -7 2 -12 9 -12 15 0 6 -7 19 -17 29 -16 18 -34 24 -32 11 1 -5 1 -19
0 -33 l-2 -25 -16 23 c-12 17 -25 22 -62 22 -28 0 -41 -4 -33 -9 10 -6 9 -11
-4 -22 -16 -13 -17 -11 -12 14 6 31 -7 35 -34 10 -17 -15 -18 -15 -18 5 0 16
4 20 18 15 9 -3 -1 10 -23 30 -22 19 -41 31 -43 26 -2 -5 -13 -9 -24 -9 -17 0
-18 3 -8 15 7 8 16 13 20 10 4 -3 7 33 6 79 0 46 2 82 7 79 9 -5 9 0 1 22 -5
13 -8 14 -15 3 -7 -10 -12 -9 -26 5 -17 18 -17 18 14 14 40 -6 75 27 63 58
-13 31 -11 39 5 25 9 -7 13 -23 11 -37z m-1094 -75 c-1 -10 9 -25 23 -34 30
-20 24 -34 -16 -34 -37 0 -40 -32 -4 -48 33 -15 32 -28 -5 -35 -21 -5 -30 -12
-30 -25 0 -14 9 -21 30 -25 39 -8 38 -22 -1 -36 -42 -14 -36 -45 9 -49 39 -4
41 -14 7 -32 -35 -19 -28 -44 13 -48 37 -4 40 -12 13 -36 -30 -27 -16 -48 25
-40 39 7 41 3 18 -32 -23 -34 -6 -53 32 -35 34 15 40 9 24 -29 -17 -41 -1 -59
31 -36 34 23 41 20 34 -18 -9 -43 9 -55 39 -27 31 30 39 26 33 -13 -7 -46 19
-58 46 -21 23 31 37 24 37 -17 0 -27 3 -30 25 -26 29 6 31 1 9 -23 -9 -10 -11
-20 -6 -23 5 -3 15 1 22 9 20 24 29 18 21 -12 -4 -16 -6 -34 -4 -41 6 -17 -76
16 -192 76 -90 48 -223 161 -211 181 8 13 -4 41 -18 41 -12 0 -46 75 -46 103
0 10 -8 29 -17 43 -24 38 -32 233 -10 246 13 7 14 13 5 33 -14 31 -6 40 22 25
29 -16 46 6 24 31 -19 21 -18 31 4 27 9 -2 16 -11 14 -20z m4160 -106 c23 -8
35 -9 45 -1 10 9 13 7 13 -8 0 -26 33 -55 53 -48 20 8 33 -13 17 -28 -10 -10
-11 -8 -6 8 5 15 4 17 -4 9 -16 -16 14 -74 38 -74 16 -1 16 -1 0 -14 -20 -15
-14 -54 11 -73 14 -11 13 -12 -6 -13 -26 0 -42 -38 -22 -52 11 -8 10 -9 -3 -4
-21 6 -23 -5 -6 -22 9 -9 7 -12 -8 -12 -29 0 -56 -32 -47 -56 6 -16 5 -17 -9
-6 -14 11 -22 11 -47 -3 -17 -8 -31 -23 -31 -33 -1 -16 -1 -16 -14 1 -18 24
-52 21 -70 -5 -16 -22 -16 -22 -16 -1 0 25 -57 50 -74 33 -15 -15 -26 -12 -19
5 8 24 -26 57 -51 49 -18 -6 -19 -5 -8 9 11 13 11 21 -3 46 -8 17 -23 31 -31
31 -14 0 -15 2 -3 17 17 20 13 53 -9 70 -15 11 -15 12 4 13 15 0 24 10 31 35
7 21 7 37 2 41 -5 3 -9 10 -9 16 0 6 8 4 19 -6 16 -15 19 -15 31 -1 7 8 9 15
5 15 -4 0 -2 7 5 15 7 8 16 13 20 10 5 -3 15 3 22 13 7 10 21 21 31 25 9 3 17
14 17 24 0 13 3 14 12 5 18 -18 65 -15 74 6 7 15 8 15 11 -3 2 -12 17 -26 35
-33z m-4251 -93 c4 -63 10 -121 13 -131 12 -26 -29 -33 -53 -9 -15 15 -19 28
-15 49 7 36 -21 53 -41 25 -11 -15 -18 -15 -54 -5 -36 11 -41 16 -41 43 0 17
6 32 15 35 8 4 15 17 15 30 0 27 12 31 30 9 21 -26 40 -18 40 17 0 30 1 31 20
13 27 -25 52 -13 44 21 -5 20 -3 25 7 22 10 -3 16 -34 20 -119z m2559 -5 c0
-23 37 -16 45 9 l7 22 7 -25 c9 -32 37 -38 46 -10 3 11 11 18 16 15 5 -4 9 0
9 7 0 8 5 7 16 -4 18 -18 10 -42 -12 -34 -8 3 -14 1 -14 -3 0 -20 30 -19 45 2
15 21 19 18 16 -15 -2 -21 18 -33 32 -19 18 18 28 13 21 -13 -7 -28 11 -43 32
-25 19 16 31 4 15 -15 -20 -23 -3 -38 32 -30 32 6 32 6 14 -14 -23 -25 -13
-46 18 -38 16 4 25 1 29 -10 9 -23 7 -34 -5 -34 -6 0 -8 7 -5 16 4 10 1 14 -6
12 -7 -3 -13 -13 -13 -24 0 -14 6 -18 23 -16 25 4 30 -13 7 -22 -19 -7 -20
-36 -1 -36 24 0 30 -21 7 -27 -27 -7 -27 -33 -1 -40 27 -7 26 -23 -1 -23 -18
0 -21 -4 -16 -27 5 -26 3 -28 -26 -28 l-32 0 3 76 c4 82 -2 94 -39 81 -20 -8
-23 -15 -21 -53 1 -24 -2 -51 -8 -59 -7 -11 -10 -1 -10 38 0 55 -3 58 -45 42
-23 -9 -26 -8 -23 7 2 11 14 19 31 21 34 4 34 10 -3 60 -43 60 -110 92 -110
53 0 -27 -10 -51 -22 -51 -7 0 -8 15 -4 39 4 28 2 40 -7 44 -18 7 -86 -6 -115
-22 -35 -19 -50 -7 -18 14 18 12 53 21 93 23 58 4 65 7 74 30 7 18 6 28 -3 34
-23 16 -127 1 -180 -25 -59 -29 -73 -27 -87 15 -13 38 -7 47 17 25 22 -20 32
-13 32 21 0 23 1 24 18 10 23 -21 42 -12 43 20 l0 27 11 -23 c14 -28 42 -25
46 6 4 24 22 21 22 -4z m1145 -90 c24 2 35 -1 35 -10 0 -17 14 -18 43 -3 19 9
18 7 -3 -10 -28 -22 -21 -36 20 -44 21 -4 20 -4 -7 -6 -22 -1 -33 -6 -33 -16
0 -8 4 -15 8 -15 5 0 17 -7 28 -15 17 -14 16 -14 -13 -1 -36 18 -50 8 -33 -25
7 -11 9 -23 6 -27 -3 -3 -6 -1 -6 5 0 6 -9 9 -20 6 -14 -4 -20 0 -20 12 0 15
2 16 17 4 14 -12 16 -12 11 1 -8 26 -32 16 -39 -15 l-7 -30 -1 33 c-1 21 -6
32 -16 32 -8 0 -15 -4 -15 -8 0 -5 -7 -17 -15 -28 -14 -17 -14 -16 -1 13 18
36 8 50 -23 33 -11 -5 -23 -10 -28 -10 -4 1 3 7 16 14 18 10 25 22 25 44 0 20
-9 38 -25 53 l-24 21 29 -17 c34 -20 54 -8 37 23 -6 11 -11 24 -11 29 1 4 7
-4 15 -19 12 -22 21 -26 50 -24z m-2611 -89 c43 -98 138 -252 203 -329 88
-104 85 -99 68 -122 -15 -19 -15 -19 -30 0 -12 16 -19 18 -39 8 -17 -8 -23
-17 -19 -30 5 -20 -22 -39 -32 -22 -9 15 -19 12 -33 -11 -10 -15 -10 -24 -2
-34 12 -15 3 -46 -14 -44 -6 1 -24 -3 -39 -9 -37 -16 -39 -15 -32 7 4 14 0 23
-15 31 -23 13 -27 30 -5 30 23 0 18 28 -7 41 -19 10 -19 12 -5 21 23 13 21 38
-3 38 -22 0 -26 10 -9 27 15 15 1 36 -18 29 -22 -9 -36 3 -23 19 17 21 2 36
-27 29 -22 -6 -24 -4 -19 13 7 22 -18 41 -29 23 -10 -17 -38 -12 -31 5 8 22
-24 32 -36 11 -5 -9 -13 -14 -19 -11 -14 9 -11 35 5 35 7 0 17 15 21 33 l7 32
11 -32 c15 -48 41 -44 32 5 l-7 37 26 -24 c18 -17 30 -21 36 -15 7 7 4 16 -10
29 -30 27 -25 37 15 29 28 -5 35 -3 35 10 0 18 -12 20 -58 7 -31 -9 -32 -9
-32 20 0 18 4 28 10 24 6 -3 10 -13 10 -21 0 -8 5 -14 11 -14 5 0 7 5 4 10 -4
6 7 13 24 16 37 8 40 21 7 33 -13 5 -26 17 -30 26 -3 9 -2 13 3 10 5 -3 12 -1
16 5 4 6 10 8 15 5 5 -3 13 2 18 12 8 13 4 21 -14 36 -32 24 -30 37 4 37 24 0
31 -7 56 -65z m879 35 c8 0 18 7 21 16 5 14 9 13 24 -6 17 -21 19 -21 34 -6
21 21 25 20 31 -4 5 -20 37 -29 37 -10 0 19 18 10 23 -11 5 -17 11 -20 31 -15
21 5 26 3 26 -13 0 -28 21 -37 36 -16 8 10 20 15 29 11 21 -8 31 20 15 39 -17
21 -6 29 19 15 14 -7 21 -7 21 0 0 15 30 12 36 -4 3 -8 -6 -36 -20 -63 -30
-57 -46 -133 -39 -180 6 -35 7 -36 41 -27 19 6 22 13 22 56 0 49 34 148 51
148 12 0 12 -2 -11 -51 -11 -24 -20 -63 -20 -87 0 -43 0 -44 30 -37 23 5 30 3
30 -9 0 -10 -9 -16 -25 -16 -14 0 -25 -3 -25 -6 0 -14 26 -52 58 -86 24 -25
31 -38 21 -38 -19 0 -62 45 -83 88 -17 32 -38 40 -66 22 -13 -8 -12 -16 9 -55
23 -43 84 -108 110 -116 8 -3 10 -14 6 -32 -6 -22 -10 -25 -21 -16 -11 9 -19
8 -36 -7 -21 -19 -21 -19 -16 8 5 29 -15 58 -27 38 -11 -18 -27 -11 -20 10 9
29 -2 42 -25 30 -23 -12 -35 3 -15 20 21 18 7 41 -21 34 -26 -7 -34 10 -9 20
25 9 18 36 -10 36 -27 0 -34 15 -10 24 22 8 18 36 -4 36 -30 0 -35 19 -6 26
32 8 32 32 0 40 -28 7 -24 24 6 24 34 0 20 27 -34 64 -29 20 -55 36 -58 36 -4
0 -6 -11 -6 -25 0 -14 -7 -34 -15 -46 -13 -20 -10 -25 44 -81 48 -49 57 -63
52 -83 -5 -22 -3 -25 21 -25 27 0 27 -1 12 -18 -20 -21 -22 -42 -6 -42 16 0 4
-81 -20 -136 -16 -36 -17 -44 -5 -44 21 0 54 -37 54 -60 0 -11 -4 -20 -10 -20
-5 0 -10 8 -10 19 0 16 -7 19 -50 18 -34 -1 -50 -5 -50 -14 0 -9 -6 -10 -24
-3 -13 5 -27 6 -30 3 -3 -4 -6 -1 -6 5 0 6 19 31 43 54 39 40 77 121 63 135
-7 8 -94 -26 -102 -39 -4 -6 -19 22 -34 63 -15 41 -30 82 -35 92 -6 15 -1 17
51 17 87 0 98 13 50 55 -43 38 -89 55 -152 55 -47 0 -79 24 -53 41 8 5 30 9
50 9 33 0 35 2 31 29 -2 16 1 38 7 50 11 20 10 21 -47 21 -33 0 -78 -7 -101
-15 -54 -19 -73 -12 -57 20 8 17 14 21 23 13 15 -12 33 -2 33 18 0 16 16 19
25 4 11 -17 33 -11 41 12 6 20 8 20 19 5 7 -9 19 -17 28 -17z m-328 -49 c31
-94 441 -661 541 -749 59 -52 68 -81 32 -106 -16 -11 -18 -16 -7 -16 8 0 20 5
27 12 7 7 12 8 12 2 0 -6 -12 -16 -27 -23 -20 -9 -33 -9 -55 0 -15 6 -28 16
-28 22 0 7 4 7 12 -1 7 -7 19 -12 27 -12 11 0 10 4 -5 14 -11 8 -26 32 -32 54
-7 22 -65 116 -129 208 -125 182 -390 534 -402 534 -4 0 -22 13 -40 28 -29 24
-33 33 -27 56 7 30 42 48 68 35 9 -5 24 -31 33 -58z m1804 29 c9 0 22 5 29 12
9 9 15 8 26 -7 12 -16 16 -17 29 -6 14 11 18 8 30 -21 8 -19 26 -46 40 -61 16
-18 23 -35 20 -48 -3 -12 0 -25 7 -29 11 -7 10 -12 -4 -25 -12 -13 -14 -21 -6
-30 17 -20 -8 -30 -28 -12 -9 8 -31 22 -48 30 -26 13 -34 14 -49 3 -14 -10
-17 -22 -13 -58 4 -37 2 -47 -14 -57 -15 -9 -22 -9 -34 4 -12 12 -19 13 -30 4
-11 -9 -16 -6 -24 15 -6 17 -17 26 -31 26 -15 0 -19 4 -15 16 4 9 1 23 -5 30
-6 7 -8 17 -5 22 3 5 -1 20 -8 34 -11 20 -11 28 0 43 10 14 11 22 3 32 -10 11
-6 18 4 11 9 -7 37 27 37 44 0 15 5 18 19 13 14 -4 23 1 32 17 8 14 14 18 17
10 2 -6 11 -12 21 -12z m-289 -45 c0 -36 28 -44 51 -14 21 28 36 20 19 -11
-10 -18 -9 -25 4 -38 12 -13 18 -13 31 -2 11 9 19 10 26 3 8 -8 5 -15 -11 -23
-30 -16 -24 -56 8 -52 12 2 22 -2 22 -7 0 -6 -11 -11 -25 -11 -19 0 -25 -5
-25 -21 0 -12 8 -28 17 -35 24 -17 10 -29 -16 -14 -17 9 -25 8 -37 -5 -15 -15
-15 -17 0 -34 11 -12 13 -21 7 -25 -5 -4 -15 3 -21 14 -14 27 -42 22 -50 -8
-7 -30 -26 -28 -22 3 4 29 -25 38 -51 17 -21 -19 -35 -8 -17 13 11 13 11 19
-2 31 -14 14 -18 14 -42 -1 -23 -15 -26 -15 -26 -2 0 9 9 19 20 22 21 7 25 22
11 44 -5 8 -16 11 -30 6 -16 -5 -21 -2 -21 10 0 13 6 16 25 12 19 -3 29 1 36
16 11 20 -1 37 -28 37 -7 0 -13 4 -13 8 0 18 13 21 33 7 18 -13 23 -13 39 2
17 15 17 17 2 35 -12 13 -13 18 -4 18 7 0 18 -7 24 -16 16 -21 46 -7 46 22 0
13 5 24 10 24 6 0 10 -11 10 -25z m815 -25 c-9 -28 3 -44 21 -29 21 17 47 -8
39 -38 -6 -24 12 -32 31 -13 11 11 44 4 44 -10 0 -12 -119 -62 -195 -81 -47
-13 -106 -19 -179 -19 -96 0 -107 2 -102 16 4 9 1 23 -5 30 -9 11 -7 15 5 20
17 7 22 44 6 44 -15 0 -12 19 4 36 19 18 36 18 36 -1 0 -18 19 -20 25 -2 3 7
29 13 69 14 49 2 147 26 204 52 2 0 1 -8 -3 -19z m-1391 -1 c10 9 16 9 21 1 4
-6 13 -9 21 -6 7 3 18 -4 24 -14 6 -11 17 -20 25 -20 9 0 12 -6 9 -15 -4 -8 1
-17 10 -21 13 -5 14 -9 5 -20 -9 -11 -8 -18 2 -30 10 -12 10 -17 1 -23 -7 -4
-10 -15 -6 -24 4 -12 1 -17 -11 -17 -9 0 -19 -9 -22 -20 -3 -11 -9 -17 -15
-14 -5 3 -17 2 -26 -2 -9 -4 -38 -8 -64 -9 -37 -1 -48 3 -51 17 -4 12 -11 16
-22 12 -14 -6 -16 -3 -10 14 4 16 2 22 -8 22 -15 0 -18 55 -4 78 5 6 5 17 1
23 -4 7 -1 10 7 7 9 -3 15 -22 17 -51 2 -26 7 -47 12 -47 4 0 7 8 5 18 -1 9 0
11 2 5 3 -7 9 -13 15 -13 6 0 5 -7 -3 -16 -11 -14 -10 -18 6 -30 26 -19 55
-18 56 4 1 16 2 16 6 0 9 -34 48 -18 70 29 16 35 16 36 -8 54 -20 16 -22 20
-9 29 13 9 12 13 -9 30 -26 23 -51 26 -52 8 0 -10 -2 -10 -6 0 -2 6 -11 12
-18 12 -17 0 -28 17 -20 30 5 8 11 7 21 -1 11 -9 17 -9 28 0z m-709 -50 c124
-117 194 -263 203 -424 5 -82 4 -89 -11 -76 -27 21 -143 183 -162 224 -10 22
-39 62 -64 90 -64 71 -104 127 -97 134 3 3 1 12 -5 20 -9 10 -6 13 14 13 30 0
42 24 20 42 -14 11 -13 13 8 19 13 4 28 7 32 8 5 1 33 -22 62 -50z m-445 -1
c0 -4 -5 -10 -10 -13 -15 -9 9 -37 26 -31 7 3 14 -8 19 -30 3 -20 8 -41 11
-48 3 -9 -9 -17 -36 -24 -40 -10 -41 -10 -55 25 -8 20 -15 40 -15 45 0 5 -12
8 -27 6 -21 -2 -29 -9 -31 -28 -5 -50 -13 -70 -25 -70 -10 0 -117 156 -117
171 0 2 59 4 130 4 72 0 130 -3 130 -7z m-1301 -84 c14 -20 52 -55 86 -80 61
-43 278 -154 303 -154 6 0 12 -4 12 -10 0 -16 -26 -12 -41 6 -12 14 -14 14
-26 -2 -18 -24 -16 -32 7 -39 11 -3 20 -13 20 -22 0 -12 -7 -14 -29 -10 -21 4
-31 2 -35 -9 -11 -28 -6 -34 24 -34 43 0 38 -24 -9 -40 -38 -12 -42 -11 -142
39 -103 52 -208 121 -243 159 -17 20 -17 24 -3 59 11 29 21 39 41 41 35 4 35
39 1 52 -19 7 -25 17 -25 38 0 54 25 56 59 6z m1521 2 c0 -2 -7 -21 -16 -42
-18 -44 -35 -149 -27 -169 4 -12 9 -12 29 1 14 10 34 14 48 10 22 -5 24 -2 29
44 3 27 11 59 18 72 11 20 13 20 24 4 9 -11 11 -38 7 -81 -6 -77 13 -137 57
-179 34 -33 41 -26 50 48 l7 51 28 -42 c26 -39 28 -48 22 -95 -11 -85 -16 -98
-38 -98 -17 0 -20 -5 -14 -30 6 -34 0 -37 -32 -14 -25 17 -23 44 5 75 12 15
10 19 -21 38 -19 12 -48 41 -63 65 l-29 43 -23 -18 c-13 -11 -34 -19 -47 -19
-13 0 -24 -3 -24 -6 0 -11 24 -50 53 -88 26 -32 27 -37 9 -27 -11 6 -24 16
-27 22 -4 6 -17 14 -28 18 -14 5 -22 17 -22 32 0 18 -5 24 -22 23 -25 -1 -29
6 -12 23 17 17 3 43 -23 43 l-22 0 22 16 c29 20 28 32 -5 45 -28 11 -28 11 -5
20 12 4 22 15 22 24 0 9 -10 20 -22 25 l-23 9 23 7 c26 8 29 39 5 53 -16 9
-16 10 -2 11 9 0 22 7 29 15 10 13 9 19 -6 38 -15 18 -16 19 -2 8 21 -16 48
-8 48 14 0 8 5 15 10 15 6 0 10 -2 10 -4z m1925 -26 c19 -21 17 -36 -9 -107
-17 -45 -57 -324 -55 -377 2 -30 2 -30 6 -3 3 21 10 27 29 27 31 0 64 -33 64
-65 0 -34 -33 -65 -70 -65 -28 0 -30 3 -30 37 0 80 -9 19 -25 -167 -11 -117
-15 -226 -11 -274 7 -85 0 -106 -39 -106 -48 0 -53 30 -21 116 18 49 58 357
82 629 15 174 14 276 -1 318 -7 17 27 57 48 57 8 0 22 -9 32 -20z m-769 -47
c30 -13 54 -26 54 -28 0 -3 -7 -2 -15 1 -10 4 -15 0 -15 -11 0 -9 -4 -14 -8
-11 -9 6 -42 -29 -42 -44 0 -6 -5 -10 -11 -10 -6 0 -9 -7 -5 -15 4 -10 -1 -15
-15 -15 -11 0 -18 -4 -14 -9 3 -5 -7 -11 -22 -13 -19 -2 -28 -8 -27 -20 1 -10
-4 -18 -11 -18 -7 0 -15 -5 -17 -12 -2 -6 -20 -11 -39 -11 -18 1 -29 -1 -24
-3 6 -2 9 -20 7 -39 l-4 -35 -19 21 c-21 25 -23 35 -9 44 6 4 7 -1 3 -12 -4
-14 -3 -15 6 -7 9 9 8 20 -6 53 -15 34 -23 41 -48 43 l-30 1 30 4 c25 3 34 12
48 44 18 41 22 63 8 41 -7 -11 -9 -11 -14 1 -4 10 1 14 16 13 20 -1 38 -26 18
-26 -6 0 -11 -5 -11 -11 0 -23 25 -1 31 27 l7 29 1 -27 c2 -39 16 -42 41 -11
l22 28 -17 -29 c-23 -38 -7 -54 31 -31 l29 17 -28 -22 c-28 -23 -28 -40 1 -40
14 0 14 2 3 9 -11 7 -10 12 8 22 26 17 29 44 4 34 -10 -4 -24 -10 -32 -13 -10
-4 -13 -1 -8 11 4 9 10 24 13 32 4 9 1 15 -8 15 -7 0 -14 9 -15 20 -1 12 4 20
13 20 8 0 17 7 20 15 7 18 20 15 100 -22z m-1922 -33 c8 0 20 8 25 18 9 15 10
15 11 -4 0 -22 35 -40 46 -23 10 16 22 9 17 -10 -6 -24 14 -36 33 -20 14 11
16 10 14 -6 -4 -39 0 -47 20 -42 16 4 18 1 13 -24 -5 -25 -3 -29 17 -29 22 0
22 -1 6 -19 -16 -18 -16 -20 5 -40 19 -17 20 -21 6 -21 -10 0 -17 -8 -17 -20
0 -11 5 -20 10 -20 6 0 10 -4 10 -10 0 -5 -7 -10 -15 -10 -22 0 -30 -27 -14
-47 12 -15 12 -16 -8 -11 -24 6 -36 -12 -26 -39 5 -13 2 -15 -12 -10 -22 9
-46 -9 -38 -29 3 -8 1 -14 -5 -14 -6 0 -12 5 -14 11 -6 18 -38 -2 -38 -25 -1
-20 -2 -20 -14 -3 -18 23 -35 21 -45 -5 l-8 -23 -7 23 c-8 25 -34 29 -42 7 -9
-22 -24 -18 -24 5 0 13 -7 20 -20 20 -11 0 -20 -5 -20 -11 0 -5 4 -8 9 -4 6 3
5 -10 -1 -31 -24 -90 25 -194 113 -238 88 -44 176 -30 245 40 50 49 68 98 62
170 -4 52 -21 84 -82 159 l-25 30 23 11 c21 10 23 9 18 -9 -4 -18 -2 -19 23
-13 24 6 27 5 16 -7 -15 -18 1 -32 26 -23 12 5 13 3 5 -7 -16 -19 4 -91 23
-83 9 3 12 0 8 -11 -3 -8 0 -19 8 -24 12 -8 12 -11 -1 -20 -13 -9 -13 -11 2
-21 15 -11 15 -13 0 -24 -16 -12 -15 -14 3 -28 20 -15 20 -15 -2 -16 -25 0
-30 -14 -11 -26 7 -5 3 -10 -12 -16 -18 -7 -21 -11 -12 -20 18 -18 14 -27 -10
-20 -18 4 -20 2 -15 -17 4 -16 1 -21 -11 -19 -13 2 -16 -3 -14 -21 2 -20 0
-22 -12 -11 -19 15 -37 4 -29 -18 6 -15 5 -15 -10 -4 -19 16 -41 6 -33 -14 3
-8 1 -14 -4 -14 -6 0 -10 5 -10 10 0 18 -30 11 -30 -7 -1 -16 -2 -16 -16 2
-15 20 -15 20 -30 1 -12 -17 -14 -18 -14 -3 0 9 -7 17 -15 17 -8 0 -15 -4 -15
-10 0 -5 -4 -10 -10 -10 -5 0 -10 7 -10 15 0 18 -16 20 -26 3 -5 -7 -10 -4
-16 11 -7 19 -11 21 -23 11 -13 -10 -15 -9 -15 9 0 18 -4 21 -21 16 -18 -6
-20 -4 -14 15 6 20 4 22 -14 17 -18 -4 -20 -2 -15 20 6 23 5 25 -17 18 -21 -7
-22 -6 -11 8 16 19 8 37 -16 37 -13 0 -13 2 4 15 19 14 18 15 -5 21 -23 7 -23
8 -5 21 19 14 19 15 0 29 -17 12 -18 14 -3 14 9 0 17 7 17 15 0 8 -4 15 -10
15 -5 0 -10 5 -10 10 0 6 11 10 24 10 20 0 23 4 19 23 -9 35 -24 49 -38 37 -9
-7 -15 -7 -19 -1 -4 5 -2 12 3 16 6 3 8 13 5 23 -5 14 -3 14 10 -3 15 -18 17
-18 34 -2 10 11 13 20 7 25 -5 4 -11 14 -13 22 -2 8 0 12 3 8 13 -13 45 12 45
34 l0 21 23 -21 c44 -41 127 -16 127 38 0 27 -31 26 -48 -1 -7 -11 -21 -19
-30 -17 -9 1 -23 -1 -31 -6 -8 -5 -16 -4 -21 5 -10 16 -3 32 11 24 5 -4 9 -1
9 4 0 6 -7 11 -15 11 -21 0 -19 16 5 40 29 29 74 26 99 -6 12 -15 21 -23 21
-18 0 20 -46 54 -72 54 -38 0 -78 -40 -78 -78 0 -25 -4 -29 -25 -29 -19 0 -25
4 -23 16 2 9 8 16 15 16 22 0 25 14 12 50 -16 43 -66 76 -80 53 -5 -7 -9 -17
-9 -23 -1 -12 -18 15 -19 30 -1 6 2 10 7 10 19 1 32 18 26 37 -5 17 -3 19 16
13 17 -5 23 -2 27 14 4 16 11 20 25 15 14 -4 21 0 25 15 6 22 18 27 28 11 11
-18 37 -11 43 12 l5 22 8 -22 c5 -12 15 -22 23 -22z m2056 4 c14 0 28 5 32 10
5 7 8 6 8 -3 0 -7 6 -11 15 -7 8 3 15 1 15 -4 0 -6 7 -10 15 -10 8 0 15 -5 15
-11 0 -6 7 -8 16 -5 12 4 15 2 10 -9 -3 -9 0 -15 9 -15 8 0 15 -7 15 -15 0 -8
5 -15 10 -15 6 0 9 -6 8 -12 -2 -7 2 -12 8 -11 6 1 9 -12 8 -33 -2 -21 1 -34
9 -34 7 0 6 -4 -3 -10 -13 -9 -13 -11 0 -20 12 -7 12 -10 1 -10 -7 0 -11 -6
-7 -15 3 -8 0 -15 -5 -15 -6 0 -9 -9 -6 -19 3 -15 1 -18 -11 -14 -11 5 -14 2
-9 -10 3 -9 2 -17 -3 -17 -15 0 -50 -33 -44 -42 3 -4 -2 -5 -10 -2 -9 3 -16 1
-16 -5 0 -6 -7 -8 -15 -5 -8 4 -15 2 -15 -2 0 -5 -18 -9 -40 -9 -22 0 -40 4
-40 9 0 4 -7 6 -15 2 -8 -3 -15 -1 -15 5 0 6 -6 9 -14 6 -8 -3 -17 1 -20 9 -3
9 -10 12 -16 9 -5 -3 -10 0 -10 8 0 9 -9 13 -25 12 -14 -2 -25 1 -25 7 0 6 7
8 15 4 8 -3 15 -1 15 4 0 6 -6 10 -14 10 -8 0 -18 5 -22 12 -4 7 -3 8 4 4 7
-4 12 -2 12 3 0 6 -2 11 -4 11 -2 0 -12 3 -21 7 -14 5 -16 2 -11 -15 4 -11 2
-23 -4 -27 -6 -3 -10 3 -10 14 0 12 -7 21 -15 21 -8 0 -15 -4 -15 -10 0 -5 -8
-10 -17 -11 -12 0 -13 -2 -5 -6 7 -3 19 1 27 7 12 10 15 9 15 -9 0 -24 10 -27
28 -9 9 9 12 7 12 -10 0 -12 6 -22 14 -22 8 0 17 -7 20 -16 4 -11 12 -13 28
-8 20 6 21 5 10 -9 -16 -19 -8 -39 13 -31 10 4 12 0 8 -15 -4 -17 -1 -21 18
-21 22 -1 23 -2 7 -14 -24 -17 -23 -25 5 -36 17 -7 18 -9 5 -9 -22 -1 -24 -31
-3 -31 8 0 15 -4 15 -10 0 -5 -7 -10 -15 -10 -20 0 -19 -17 3 -29 16 -10 16
-10 0 -11 -21 0 -23 -20 -5 -39 10 -11 9 -13 -5 -8 -23 8 -33 -10 -17 -29 11
-13 10 -15 -7 -12 -14 2 -18 -2 -17 -18 2 -15 -3 -21 -15 -20 -10 0 -16 -6
-16 -16 1 -12 -5 -17 -20 -15 -16 1 -20 -3 -18 -17 3 -17 2 -18 -13 -6 -14 12
-17 10 -22 -9 -4 -18 -8 -19 -20 -9 -12 10 -18 9 -29 -7 -8 -10 -14 -13 -14
-7 0 19 -30 14 -30 -5 -1 -16 -2 -16 -16 2 -15 20 -15 20 -30 1 -12 -17 -14
-17 -14 -4 0 26 -20 32 -36 12 -14 -17 -15 -17 -10 -2 7 23 -11 33 -31 16 -14
-11 -16 -10 -11 9 7 25 -13 37 -32 20 -10 -9 -11 -7 -5 12 6 21 5 23 -14 18
-16 -4 -20 -1 -18 17 1 15 -3 20 -15 18 -30 -5 -20 15 9 21 22 4 36 -3 69 -33
167 -154 431 39 335 245 -65 141 -241 168 -352 54 -26 -27 -52 -49 -58 -49
-16 0 -13 26 4 40 8 7 12 17 9 22 -4 6 -15 -4 -26 -21 -22 -34 -17 -51 15 -51
16 0 18 -3 9 -12 -20 -20 -15 -48 9 -48 21 0 21 0 -1 -18 -13 -11 -20 -24 -16
-30 10 -17 26 -15 20 2 -3 8 0 17 7 21 9 6 10 1 7 -18 -3 -16 0 -31 8 -38 15
-12 10 -29 -8 -29 -5 0 -8 7 -4 15 3 10 -1 15 -13 15 -24 0 -36 -29 -16 -36 8
-4 15 -11 15 -16 0 -6 -6 -8 -14 -5 -24 9 -41 -20 -25 -40 12 -15 12 -16 -8
-11 -27 7 -46 -13 -36 -38 6 -16 4 -17 -9 -6 -21 17 -48 5 -48 -21 0 -16 -3
-18 -12 -9 -17 17 -38 15 -38 -3 0 -8 -4 -15 -10 -15 -5 0 -10 5 -10 10 0 18
-48 11 -53 -7 -4 -15 -6 -15 -12 5 -7 21 -45 32 -45 12 0 -5 7 -7 15 -4 8 4
15 1 15 -5 0 -6 -6 -11 -12 -11 -23 0 -39 16 -33 32 8 21 -23 32 -43 16 -13
-11 -15 -10 -9 6 10 25 -9 45 -36 38 -19 -5 -20 -3 -9 10 15 19 5 51 -14 44
-17 -6 -18 6 -3 21 8 8 5 17 -9 31 -16 16 -18 22 -6 26 19 7 18 26 -3 42 -16
12 -16 13 -2 14 18 0 32 37 18 46 -15 9 -10 22 9 20 12 -1 17 6 15 24 -1 21 3
25 24 24 31 -1 50 -29 33 -49 -16 -19 -4 -35 25 -35 26 0 35 -17 35 -65 0 -47
29 -79 73 -79 48 0 77 27 77 72 0 42 -32 82 -66 82 -28 0 -50 26 -46 56 3 20
-1 24 -22 24 -28 0 -46 24 -38 52 3 13 8 16 17 8 16 -13 45 -3 45 16 0 8 5 14
10 14 6 0 10 -7 10 -15 0 -20 29 -19 37 1 5 14 9 13 24 -7 14 -19 20 -22 30
-11 18 17 27 15 25 -5 -1 -13 6 -18 27 -18 21 1 26 -3 22 -16 -3 -10 -1 -20 5
-24 14 -9 52 4 45 16 -6 8 -1 10 35 13 9 1 15 11 14 23 0 17 2 20 12 12 19
-16 36 -1 28 24 -5 18 -4 20 7 10 18 -18 42 -16 35 2 -7 18 5 20 22 3 10 -10
14 -8 19 10 5 21 6 21 19 5 12 -16 15 -16 24 -3 9 13 11 13 20 0 9 -13 12 -12
25 4 8 11 15 16 15 11 0 -5 7 1 16 13 13 19 13 25 1 43 -11 15 -16 17 -20 7
-4 -9 -6 -9 -6 -1 -1 14 38 38 47 29 3 -3 -1 -6 -9 -6 -8 0 -4 -7 9 -16 21
-15 25 -15 43 2 14 13 16 20 8 31 -9 10 -8 13 1 13 7 0 10 7 6 15 -3 8 -1 15
5 15 6 0 9 7 5 15 -3 9 0 15 10 15 10 0 14 6 10 15 -3 8 0 14 7 12 7 -1 11 4
10 11 -2 6 4 12 12 12 8 0 15 4 15 10 0 5 7 7 15 4 9 -4 15 0 15 10 0 10 6 13
15 10 9 -4 15 0 15 7 0 9 3 10 8 3 4 -5 18 -10 32 -10z m560 -88 l0 -53 -43
-5 c-53 -6 -127 -51 -127 -77 0 -10 7 -24 16 -32 13 -11 19 -10 37 1 27 17 94
50 102 50 12 0 4 -41 -9 -46 -12 -5 -13 -11 -4 -30 9 -18 8 -56 -1 -147 -7
-67 -14 -123 -15 -124 -1 -2 -14 2 -27 9 -21 10 -25 19 -27 64 -3 61 10 99 43
134 l24 25 -20 25 -19 25 -40 -43 c-22 -25 -42 -59 -46 -78 -7 -36 -23 -57
-20 -26 0 9 -5 16 -11 15 -17 -4 -16 10 2 53 15 37 12 59 -11 68 -23 9 -40 -3
-57 -38 -19 -41 -12 -80 14 -73 11 3 19 -2 23 -16 4 -18 7 -19 22 -6 15 12 16
12 10 -9 -6 -16 -3 -22 9 -22 10 0 15 -7 13 -17 -2 -13 3 -17 16 -15 17 3 18
2 7 -12 -11 -13 -10 -17 10 -24 15 -6 18 -11 11 -16 -17 -10 -15 -26 4 -26 14
0 15 -2 3 -17 -11 -13 -11 -17 -1 -20 6 -3 12 -12 12 -20 0 -9 6 -13 13 -10 8
3 20 1 28 -5 11 -8 10 -8 -5 -4 -16 6 -17 4 -6 -9 21 -25 -9 -19 -31 7 -11 11
-22 18 -26 14 -4 -3 2 -13 13 -21 17 -13 17 -14 2 -15 -21 0 -23 -11 -6 -28 9
-9 7 -12 -10 -12 -25 0 -28 -10 -9 -29 10 -10 8 -12 -8 -9 -14 2 -20 -2 -19
-15 1 -11 -4 -16 -15 -15 -10 2 -16 -3 -15 -13 1 -11 -5 -15 -17 -12 -13 4
-19 0 -19 -11 0 -9 -6 -13 -14 -10 -8 3 -19 -4 -26 -16 -14 -26 -3 -41 13 -20
7 8 19 15 27 15 9 0 14 7 12 18 -3 17 -2 17 21 2 22 -14 26 -14 37 0 18 22 28
18 32 -12 3 -30 28 -38 36 -13 5 13 3 13 -13 0 -17 -14 -18 -13 -12 17 5 26 3
33 -13 38 -45 14 -7 50 40 38 14 -4 20 -14 20 -34 0 -16 -4 -29 -10 -29 -5 0
-7 -12 -4 -28 3 -16 -3 -51 -16 -85 -25 -68 -21 -104 14 -113 57 -14 91 22 75
80 -14 47 -12 119 4 114 6 -3 13 -15 15 -27 5 -29 36 -24 40 7 4 29 20 28 32
-3 12 -31 40 -23 40 11 0 30 7 30 29 2 21 -25 41 -17 41 18 0 28 8 31 25 7 19
-25 47 -10 39 22 -6 26 4 33 23 14 14 -14 45 -4 42 13 -3 29 2 35 26 30 17 -3
25 0 25 9 0 24 -15 38 -29 30 -11 -7 -10 -11 5 -20 29 -16 7 -13 -26 4 -35 18
-39 29 -7 20 17 -6 19 -5 10 5 -9 10 -18 10 -42 -1 -29 -13 -44 -32 -21 -27 6
2 20 -12 31 -29 12 -19 16 -33 10 -33 -17 0 -61 47 -61 65 0 8 -6 15 -13 15
-15 0 -37 -20 -37 -34 0 -6 5 -5 12 2 18 18 27 15 21 -7 -3 -10 2 -30 11 -43
20 -30 9 -44 -15 -22 -25 23 -48 12 -42 -20 6 -31 -13 -35 -22 -6 -10 30 -45
26 -45 -5 0 -30 -16 -33 -25 -5 -8 26 -45 27 -45 1 0 -11 -4 -23 -10 -26 -5
-3 -10 1 -10 9 0 8 -9 24 -21 35 -21 20 -22 58 -1 53 16 -3 15 35 0 41 -7 3
-3 6 9 6 12 1 29 4 38 7 9 4 15 3 13 -2 -1 -5 3 -20 10 -34 l13 -25 -17 23
c-20 27 -44 29 -44 3 0 -11 -3 -26 -6 -35 -3 -9 -1 -16 5 -16 6 0 11 9 11 19
0 26 18 37 26 17 3 -9 13 -16 21 -16 10 0 13 6 9 15 -3 8 -9 22 -12 30 -4 9
-1 15 7 15 10 1 8 5 -4 15 -11 7 -26 11 -34 8 -13 -5 -13 -3 -2 16 9 14 15 17
18 9 6 -18 34 -38 47 -34 6 2 11 -2 11 -9 0 -7 -6 -11 -14 -8 -17 6 -17 -13 0
-24 6 -4 29 -8 50 -9 29 0 36 3 32 14 -3 8 0 21 6 28 8 10 7 21 -2 44 -11 23
-21 30 -44 32 l-30 1 33 4 c37 5 42 24 10 45 l-22 14 24 24 24 24 14 -22 c21
-33 42 -28 43 11 1 26 2 27 6 7 9 -54 13 -57 40 -25 25 29 25 29 9 2 -16 -27
-14 -47 4 -47 5 0 7 6 4 14 -3 8 -1 24 5 35 9 15 8 26 -1 41 -15 23 -1 55 23
55 22 0 17 -89 -7 -116 l-19 -22 25 12 c24 11 23 11 -3 -9 -32 -26 -27 -40 16
-41 l32 -2 -34 -6 c-31 -5 -57 -31 -32 -31 6 0 11 5 11 10 0 6 18 10 40 10 22
0 40 -5 40 -11 0 -6 -10 -10 -22 -9 -13 1 -32 2 -43 1 -16 -1 -17 -3 -6 -13
10 -10 15 -10 18 -1 3 8 12 9 27 3 37 -14 51 8 24 37 l-21 23 31 0 c40 0 52
19 24 38 -30 20 -28 32 6 32 25 0 28 -3 28 -35 0 -42 29 -84 72 -106 l32 -16
-28 -39 c-102 -140 -301 -250 -577 -319 l-130 -33 -29 -83 c-33 -95 -45 -245
-28 -336 9 -52 9 -53 -16 -53 -88 0 -201 87 -222 170 -11 44 -13 46 -44 42
-44 -5 -92 21 -112 60 -21 40 -7 92 36 133 16 16 30 31 30 34 0 3 -42 6 -92 6
-117 0 -191 23 -254 78 -42 37 -74 83 -74 106 0 6 12 6 32 0 18 -5 33 -9 34
-9 0 0 15 32 34 70 19 39 40 70 47 70 7 0 13 7 13 15 0 18 12 19 28 3 9 -9 13
-6 20 12 6 16 11 19 16 12 10 -17 26 -5 26 20 0 16 3 18 14 9 17 -15 31 2 22
26 -5 11 -2 14 10 9 23 -9 37 3 23 20 -9 11 -7 14 11 14 17 0 21 4 17 20 -3
11 -1 20 4 20 5 0 9 -4 9 -10 0 -5 8 -10 18 -11 10 0 12 -3 5 -6 -19 -7 -16
-33 3 -33 13 0 14 -3 4 -15 -10 -12 -9 -16 6 -22 11 -5 19 -15 19 -23 0 -8 7
-14 17 -12 12 2 15 -3 11 -19 -5 -18 -3 -20 14 -15 16 5 22 1 26 -15 5 -19 8
-20 21 -9 13 10 16 10 16 -4 0 -12 5 -16 19 -11 12 4 21 0 26 -12 6 -17 7 -17
21 1 12 17 14 18 14 3 0 -21 16 -22 36 -3 18 19 18 26 -1 26 -8 0 -16 -8 -16
-17 -1 -17 -2 -17 -6 0 -5 19 -33 24 -33 5 0 -6 -7 -3 -15 8 -13 16 -16 17
-25 4 -8 -13 -10 -12 -10 4 0 13 -5 17 -19 13 -13 -3 -21 2 -25 16 -4 17 -8
18 -20 8 -12 -10 -14 -9 -9 8 4 15 1 21 -11 21 -9 0 -15 3 -15 8 4 22 -3 31
-18 25 -16 -6 -16 -5 -4 10 12 15 10 18 -10 26 -13 5 -18 10 -11 10 19 1 14
31 -5 32 -11 0 -13 3 -5 6 16 6 16 33 0 33 -8 0 -6 6 4 17 16 15 16 17 0 29
-16 13 -16 13 1 14 14 0 17 5 12 21 -5 14 -3 19 3 15 17 -10 25 13 10 31 -11
14 -10 15 11 8 21 -6 23 -5 18 14 -4 16 -1 21 11 19 11 -2 16 3 16 15 -2 13 3
16 17 12 13 -4 19 -2 19 8 0 11 7 13 22 9 17 -4 20 -2 15 11 -7 19 9 23 17 5
3 -9 9 -7 20 6 9 11 16 14 16 8 0 -19 30 -14 31 6 1 16 2 16 6 0 5 -20 33 -25
33 -5 0 6 5 4 11 -5 11 -20 29 -24 29 -7 0 5 -4 7 -10 4 -5 -3 -10 2 -10 12 0
10 -14 27 -30 38 -38 25 -38 39 -1 32 38 -8 45 10 17 42 l-21 24 32 -6 c38 -7
48 4 33 34 -15 27 -7 34 20 19 15 -8 26 -8 32 -2 6 6 6 17 -2 32 -15 29 -5 38
19 16 26 -24 44 -12 36 25 -8 33 9 40 25 9 15 -28 40 -14 41 24 l0 31 16 -22
c22 -32 53 -30 53 2 0 14 5 25 10 25 6 0 10 -24 10 -54z m140 24 c0 -33 19
-40 40 -15 19 23 33 18 26 -10 -6 -24 0 -29 29 -26 6 0 18 -13 27 -30 15 -26
20 -29 39 -19 19 10 20 9 15 -8 -9 -26 8 -36 34 -22 23 13 27 0 8 -30 -11 -16
-9 -22 7 -34 11 -8 21 -19 21 -25 1 -6 2 -15 3 -21 0 -5 12 -10 26 -10 27 0
34 -17 10 -26 -8 -4 -15 -15 -15 -25 0 -14 7 -19 25 -19 30 0 33 -16 5 -25
-11 -3 -20 -15 -20 -26 0 -12 7 -19 20 -19 28 0 25 -17 -5 -24 -33 -8 -32 -29
3 -47 l27 -13 -32 -4 c-24 -2 -33 -8 -33 -22 0 -10 7 -20 15 -24 26 -10 17
-29 -10 -22 -14 4 -25 2 -25 -4 0 -5 -15 -10 -32 -10 l-33 0 29 23 c18 15 25
26 18 31 -6 4 -8 26 -5 60 4 43 2 54 -11 59 -29 11 -45 -4 -61 -60 -9 -30 -18
-53 -20 -51 -2 2 -8 45 -13 96 -5 51 -12 95 -14 98 -3 3 -17 -1 -32 -7 -24
-12 -26 -16 -20 -54 6 -46 -12 -94 -48 -128 -18 -17 -18 -21 -4 -36 18 -20 20
-31 6 -31 -5 0 -10 7 -10 15 0 8 -11 17 -25 21 -13 3 -23 11 -22 16 4 21 -22
18 -34 -4 -12 -22 -12 -22 -20 -3 -6 17 -8 16 -8 -7 -1 -16 -6 -28 -12 -28 -5
0 -8 4 -4 10 3 5 6 25 7 45 1 32 4 35 30 35 36 0 78 40 78 75 0 34 -42 75 -76
75 -22 0 -25 3 -20 23 3 12 6 28 6 36 0 22 66 6 107 -25 30 -22 38 -25 59 -15
20 9 23 15 15 29 -22 41 -95 82 -146 82 -20 0 -25 5 -25 25 0 30 3 31 85 3 60
-19 68 -20 82 -5 9 8 13 23 10 32 -9 22 -84 55 -127 55 -35 0 -36 1 -32 35 4
30 6 33 23 24 16 -8 21 -5 31 16 15 34 28 32 28 -5z m-3008 -52 c-4 -36 27
-46 49 -17 11 15 18 18 24 10 4 -7 0 -20 -9 -30 -15 -16 -15 -19 3 -35 12 -11
21 -14 26 -7 3 6 -1 11 -9 11 -9 0 -16 4 -16 9 0 5 14 4 30 -2 36 -14 37 -20
6 -33 -20 -7 -22 -13 -15 -31 5 -14 17 -23 29 -23 11 0 20 -4 20 -10 0 -5 -13
-10 -29 -10 -38 0 -50 -28 -21 -50 11 -9 18 -19 14 -23 -4 -4 -16 0 -26 9 -14
14 -20 14 -33 4 -17 -15 -21 -35 -3 -24 6 4 9 3 6 -2 -3 -5 -8 -18 -13 -29 -7
-19 -8 -18 -14 5 -10 38 -54 35 -62 -5 -5 -24 -7 -27 -13 -12 -5 9 -5 24 -2
32 4 10 -2 19 -17 24 -18 7 -25 4 -35 -16 -10 -18 -17 -22 -25 -14 -7 7 -5 16
8 31 17 19 17 22 3 36 -12 13 -20 14 -36 5 -13 -7 -23 -8 -27 -1 -3 5 6 12 20
16 35 9 36 51 0 56 -14 2 -24 7 -23 13 2 5 13 8 25 7 13 -2 26 4 32 17 10 17
7 22 -15 34 -18 10 -23 16 -15 22 7 4 20 0 29 -8 15 -14 20 -14 36 -1 16 11
17 17 8 26 -14 14 -16 38 -2 38 5 0 13 -11 16 -26 9 -36 48 -30 52 9 2 16 8
26 15 24 7 -2 11 -15 9 -29z m-502 -58 c0 -3 -13 -16 -30 -28 -35 -26 -41 -62
-10 -62 23 0 27 -15 6 -23 -8 -3 -17 -1 -20 6 -2 7 -5 5 -5 -4 -1 -9 8 -28 20
-43 25 -31 59 -35 59 -6 0 22 15 27 26 9 3 -6 0 -15 -7 -20 -11 -7 -11 -9 3
-9 30 0 71 44 72 78 0 18 3 32 6 32 11 -1 95 -49 86 -50 -5 0 -3 -6 3 -14 9
-11 8 -15 -5 -20 -10 -4 -14 -13 -11 -25 3 -13 -2 -21 -15 -25 -14 -3 -19 -10
-14 -22 4 -11 2 -15 -8 -11 -17 7 -40 -16 -28 -28 4 -4 -3 -4 -16 -1 -16 5
-24 3 -28 -9 -4 -10 -10 -12 -18 -6 -7 6 -18 6 -26 1 -8 -5 -21 -5 -31 1 -12
6 -20 5 -24 -2 -5 -6 -11 -4 -20 7 -7 10 -19 15 -28 11 -10 -4 -17 1 -20 15
-4 14 -11 19 -23 14 -11 -4 -15 -2 -11 8 7 17 -16 40 -28 28 -4 -4 -4 3 -1 16
5 16 3 24 -9 28 -10 4 -12 10 -6 18 5 6 6 17 2 25 -5 7 -2 29 5 49 12 35 19
83 7 55 -5 -14 -23 -18 -23 -5 0 5 19 16 43 26 23 9 49 21 57 25 14 8 70 -24
70 -39z m1287 11 c6 -23 29 -34 54 -26 26 8 43 -3 30 -19 -14 -16 14 -57 33
-50 18 7 31 -15 17 -29 -16 -16 -14 -57 4 -63 21 -9 19 -34 -4 -34 -25 0 -38
-48 -18 -67 12 -13 15 -12 20 1 4 10 1 16 -8 16 -26 0 -13 32 18 43 21 8 23
43 2 51 -17 6 -21 46 -4 46 6 0 30 -14 54 -30 24 -17 91 -53 149 -81 l105 -52
-29 -41 c-45 -62 -73 -92 -98 -106 -22 -11 -23 -10 -17 9 4 12 2 21 -4 21 -6
0 -11 -4 -11 -10 0 -5 -4 -10 -10 -10 -5 0 -7 7 -3 16 4 12 2 15 -8 12 -8 -2
-15 -15 -17 -27 -3 -19 -8 -22 -30 -16 -26 6 -26 6 -8 -14 21 -23 15 -27 -15
-10 -19 10 -20 9 -9 -11 8 -15 8 -25 1 -34 -14 -17 -2 -29 16 -15 22 19 15 -1
-12 -33 -38 -45 -34 -89 11 -126 l36 -30 -77 -7 c-68 -6 -81 -5 -104 13 -22
16 -30 17 -44 8 -10 -8 -14 -20 -10 -34 3 -13 1 -22 -6 -22 -6 0 -11 11 -11
25 0 20 -5 25 -24 25 -17 0 -26 -7 -30 -25 -4 -14 -11 -25 -17 -25 -7 0 -9 10
-5 26 5 19 2 30 -11 39 -18 13 -33 11 -33 -5 0 -5 6 -7 14 -4 8 3 17 1 20 -5
4 -7 -6 -10 -29 -9 -39 1 -41 4 -20 28 24 27 9 52 -26 45 -36 -8 -39 10 -4 19
18 5 25 13 25 31 0 20 -5 25 -25 25 -14 0 -25 5 -25 11 0 7 11 8 29 4 23 -5
32 -2 40 13 9 16 6 23 -12 35 -12 8 -19 18 -15 23 5 4 16 0 26 -10 28 -25 55
-11 48 25 -7 36 9 39 18 3 9 -33 49 -31 54 4 2 12 8 22 14 22 6 0 8 -11 5 -28
-4 -21 -1 -31 13 -40 16 -10 22 -8 34 10 19 27 35 15 18 -13 -7 -11 -10 -29
-7 -40 5 -15 10 -17 25 -9 23 12 30 13 30 1 0 -5 -9 -11 -20 -14 -12 -3 -20
-14 -20 -27 0 -13 8 -24 20 -27 29 -8 24 -26 -5 -20 -38 7 -54 -28 -26 -54 12
-11 21 -16 21 -11 0 5 -7 15 -15 22 -20 17 -9 31 23 28 21 -2 28 2 30 20 3 17
-2 22 -17 22 -27 0 -27 27 -1 35 11 4 20 15 20 26 0 18 -4 20 -30 14 -23 -5
-30 -3 -30 9 0 9 4 16 10 16 5 0 15 10 21 23 6 12 8 19 4 15 -4 -4 -16 1 -25
12 -17 19 -17 19 -30 -5 -7 -14 -17 -25 -21 -25 -13 0 -20 18 -9 25 5 3 10 15
10 26 0 14 -7 19 -25 19 -20 0 -25 -5 -25 -25 0 -33 -28 -33 -36 1 -8 33 -39
28 -40 -6 -2 -43 -3 -44 -27 -21 -21 19 -25 20 -37 6 -11 -13 -10 -19 5 -35
22 -25 12 -42 -19 -30 -27 10 -36 5 -36 -22 0 -13 7 -18 26 -18 33 0 29 -33
-4 -38 -17 -3 -22 -9 -20 -25 2 -14 9 -21 18 -18 48 12 66 -7 27 -28 -20 -11
-30 -10 -58 4 -69 35 -97 62 -91 90 3 19 7 23 17 15 17 -14 28 2 19 25 -6 15
-4 16 14 6 26 -14 40 3 20 26 -11 14 -10 15 11 8 22 -7 23 -5 17 19 -5 22 -3
26 14 26 23 0 26 10 8 28 -9 9 -8 12 5 12 9 0 17 7 17 15 0 8 -4 15 -10 15 -5
0 -10 5 -10 10 0 6 7 10 15 10 19 0 19 17 1 27 -9 5 1 9 30 10 36 1 44 -2 44
-17 0 -26 44 -32 64 -8 19 22 36 23 36 3 0 -8 7 -15 15 -15 20 0 19 10 -2 26
-24 18 -52 17 -59 -1 -8 -19 -44 -20 -44 0 0 20 -40 41 -50 26 -3 -7 -14 -9
-23 -5 -12 4 -14 10 -7 24 7 13 4 22 -10 35 -10 9 -24 14 -29 10 -6 -3 -14 2
-18 11 -4 10 -2 19 5 22 18 6 15 62 -3 62 -8 0 -15 7 -15 15 0 8 7 15 15 15
22 0 43 49 26 60 -20 12 -3 32 20 25 24 -8 49 11 49 36 0 26 19 34 34 14 15
-20 56 -12 56 11 0 21 31 17 37 -5z m591 -163 c31 -45 30 -64 -1 -52 -20 7
-32 -13 -18 -30 13 -15 5 -27 -14 -20 -15 6 -28 -23 -15 -31 16 -10 12 -35 -5
-35 -20 0 -19 -20 3 -36 16 -12 16 -13 0 -19 -22 -9 -23 -24 -2 -40 15 -10 14
-15 -9 -51 -34 -55 -168 -178 -221 -204 -71 -34 -126 -6 -126 64 0 23 11 39
53 75 179 156 256 267 279 403 13 74 9 76 76 -24z m683 -9 c49 -15 106 -66 90
-82 -8 -8 -18 -4 -39 16 -28 27 -112 63 -112 48 0 -5 16 -12 34 -15 36 -7 107
-60 116 -86 2 -8 4 -44 5 -80 0 -55 -4 -69 -24 -92 -14 -16 -29 -28 -34 -28
-6 0 -3 8 6 18 10 10 17 22 17 26 0 7 -85 46 -101 46 -5 0 -9 -25 -9 -56 0
-61 3 -63 65 -39 14 6 17 5 10 -3 -5 -6 -28 -17 -50 -24 -50 -17 -105 -1 -151
43 -17 16 -32 27 -35 25 -3 -3 -5 3 -6 12 -1 9 -4 35 -8 57 -4 22 -2 51 3 65
8 20 9 14 8 -32 -2 -80 11 -88 68 -47 26 18 43 35 39 39 -36 29 -84 60 -92 60
-31 0 9 55 59 80 22 11 46 20 54 20 8 0 18 9 21 20 7 23 14 24 66 9z m-1573
-123 c15 -31 17 -47 10 -84 -4 -26 -13 -51 -20 -57 -8 -7 -9 -5 -4 10 4 11 10
35 13 54 5 29 4 33 -13 28 -10 -3 -38 -11 -61 -17 l-42 -11 30 -50 c30 -48 32
-49 50 -33 11 9 19 12 19 7 0 -6 -7 -16 -15 -23 -8 -7 -12 -17 -8 -23 3 -5 1
-7 -4 -4 -6 4 -28 0 -49 -9 -23 -10 -53 -14 -75 -11 -21 3 -43 0 -50 -7 -9 -8
-10 -8 -4 2 4 8 0 19 -11 28 -18 14 -18 15 2 9 18 -5 23 2 36 50 l15 55 -58 0
c-61 0 -67 -6 -48 -42 6 -11 8 -22 5 -25 -3 -4 -13 11 -23 33 -24 57 -14 115
21 120 9 1 16 -4 16 -12 0 -20 28 -17 32 4 3 14 6 14 17 -6 16 -29 15 -30 -36
-38 -40 -6 -41 -6 -37 22 l4 29 -11 -28 c-16 -40 -2 -48 56 -33 37 9 49 17 47
29 -2 10 3 18 10 18 30 3 35 5 51 21 9 9 17 23 17 32 0 8 5 18 12 22 11 7 9
-15 -8 -73 -6 -22 -4 -23 55 -23 33 0 61 2 61 5 0 13 -30 62 -44 74 -9 8 -16
18 -16 24 0 19 38 -25 58 -67z m3017 -32 c108 -51 60 -215 -58 -200 -106 13
-131 159 -34 201 41 18 52 18 92 -1z m-2135 -172 c0 -5 -3 -12 -7 -16 -5 -4
-8 -11 -8 -14 -1 -4 -6 -17 -13 -30 -14 -25 -10 -37 17 -51 13 -8 27 -4 54 15
34 23 42 23 38 0 -1 -4 3 -14 9 -21 9 -10 -7 -17 -78 -34 -79 -19 -204 -43
-287 -56 l-30 -4 30 16 c17 8 38 23 48 31 10 9 32 15 49 14 37 -3 60 14 53 39
-9 27 70 119 102 119 12 0 23 -4 23 -8z m426 -55 c17 1 20 -4 16 -20 -4 -17
-1 -19 16 -15 17 5 22 2 22 -13 0 -21 15 -25 26 -7 5 7 10 4 15 -10 8 -22 29
-31 29 -12 0 6 5 10 10 10 6 0 10 -7 10 -15 0 -21 28 -19 32 3 3 14 6 13 17
-7 11 -21 10 -30 -10 -73 -22 -48 -24 -49 -58 -43 -85 16 -281 114 -289 145
-3 12 -2 13 6 1 12 -17 37 -9 37 12 0 26 20 20 23 -7 4 -32 26 -49 52 -41 25
8 27 49 2 67 -10 7 -22 19 -27 27 -6 11 -2 12 21 6 16 -5 39 -8 50 -8z"/>
<path d="M1684 3965 c-3 -13 -1 -38 4 -54 12 -33 7 -41 -20 -41 -13 0 -18 7
-18 26 0 67 -50 85 -94 33 -26 -30 -43 -75 -33 -85 3 -3 8 8 12 24 7 35 47 82
69 82 22 0 39 -38 33 -74 -20 -111 -26 -131 -47 -148 -12 -10 -26 -18 -31 -18
-17 0 -39 46 -41 85 -1 38 -1 39 -5 6 -6 -42 13 -88 39 -97 14 -4 28 2 47 20
26 25 29 26 42 10 11 -14 11 -18 1 -22 -7 -2 -19 -17 -27 -33 -14 -26 -14 -30
5 -49 39 -39 161 -21 217 32 42 39 21 88 -36 88 -24 0 -33 13 -25 34 4 12 11
13 32 5 14 -6 36 -8 48 -5 84 21 -34 206 -132 206 -27 0 -35 -4 -40 -25z m100
-39 c65 -30 75 -38 86 -71 10 -31 10 -39 -3 -52 -22 -23 -58 -10 -109 39 -47
45 -68 76 -68 102 0 23 12 20 94 -18z m-31 -98 c17 -23 18 -31 7 -57 -6 -17
-24 -34 -39 -40 -23 -8 -24 -9 -4 -10 12 -1 25 4 28 9 10 16 81 12 95 -5 42
-51 -101 -125 -195 -101 -38 10 -31 53 14 83 19 13 28 23 21 23 -44 0 -66 76
-33 112 25 28 80 20 106 -14z"/>
<path d="M4171 3764 c-12 -15 -21 -38 -21 -51 0 -34 42 -73 80 -73 38 0 80 39
80 73 0 42 -36 77 -80 77 -30 0 -43 -6 -59 -26z"/>
<path d="M2522 3607 c-40 -43 -17 -125 36 -128 60 -4 92 22 92 77 0 68 -81
101 -128 51z"/>
<path d="M5128 3409 c-4 -25 0 -33 22 -44 36 -18 80 -71 80 -95 0 -24 26 -50
51 -50 42 0 14 103 -44 161 -23 23 -85 59 -102 59 -2 0 -5 -14 -7 -31z"/>
<path d="M1818 3460 c-25 -26 -29 -36 -24 -63 15 -73 96 -97 142 -43 31 35 30
67 -2 105 -35 42 -75 42 -116 1z m107 -5 c40 -39 30 -86 -23 -114 -43 -23
-102 20 -102 75 0 24 47 64 75 64 14 0 37 -11 50 -25z"/>
<path d="M823 2870 c-27 -11 -28 -18 -8 -47 13 -19 20 -21 42 -12 35 13 89 1
124 -28 28 -24 30 -24 55 -8 32 21 28 33 -24 70 -34 23 -55 30 -105 32 -34 2
-72 -2 -84 -7z"/>
<path d="M743 2818 c-47 -52 -68 -128 -54 -191 12 -49 16 -53 42 -35 19 12 22
24 23 74 1 49 6 67 27 95 24 31 25 36 11 57 -18 28 -23 28 -49 0z"/>
<path d="M1043 2754 c-19 -13 -20 -19 -11 -45 14 -40 2 -92 -28 -128 -24 -29
-24 -31 -8 -56 l17 -26 24 23 c56 52 80 153 53 222 -11 30 -17 31 -47 10z"/>
<path d="M743 2573 c-30 -20 -17 -44 40 -77 54 -32 111 -41 165 -27 46 13 49
18 29 46 -11 14 -28 18 -80 19 -57 1 -69 4 -94 29 -33 31 -31 31 -60 10z"/>
<path d="M3429 3406 c-31 -12 -70 -32 -86 -44 -78 -55 -148 -164 -158 -244 -3
-24 -2 -37 1 -30 3 6 10 10 15 6 13 -8 68 18 74 36 6 14 -21 44 -48 53 -9 3
-9 10 2 33 10 21 15 25 19 14 8 -22 25 -30 39 -18 9 7 14 6 18 -6 3 -9 7 -23
10 -31 10 -33 36 -28 73 13 21 23 53 51 72 62 20 12 25 19 13 15 -18 -5 -21
-3 -16 16 5 17 3 21 -9 16 -12 -4 -14 -1 -11 14 3 11 0 19 -6 19 -7 0 -9 5 -6
10 3 6 -1 13 -9 16 -12 5 -13 9 -3 25 17 28 34 23 42 -11 4 -16 10 -32 15 -35
4 -3 6 4 3 15 -4 13 0 20 10 20 17 0 30 -52 16 -61 -19 -11 28 -40 55 -33 14
3 49 1 77 -6 28 -7 54 -9 58 -4 5 5 -3 27 -15 49 -18 30 -24 35 -25 20 0 -11
-3 -14 -6 -7 -9 22 -41 13 -52 -15 -11 -28 -11 -28 -6 -2 3 19 -2 32 -20 49
-14 13 -25 28 -25 33 0 5 9 -2 21 -17 12 -15 30 -26 44 -26 33 0 75 17 75 30
0 7 -9 5 -22 -4 -42 -30 -97 -12 -101 32 -1 18 -7 22 -37 22 -19 0 -60 -11
-91 -24z"/>
<path d="M3500 3214 c-155 -67 -160 -277 -8 -355 40 -21 111 -25 152 -9 35 13
33 23 -14 55 -30 21 -37 31 -28 37 8 5 4 7 -12 4 -58 -8 -116 56 -101 113 9
31 64 71 91 66 26 -5 58 -23 67 -38 4 -7 19 -18 33 -24 14 -7 40 -22 58 -33
l32 -22 0 31 c0 64 -45 137 -102 167 -24 12 -27 12 -31 -4 -4 -16 -5 -16 -6 1
-1 19 -16 23 -27 6 -5 -8 -10 -6 -16 5 -9 16 -11 16 -25 -1 -13 -16 -14 -17
-9 0 7 21 -7 21 -54 1z"/>
<path d="M4396 3328 c-41 -37 -43 -72 -8 -108 18 -18 41 -30 57 -30 36 0 75
41 75 80 0 38 -39 80 -74 80 -14 0 -36 -10 -50 -22z"/>
<path d="M2630 3334 c0 -15 -9 -37 -20 -49 l-21 -22 41 -28 c22 -15 50 -44 62
-64 12 -20 23 -38 25 -40 1 -2 12 4 23 14 11 10 34 18 50 18 17 0 30 2 30 4 0
19 -81 119 -118 146 -71 51 -72 52 -72 21z"/>
<path d="M2406 3227 l-29 -13 34 -28 c19 -16 50 -36 69 -44 40 -16 138 -20
164 -5 16 9 14 13 -23 45 -64 54 -150 72 -215 45z"/>
<path d="M1967 3187 c-75 -24 -147 -107 -147 -171 0 -23 2 -25 24 -15 14 7 27
23 31 37 3 14 25 44 48 66 35 34 49 41 87 43 25 2 59 -4 75 -12 l30 -14 -30 7
c-36 8 -92 8 -101 -1 -3 -3 7 -29 22 -57 l28 -51 38 38 c21 20 38 42 38 49 0
7 7 14 15 18 8 3 15 1 15 -5 0 -5 10 -23 22 -39 11 -16 24 -51 28 -77 9 -56
-11 -105 -57 -144 -15 -13 -34 -36 -40 -51 -11 -24 -18 -28 -56 -28 -56 0
-105 17 -117 40 -9 17 -7 18 23 8 44 -15 147 -22 147 -10 0 5 -19 8 -42 5 -24
-3 -54 0 -68 6 -20 8 -16 9 22 4 76 -9 83 -2 53 57 -14 27 -29 50 -34 50 -16
0 -72 -72 -67 -85 9 -24 -30 -12 -42 13 -9 20 -9 22 4 11 17 -14 14 -16 48 39
15 24 24 47 21 50 -4 4 -29 12 -57 18 l-50 12 4 -37 c3 -20 8 -45 13 -56 6
-16 5 -18 -5 -8 -7 6 -15 32 -17 57 -3 25 -10 46 -14 46 -12 0 -11 -7 2 -55 6
-22 20 -52 31 -67 22 -31 16 -57 -9 -37 -20 17 -53 84 -54 111 -1 17 -2 19 -6
5 -7 -28 15 -81 50 -117 91 -94 231 -92 315 5 42 47 52 74 52 138 -1 99 -64
183 -156 206 -52 13 -68 13 -117 -2z"/>
<path d="M2445 3088 c-74 -40 -51 -148 31 -148 78 0 103 109 33 145 -33 18
-38 18 -64 3z"/>
<path d="M2817 3039 c-11 -6 -32 -8 -48 -5 -28 5 -29 5 -29 -37 0 -23 -9 -62
-20 -86 -25 -54 -25 -61 0 -61 11 0 27 -11 36 -25 21 -32 34 -22 63 46 23 52
40 179 25 179 -5 0 -17 -5 -27 -11z"/>
<path d="M2649 2986 c-20 -7 -51 -23 -68 -35 -33 -24 -91 -114 -91 -143 0 -16
4 -16 45 -3 25 7 61 25 79 39 38 28 79 105 74 135 -3 18 -6 18 -39 7z"/>
<path d="M2587 2774 c-16 -9 -54 -18 -84 -21 -52 -6 -54 -7 -48 -31 4 -15 0
-34 -10 -48 -14 -22 -14 -25 0 -30 36 -14 158 12 213 46 l34 21 -26 20 c-13
11 -28 28 -31 39 -8 24 -11 24 -48 4z"/>
<path d="M5208 2729 c-10 -11 -29 -19 -43 -19 -14 0 -25 -2 -25 -4 0 -2 4 -27
10 -55 6 -32 6 -68 1 -92 -9 -38 -8 -39 18 -39 15 0 37 -7 49 -16 13 -9 26
-14 29 -11 9 10 16 134 9 180 -4 24 -12 51 -19 59 -11 13 -14 13 -29 -3z"/>
<path d="M5066 2404 c-21 -18 -58 -41 -82 -50 -42 -16 -43 -17 -27 -40 9 -15
13 -33 9 -49 -5 -20 -3 -25 11 -25 33 0 122 48 168 91 l47 43 -34 11 c-18 7
-38 21 -43 32 -10 20 -12 19 -49 -13z m69 -19 l30 -25 -35 -29 c-36 -30 -130
-81 -150 -81 -7 0 -8 6 -1 18 7 14 6 25 -5 41 -9 12 -14 23 -13 25 2 1 28 13
57 26 29 13 58 30 64 37 14 17 18 16 53 -12z"/>
<path d="M1613 2593 c-24 -8 -43 -18 -43 -23 0 -5 18 -42 40 -83 l40 -74 57 5
c32 2 61 7 64 11 3 3 15 43 26 88 l20 81 -21 6 c-39 10 -141 5 -183 -11z m182
-3 c4 -6 -1 -44 -11 -85 l-18 -75 -58 0 -58 0 -35 70 -35 70 22 9 c58 22 182
29 193 11z"/>
<path d="M1821 2503 c-12 -47 -18 -89 -14 -92 4 -3 23 -19 41 -36 l32 -29 80
39 c44 21 80 42 80 46 0 17 -89 104 -134 129 -28 17 -54 30 -57 30 -4 0 -16
-39 -28 -87z m103 36 c26 -17 59 -47 73 -66 l27 -35 -25 -18 c-13 -11 -45 -29
-72 -41 l-47 -23 -35 34 c-20 19 -33 41 -31 49 30 108 38 131 50 131 7 0 34
-14 60 -31z"/>
<path d="M1498 2533 c-18 -16 -39 -35 -46 -43 -24 -28 -72 -104 -72 -115 0 -5
39 -20 86 -33 l87 -22 33 38 c18 20 33 42 33 47 1 11 -77 155 -84 155 -2 0
-18 -12 -37 -27z m76 -58 l36 -66 -31 -38 -30 -38 -79 19 c-88 22 -88 22 -39
94 28 42 83 94 99 94 4 0 24 -29 44 -65z"/>
<path d="M1652 2383 c-109 -53 -110 -221 -2 -275 75 -38 157 -16 204 55 84
129 -62 289 -202 220z m156 -20 c59 -43 79 -131 42 -191 -32 -52 -76 -74 -138
-69 -45 3 -59 9 -89 40 -31 30 -37 44 -40 89 -5 62 17 106 69 139 41 25 116
21 156 -8z"/>
<path d="M1967 2358 c-68 -35 -77 -43 -71 -62 4 -11 8 -37 9 -56 2 -19 9 -38
16 -42 26 -14 152 -48 158 -43 3 3 7 34 9 69 4 62 -19 176 -36 176 -4 0 -42
-19 -85 -42z m102 -22 c12 -48 14 -118 5 -152 l-6 -22 -66 20 c-37 11 -70 23
-73 26 -4 4 -10 30 -13 57 l-7 50 68 37 c37 20 70 35 74 32 4 -2 12 -24 18
-48z"/>
<path d="M1366 2324 c-19 -49 3 -223 30 -231 5 -1 41 14 79 35 l70 37 -4 65
c-2 36 -4 66 -6 68 -2 2 -32 10 -66 18 -35 8 -71 17 -80 20 -10 2 -19 -2 -23
-12z m127 -24 c34 -10 37 -14 37 -48 0 -20 3 -46 5 -57 5 -16 -7 -27 -64 -58
l-70 -38 -12 23 c-7 13 -15 63 -17 112 l-5 89 44 -6 c24 -4 61 -11 82 -17z"/>
<path d="M1859 2127 l-37 -42 42 -77 c22 -43 45 -78 49 -78 4 0 31 21 58 47
57 53 108 140 87 148 -67 25 -134 45 -147 45 -9 -1 -32 -20 -52 -43z"/>
<path d="M1485 2103 c-38 -19 -72 -37 -74 -39 -2 -2 9 -23 25 -46 29 -41 138
-122 158 -115 13 4 67 167 55 167 -5 0 -26 16 -48 35 -21 19 -40 35 -42 35 -2
-1 -35 -17 -74 -37z m85 17 c0 -5 15 -20 34 -32 38 -25 39 -35 7 -131 l-16
-47 -40 21 c-42 22 -110 82 -126 110 -7 14 4 23 59 53 72 38 82 41 82 26z"/>
<path d="M1724 2063 l-40 -4 -27 -81 c-14 -45 -24 -85 -21 -90 13 -21 192 -5
233 21 19 12 -63 162 -87 159 -9 -1 -35 -3 -58 -5z"/>
<path d="M2381 2404 c-12 -15 -21 -34 -21 -44 0 -34 39 -70 75 -70 36 0 75 36
75 70 0 34 -39 70 -75 70 -24 0 -39 -7 -54 -26z"/>
<path d="M5242 2299 c-125 -62 -136 -250 -21 -326 100 -66 229 -28 280 82 33
71 20 144 -35 204 -59 64 -145 79 -224 40z m168 -11 c72 -37 111 -114 96 -192
-15 -79 -97 -146 -179 -146 -50 0 -109 31 -144 77 -24 32 -28 45 -28 104 0 60
3 71 30 105 61 75 142 93 225 52z"/>
<path d="M3806 2144 c-13 -33 -5 -52 24 -64 35 -14 110 -93 110 -115 0 -17 36
-20 59 -6 11 7 8 19 -15 61 -30 55 -81 101 -137 125 -31 13 -36 13 -41 -1z"/>
<path d="M4264 1960 c-28 -11 -54 -48 -54 -78 0 -36 19 -62 55 -78 89 -37 158
78 84 140 -32 27 -50 30 -85 16z"/>
<path d="M4060 1724 c0 -11 -6 -13 -20 -9 -13 4 -23 0 -32 -14 -7 -12 -21 -21
-30 -21 -10 0 -18 -5 -18 -11 0 -6 6 -7 13 -2 6 4 4 -5 -6 -21 -11 -15 -17
-37 -14 -47 3 -10 1 -19 -4 -19 -5 0 -9 -7 -9 -15 0 -8 5 -15 10 -15 6 0 10
-9 10 -19 0 -11 8 -26 18 -33 9 -7 17 -20 17 -28 0 -10 8 -14 23 -13 12 2 22
-2 22 -8 0 -7 12 -9 30 -7 17 3 30 1 30 -4 0 -4 7 -8 15 -8 8 0 15 5 15 10 0
6 9 10 20 10 11 0 25 9 32 19 6 11 18 17 26 13 12 -4 14 0 10 16 -4 12 0 26 9
33 9 8 12 21 8 36 -3 13 -1 23 5 23 5 0 10 7 10 15 0 8 -7 15 -15 15 -8 0 -12
6 -9 14 3 8 -3 22 -14 32 -10 11 -22 27 -25 37 -4 10 -12 15 -17 12 -6 -4 -17
-1 -25 5 -8 7 -24 10 -35 7 -11 -3 -23 -1 -26 4 -9 15 -24 10 -24 -7z m24 -39
c9 -34 35 -39 64 -13 26 24 27 23 5 -28 -7 -18 27 -45 48 -39 11 4 19 2 19 -4
0 -6 -9 -11 -20 -11 -10 0 -24 -9 -30 -20 -8 -15 -6 -24 9 -39 11 -11 16 -23
11 -26 -6 -4 -10 -1 -10 4 0 16 -46 13 -59 -3 -6 -7 -9 -21 -5 -30 3 -9 1 -16
-4 -16 -6 0 -12 10 -14 23 -4 27 -47 37 -60 13 -5 -9 -14 -16 -20 -16 -7 0 -6
5 2 14 21 26 8 60 -24 66 l-30 5 27 12 c30 14 36 43 12 63 -21 18 -11 24 13 9
26 -16 53 3 51 35 -1 19 -2 18 -8 -4 -8 -30 -44 -34 -49 -6 -5 22 7 30 41 32
19 1 27 -4 31 -21z"/>
<path d="M4207 1329 c-49 -26 -86 -83 -94 -147 -6 -50 -5 -52 18 -53 17 -1 19
-3 7 -6 -10 -2 -18 -9 -18 -14 0 -17 27 -63 49 -83 18 -16 23 -17 38 -5 15 12
16 12 10 -3 -8 -22 24 -41 56 -35 20 4 20 4 -3 6 -44 2 -51 13 -29 48 17 26
24 30 47 24 32 -9 51 -67 23 -74 -11 -3 -9 -5 6 -6 12 0 24 5 26 12 4 9 6 9 6
0 1 -16 27 -7 70 25 39 29 70 92 71 145 0 33 -3 37 -27 38 -24 2 -25 2 -5 6
12 2 22 10 22 17 0 21 -60 98 -72 94 -7 -3 -20 4 -30 14 -13 13 -33 18 -68 18
-50 0 -50 0 -45 -27 l6 -28 -13 27 -13 27 -38 -20z m173 -38 c-17 -33 -11 -38
9 -8 l18 28 32 -36 c17 -20 31 -41 31 -48 -1 -7 -8 0 -16 16 -8 15 -23 27 -34
27 -23 0 -51 -37 -43 -58 4 -10 2 -13 -5 -8 -7 4 -10 17 -6 33 5 18 4 24 -5
19 -6 -4 -8 -12 -5 -18 4 -7 -2 -8 -17 -3 -23 7 -23 6 4 -14 37 -30 38 -81 1
-110 -15 -12 -34 -21 -44 -21 -30 0 -70 39 -70 69 0 40 24 67 75 81 33 9 50
21 61 41 8 16 17 29 20 29 2 0 0 -9 -6 -19z m-173 -66 c28 1 31 -1 22 -16 -25
-48 3 -112 55 -125 26 -6 86 20 86 37 0 6 14 1 31 -11 16 -12 33 -20 35 -17 3
3 -4 10 -15 17 -12 6 -21 20 -21 33 1 20 3 19 29 -13 21 -24 26 -37 18 -42 -9
-6 -8 -8 1 -8 10 0 9 -4 -3 -16 -12 -12 -19 -14 -27 -6 -8 8 -17 8 -30 1 -26
-14 -36 -3 -16 17 12 13 20 14 36 5 35 -19 39 -12 5 10 -31 20 -33 20 -57 2
-21 -15 -25 -24 -21 -53 l5 -35 -10 33 c-6 17 -16 32 -23 32 -7 0 -21 3 -32 6
-15 4 -25 -2 -35 -20 -7 -14 -15 -24 -18 -21 -3 2 2 15 11 28 15 23 14 26 -13
55 -15 17 -24 32 -20 34 13 5 16 61 4 65 -7 2 -9 -8 -6 -26 4 -32 1 -36 -45
-46 -30 -6 -33 -5 -33 19 0 13 4 36 10 51 8 20 13 24 27 17 10 -5 32 -9 50 -7z"/>
<path d="M3805 885 c-50 -49 -15 -135 55 -135 41 0 80 39 80 80 0 41 -39 80
-80 80 -19 0 -40 -9 -55 -25z m102 -7 c31 -29 30 -71 -3 -97 -35 -27 -59 -26
-89 4 -30 30 -31 54 -4 89 25 32 64 34 96 4z"/>
<path d="M4186 884 c-5 -12 -9 -14 -20 -5 -17 15 -49 3 -42 -16 4 -8 -4 -17
-20 -23 -21 -9 -25 -15 -20 -35 5 -18 2 -25 -9 -25 -21 0 -19 -30 3 -46 15
-12 15 -15 2 -23 -12 -8 -12 -13 -2 -23 7 -7 18 -13 25 -13 6 0 13 -9 16 -20
4 -26 22 -37 38 -23 9 7 14 6 19 -6 3 -9 16 -16 28 -16 36 0 50 -42 50 -153 1
-91 3 -100 25 -118 53 -43 131 -1 131 71 0 11 -20 40 -45 66 -53 54 -75 100
-75 155 0 32 4 39 19 39 23 0 34 23 19 38 -8 8 -7 13 5 18 9 3 17 10 17 15 0
14 -28 -1 -35 -18 -3 -9 0 -20 7 -24 9 -6 5 -11 -12 -17 -24 -9 -25 -8 -28 32
-4 71 -11 86 -47 103 -34 16 -36 16 -63 -4 -42 -31 -41 -73 2 -127 39 -47 50
-82 17 -52 -13 12 -27 15 -42 11 -17 -6 -21 -4 -16 8 7 19 -17 42 -34 32 -8
-5 -9 1 -4 24 5 23 3 32 -9 37 -21 8 -21 24 0 24 13 0 15 7 10 30 -5 25 -3 30
12 28 10 -2 21 6 27 19 6 15 16 21 26 18 9 -3 25 2 34 11 16 17 18 17 27 0 7
-12 17 -16 34 -12 19 5 24 3 24 -14 0 -25 27 -37 43 -20 9 9 8 11 -8 8 -14 -2
-20 3 -20 15 0 22 -31 42 -40 27 -9 -15 -25 -12 -25 5 0 20 -36 19 -44 -1z
m58 -85 c24 -19 26 -27 26 -93 0 -105 22 -166 81 -232 55 -61 60 -84 24 -119
-30 -31 -54 -31 -90 -3 -26 21 -27 23 -20 95 6 64 4 83 -15 134 -12 32 -40 79
-61 103 -46 52 -52 96 -17 120 29 21 40 20 72 -5z"/>
<path d="M2475 1055 c-41 -40 -33 -105 17 -131 59 -30 122 7 122 73 0 72 -89
109 -139 58z m96 4 c46 -24 42 -105 -7 -128 -35 -16 -47 -14 -78 10 -19 15
-26 30 -26 55 0 60 57 92 111 63z"/>
<path d="M5185 1235 c-50 -49 -15 -135 55 -135 38 0 80 39 80 74 0 13 -12 38
-26 55 -33 39 -74 41 -109 6z m100 -10 c30 -30 31 -54 4 -89 -39 -50 -119 -22
-119 43 0 20 9 36 26 50 35 27 59 26 89 -4z"/>
<path d="M823 2130 c-207 -43 -305 -274 -190 -447 36 -55 109 -107 170 -124
93 -25 215 11 284 83 83 86 103 225 48 333 -58 114 -191 180 -312 155z m172
-34 c105 -48 175 -169 161 -280 -12 -101 -67 -179 -160 -229 -57 -30 -172 -30
-236 -1 -173 81 -218 301 -91 446 76 87 218 115 326 64z"/>
<path d="M827 2089 c-50 -12 -107 -42 -133 -71 -30 -32 -64 -102 -64 -130 1
-14 8 -1 19 30 35 102 119 161 227 162 198 0 310 -218 194 -379 -46 -63 -111
-96 -190 -96 -124 0 -206 67 -242 198 -15 54 -17 56 -12 17 17 -127 105 -214
230 -227 171 -18 314 161 260 324 -41 122 -170 199 -289 172z"/>
</g>
</svg>
