<svg version="1.1" xmlns="http://www.w3.org/2000/svg" xmlns:xlink="http://www.w3.org/1999/xlink" width="162.77000427246094" height="52.95000076293945"><defs></defs><g transform="translate(-80.32695770263672,26.819992065429688)"><rect fill="rgb(255,255,255)" stroke="none" x="0" y="0" width="162.77000427246094" height="52.95000076293945" fill-opacity="0" transform="translate(80.32695770263672,-26.819992065429688)"></rect><g transform="translate(81.83695983886719,26.5) rotate(0,0,0) translate(-81.83695983886719,-26.5) matrix(1,0,0,1,81.83695983886719,26.5)"><path fill="rgb(0,0,0)" fill-opacity="1" d="M38.51-51.78L38.51-51.78Q39.52-51.78 40.21-51.36Q40.89-50.93 41.24-50.24Q41.58-49.55 41.58-48.73Q41.58-47.91 41.21-47.12L41.21-47.12Q41.11-46.96 40.95-47.01Q40.79-47.06 40.68-47.22L40.68-47.22Q40.58-48.28 39.70-49.10Q38.83-49.93 36.97-49.93L36.97-49.93Q34.96-49.93 33.13-48.87Q31.30-47.81 29.42-45.16Q27.54-42.51 25.60-38.00Q23.67-33.50 21.44-26.61L21.44-26.61Q22.66-26.66 24.01-26.66Q25.37-26.66 26.80-26.66L26.80-26.66Q27.06-26.55 27.03-26.37Q27.01-26.18 26.53-26.08L26.53-26.08Q25.21-26.02 23.88-25.97Q22.56-25.92 21.18-25.81L21.18-25.81Q21.02-25.23 20.81-24.75L20.81-24.75Q18.63-17.81 16.36-13.12Q14.08-8.43 11.69-5.59Q9.31-2.76 6.84-1.56Q4.38-0.37 1.83-0.37L1.83-0.37Q0.03-0.37-0.74-1.17Q-1.51-1.96-1.51-3.02L-1.51-3.02Q-1.51-3.50-1.29-4.05Q-1.08-4.61-0.76-5.04L-0.76-5.04Q-0.60-5.19-0.47-5.09Q-0.34-4.98-0.34-4.82L-0.34-4.82Q-0.55-4.40-0.50-3.84Q-0.45-3.29-0.05-2.78Q0.35-2.28 1.12-1.93Q1.89-1.59 3.11-1.59L3.11-1.59Q4.38-1.59 5.62-1.91Q6.87-2.23 8.11-3.10Q9.36-3.97 10.60-5.57Q11.85-7.16 13.18-9.73Q14.50-12.30 15.93-15.95Q17.36-19.61 18.90-24.64L18.90-24.64Q19.01-24.91 19.06-25.15Q19.11-25.39 19.22-25.65L19.22-25.65Q18.32-25.55 17.42-25.41Q16.51-25.28 15.61-25.07L15.61-25.07Q15.35-25.12 15.48-25.33Q15.61-25.55 15.96-25.76Q16.30-25.97 16.78-26.16Q17.26-26.34 17.68-26.39L17.68-26.39Q18.10-26.45 18.55-26.47Q19.01-26.50 19.48-26.55L19.48-26.55Q21.39-32.28 23.59-36.91Q25.79-41.55 28.23-44.86Q30.67-48.18 33.26-49.98Q35.86-51.78 38.51-51.78ZM33.10-24.49L33.10-24.49Q33.10-23.74 32.52-23.11Q31.94-22.47 30.93-21.97Q29.92-21.46 28.62-21.04Q27.33-20.62 25.90-20.25L25.90-20.25Q25.84-19.66 25.82-19.08Q25.79-18.50 25.79-17.81L25.79-17.81Q25.79-16.48 26.37-15.58Q26.96-14.68 28.02-14.68L28.02-14.68Q29.08-14.68 30.00-15.21Q30.93-15.74 31.67-16.64L31.67-16.64Q31.88-16.75 31.99-16.59Q32.10-16.43 31.99-16.22L31.99-16.22Q31.09-15.00 29.74-14.12Q28.39-13.25 26.90-13.25L26.90-13.25Q25.52-13.25 24.65-14.15Q23.78-15.05 23.78-16.80L23.78-16.80Q23.78-18.39 24.36-20.17Q24.94-21.94 25.90-23.43Q26.85-24.91 28.09-25.86Q29.34-26.82 30.72-26.82L30.72-26.82Q31.73-26.82 32.41-26.10Q33.10-25.39 33.10-24.49ZM29.61-25.44L29.61-25.44Q28.39-25.44 27.43-24.38Q26.48-23.32 26.05-21.04L26.05-21.04Q28.60-21.41 29.79-22.13Q30.98-22.84 30.98-23.74L30.98-23.74Q30.98-24.49 30.61-24.96Q30.24-25.44 29.61-25.44ZM34.48-13.73L34.48-13.73Q36.87-22.84 39.83-30.16Q42.80-37.47 46.06-42.61Q49.32-47.75 52.71-50.54Q56.11-53.32 59.29-53.32L59.29-53.32Q60.45-53.32 61.22-52.87Q61.99-52.42 62.28-51.73Q62.57-51.04 62.44-50.19Q62.31-49.34 61.67-48.55L61.67-48.55Q61.56-48.39 61.41-48.44Q61.25-48.49 61.25-48.71L61.25-48.71Q61.46-49.77 60.61-50.72Q59.76-51.67 57.91-51.67L57.91-51.67Q55.42-51.67 52.82-49.71Q50.22-47.75 47.63-43.70Q45.03-39.64 42.51-33.50Q39.99-27.35 37.66-18.92L37.66-18.92Q38.51-20.56 39.62-22.02Q40.74-23.48 41.90-24.54Q43.07-25.60 44.26-26.21Q45.45-26.82 46.57-26.82L46.57-26.82Q47.20-26.82 47.52-26.50Q47.84-26.18 47.84-25.76L47.84-25.76Q47.84-25.07 47.36-24.22L47.36-24.22Q46.25-22.26 45.53-20.19Q44.82-18.13 44.82-16.43L44.82-16.43Q44.82-15.69 45.00-15.21Q45.19-14.73 45.61-14.73L45.61-14.73Q46.14-14.73 46.75-15.29Q47.36-15.85 47.84-16.54L47.84-16.54Q48.00-16.64 48.16-16.51Q48.31-16.38 48.26-16.16L48.26-16.16Q47.94-15.69 47.47-15.18Q46.99-14.68 46.43-14.23Q45.88-13.78 45.29-13.52Q44.71-13.25 44.23-13.25L44.23-13.25Q42.91-13.25 42.91-15.48L42.91-15.48Q42.91-17.38 43.54-19.64Q44.18-21.89 45.08-23.64L45.08-23.64Q45.40-24.17 45.40-24.54L45.40-24.54Q45.40-25.02 44.82-25.02L44.82-25.02Q43.86-25.02 42.75-24.27Q41.64-23.53 40.47-22.10Q39.30-20.67 38.24-18.63Q37.18-16.59 36.34-14.04L36.34-14.04Q36.23-13.67 35.78-13.46Q35.33-13.25 34.91-13.25L34.91-13.25Q34.32-13.25 34.48-13.73ZM51.12-15.85L51.12-15.85Q52.34-15.42 53.64-15.13Q54.94-14.84 56.26-14.84L56.26-14.84Q57.64-14.84 58.52-15.61Q59.39-16.38 59.97-17.91L59.97-17.91Q60.13-18.02 60.35-17.91Q60.56-17.81 60.45-17.60L60.45-17.60Q59.71-15.58 58.52-14.39Q57.32-13.20 55.68-13.20L55.68-13.20Q54.57-13.20 53.46-13.44Q52.34-13.67 51.12-14.10L51.12-14.10Q50.49-14.36 49.93-14.15Q49.37-13.94 48.58-13.20L48.58-13.20Q48.31-13.20 48.16-13.46Q48.00-13.73 48.16-13.99L48.16-13.99Q49.32-15.16 50.73-16.54Q52.13-17.91 53.56-19.34Q54.99-20.78 56.34-22.10Q57.70-23.43 58.81-24.54L58.81-24.54Q57.64-24.80 56.21-24.96Q54.78-25.12 53.77-25.12L53.77-25.12Q52.24-25.12 51.65-23.43L51.65-23.43Q51.55-23.27 51.34-23.37Q51.12-23.48 51.12-23.64L51.12-23.64Q51.55-24.80 52.45-25.78Q53.35-26.77 54.73-26.77L54.73-26.77Q55.95-26.77 57.06-26.53Q58.17-26.29 58.91-26.08L58.91-26.08Q59.50-25.97 59.92-26.10Q60.35-26.23 60.77-26.61L60.77-26.61Q60.93-26.77 61.25-26.77L61.25-26.77Q61.88-26.77 61.78-26.34L61.78-26.34Q58.91-23.59 56.18-20.91Q53.46-18.23 51.12-15.85ZM75.50-16.59L75.50-16.59Q75.61-16.70 75.77-16.59Q75.93-16.48 75.87-16.27L75.87-16.27Q74.76-14.73 73.67-13.99Q72.59-13.25 71.85-13.25L71.85-13.25Q71.37-13.25 71.08-13.73Q70.79-14.20 70.71-15.03Q70.63-15.85 70.76-16.88Q70.89-17.91 71.21-19.03L71.21-19.03Q69.78-16.80 68.19-15.18Q66.60-13.57 65.12-13.25L65.12-13.25Q64.16-13.25 63.50-14.18Q62.84-15.11 62.84-17.07L62.84-17.07Q62.84-18.81 63.55-20.54Q64.27-22.26 65.49-23.66Q66.71-25.07 68.30-25.92Q69.89-26.77 71.63-26.77L71.63-26.77Q72.59-26.77 73.28-26.55Q73.97-26.34 74.55-25.92L74.55-25.92Q74.87-26.18 75.42-26.42Q75.98-26.66 76.46-26.66L76.46-26.66Q76.72-26.66 76.62-26.39L76.62-26.39Q75.40-24.91 74.52-23.11Q73.65-21.31 73.17-19.61Q72.69-17.91 72.56-16.62Q72.43-15.32 72.75-14.84L72.75-14.84Q73.01-14.47 73.70-14.81Q74.39-15.16 75.50-16.59ZM66.28-15.05L66.28-15.05Q66.86-15.05 67.79-15.87Q68.72-16.70 69.73-18.02Q70.73-19.34 71.71-21.01Q72.69-22.68 73.44-24.38L73.44-24.38Q73.22-25.07 72.46-25.49Q71.69-25.92 70.68-25.92L70.68-25.92Q69.51-25.92 68.48-25.31Q67.45-24.70 66.65-23.61Q65.86-22.52 65.38-21.04Q64.90-19.56 64.90-17.75L64.90-17.75Q64.90-16.59 65.30-15.82Q65.70-15.05 66.28-15.05ZM91.72-16.64L91.72-16.64Q91.88-16.75 92.04-16.64Q92.20-16.54 92.15-16.32L92.15-16.32Q91.24-15.11 90.16-14.18Q89.07-13.25 88.12-13.25L88.12-13.25Q86.47-13.25 86.47-15.37L86.47-15.37Q86.47-17.17 87.11-19.37Q87.75-21.57 88.86-23.80L88.86-23.80Q89.07-24.17 89.07-24.54L89.07-24.54Q89.07-25.12 88.54-25.12L88.54-25.12Q86.58-25.12 84.22-22.42Q81.86-19.72 79.85-13.94L79.85-13.94Q79.74-13.62 79.27-13.44Q78.79-13.25 78.37-13.25L78.37-13.25Q77.78-13.25 77.94-13.73L77.94-13.73Q78.84-16.01 79.82-18.87Q80.80-21.73 81.55-24.54L81.55-24.54Q81.76-25.55 81.17-25.55L81.17-25.55Q80.64-25.55 80.11-25.02Q79.58-24.49 79.00-23.64L79.00-23.64Q78.90-23.53 78.76-23.69Q78.63-23.85 78.68-24.01L78.68-24.01Q79.27-24.91 80.27-25.86Q81.28-26.82 82.45-26.82L82.45-26.82Q83.77-26.82 83.35-25.02L83.35-25.02Q83.14-23.85 82.76-22.55Q82.39-21.25 81.97-19.98L81.97-19.98Q82.71-21.41 83.72-22.68Q84.73-23.96 85.81-24.86Q86.90-25.76 87.98-26.29Q89.07-26.82 90.03-26.82L90.03-26.82Q90.66-26.82 91.01-26.50Q91.35-26.18 91.35-25.76L91.35-25.76Q91.35-25.07 91.03-24.38L91.03-24.38Q89.92-22.37 89.15-20.17Q88.38-17.97 88.38-16.11L88.38-16.11Q88.38-14.79 89.23-14.79L89.23-14.79Q90.34-14.79 91.72-16.64ZM107.52-26.82L107.52-26.82Q108.58-26.82 109.29-26.47Q110.01-26.13 110.01-25.70L110.01-25.70Q110.01-25.12 109.77-24.38Q109.53-23.64 109.26-23.16L109.26-23.16Q109.16-23.05 108.97-23.13Q108.79-23.21 108.84-23.37L108.84-23.37Q109.00-23.74 109.05-24.22Q109.11-24.70 109.00-25.07L109.00-25.07Q108.73-26.13 107.52-26.13L107.52-26.13Q106.61-26.13 106.06-25.60Q105.50-25.07 105.50-24.01L105.50-24.01Q105.50-23.16 105.95-22.39Q106.40-21.62 106.96-20.86Q107.52-20.09 107.97-19.21Q108.42-18.34 108.42-17.28L108.42-17.28Q108.42-15.58 107.22-14.42Q106.03-13.25 103.65-13.25L103.65-13.25Q102.00-13.25 100.94-13.83Q99.88-14.42 99.88-15.05L99.88-15.05Q99.88-15.53 100.47-16.48Q101.05-17.44 101.79-18.02L101.79-18.02Q101.95-18.13 102.08-17.97Q102.22-17.81 102.11-17.65L102.11-17.65Q101.69-17.23 101.47-16.67Q101.26-16.11 101.37-15.69L101.37-15.69Q101.53-14.79 102.19-14.34Q102.85-13.89 103.75-13.89L103.75-13.89Q105.13-13.89 105.90-14.63Q106.67-15.37 106.67-16.54L106.67-16.54Q106.67-17.54 106.19-18.42Q105.71-19.29 105.16-20.11Q104.60-20.93 104.15-21.76Q103.70-22.58 103.70-23.53L103.70-23.53Q103.70-24.91 104.73-25.86Q105.77-26.82 107.52-26.82ZM124.42-16.59L124.42-16.59Q124.53-16.70 124.69-16.59Q124.85-16.48 124.79-16.27L124.79-16.27Q123.68-14.73 122.59-13.99Q121.51-13.25 120.77-13.25L120.77-13.25Q120.29-13.25 120.00-13.73Q119.71-14.20 119.63-15.03Q119.55-15.85 119.68-16.88Q119.81-17.91 120.13-19.03L120.13-19.03Q118.70-16.80 117.11-15.18Q115.52-13.57 114.03-13.25L114.03-13.25Q113.08-13.25 112.42-14.18Q111.76-15.11 111.76-17.07L111.76-17.07Q111.76-18.81 112.47-20.54Q113.19-22.26 114.41-23.66Q115.62-25.07 117.21-25.92Q118.80-26.77 120.55-26.77L120.55-26.77Q121.51-26.77 122.20-26.55Q122.89-26.34 123.47-25.92L123.47-25.92Q123.79-26.18 124.34-26.42Q124.90-26.66 125.38-26.66L125.38-26.66Q125.64-26.66 125.54-26.39L125.54-26.39Q124.32-24.91 123.44-23.11Q122.57-21.31 122.09-19.61Q121.61-17.91 121.48-16.62Q121.35-15.32 121.67-14.84L121.67-14.84Q121.93-14.47 122.62-14.81Q123.31-15.16 124.42-16.59ZM115.20-15.05L115.20-15.05Q115.78-15.05 116.71-15.87Q117.64-16.70 118.65-18.02Q119.65-19.34 120.63-21.01Q121.61-22.68 122.36-24.38L122.36-24.38Q122.14-25.07 121.37-25.49Q120.61-25.92 119.60-25.92L119.60-25.92Q118.43-25.92 117.40-25.31Q116.37-24.70 115.57-23.61Q114.78-22.52 114.30-21.04Q113.82-19.56 113.82-17.75L113.82-17.75Q113.82-16.59 114.22-15.82Q114.62-15.05 115.20-15.05ZM128.45-23.11L128.45-23.11Q128.29-23.00 128.16-23.19Q128.03-23.37 128.13-23.53L128.13-23.53Q128.87-24.27 130.15-25.23Q131.42-26.18 132.69-26.82L132.69-26.82Q133.11-26.82 133.11-26.34L133.11-26.34Q132.43-25.12 131.76-23.69Q131.10-22.26 130.60-20.86Q130.09-19.45 129.78-18.15Q129.46-16.85 129.46-16.01L129.46-16.01Q129.46-14.89 130.20-14.89L130.20-14.89Q130.78-14.89 131.34-15.40Q131.90-15.90 132.64-16.75L132.64-16.75Q132.74-16.85 132.90-16.70Q133.06-16.54 132.96-16.32L132.96-16.32Q132.00-15.16 130.91-14.20Q129.83-13.25 128.87-13.25L128.87-13.25Q127.50-13.25 127.50-15.00L127.50-15.00Q127.50-16.01 127.84-17.41Q128.19-18.81 128.72-20.25Q129.25-21.68 129.91-23.00Q130.57-24.33 131.21-25.28L131.21-25.28Q130.62-24.86 129.75-24.19Q128.87-23.53 128.45-23.11ZM133.22-29.10L133.22-29.10Q133.06-28.94 132.93-29.07Q132.80-29.20 132.74-29.44Q132.69-29.68 132.69-30.00Q132.69-30.32 132.85-30.53L132.85-30.53Q134.23-32.44 136.72-34.61L136.72-34.61Q136.88-34.66 137.04-34.53Q137.20-34.40 137.09-34.29L137.09-34.29Q135.98-33.28 134.97-31.88Q133.96-30.47 133.22-29.10ZM158.18-51.78L158.18-51.78Q159.19-51.78 159.88-51.36Q160.57-50.93 160.91-50.24Q161.26-49.55 161.26-48.73Q161.26-47.91 160.89-47.12L160.89-47.12Q160.78-46.96 160.62-47.01Q160.46-47.06 160.36-47.22L160.36-47.22Q160.25-48.28 159.38-49.10Q158.50-49.93 156.65-49.93L156.65-49.93Q154.63-49.93 152.80-48.87Q150.98-47.81 149.09-45.16Q147.21-42.51 145.28-38.00Q143.34-33.50 141.12-26.61L141.12-26.61Q142.34-26.66 143.69-26.66Q145.04-26.66 146.47-26.66L146.47-26.66Q146.74-26.55 146.71-26.37Q146.68-26.18 146.21-26.08L146.21-26.08Q144.88-26.02 143.56-25.97Q142.23-25.92 140.85-25.81L140.85-25.81Q140.69-25.23 140.48-24.75L140.48-24.75Q138.31-17.81 136.03-13.12Q133.75-8.43 131.37-5.59Q128.98-2.76 126.52-1.56Q124.05-0.37 121.51-0.37L121.51-0.37Q119.71-0.37 118.94-1.17Q118.17-1.96 118.17-3.02L118.17-3.02Q118.17-3.50 118.38-4.05Q118.59-4.61 118.91-5.04L118.91-5.04Q119.07-5.19 119.20-5.09Q119.33-4.98 119.33-4.82L119.33-4.82Q119.12-4.40 119.18-3.84Q119.23-3.29 119.63-2.78Q120.02-2.28 120.79-1.93Q121.56-1.59 122.78-1.59L122.78-1.59Q124.05-1.59 125.30-1.91Q126.54-2.23 127.79-3.10Q129.03-3.97 130.28-5.57Q131.52-7.16 132.85-9.73Q134.17-12.30 135.61-15.95Q137.04-19.61 138.57-24.64L138.57-24.64Q138.68-24.91 138.73-25.15Q138.79-25.39 138.89-25.65L138.89-25.65Q137.99-25.55 137.09-25.41Q136.19-25.28 135.29-25.07L135.29-25.07Q135.02-25.12 135.15-25.33Q135.29-25.55 135.63-25.76Q135.98-25.97 136.45-26.16Q136.93-26.34 137.35-26.39L137.35-26.39Q137.78-26.45 138.23-26.47Q138.68-26.50 139.16-26.55L139.16-26.55Q141.06-32.28 143.26-36.91Q145.46-41.55 147.90-44.86Q150.34-48.18 152.94-49.98Q155.53-51.78 158.18-51.78ZM144.62-23.11L144.62-23.11Q144.46-23.00 144.32-23.19Q144.19-23.37 144.30-23.53L144.30-23.53Q145.04-24.27 146.31-25.23Q147.58-26.18 148.86-26.82L148.86-26.82Q149.28-26.82 149.28-26.34L149.28-26.34Q148.59-25.12 147.93-23.69Q147.27-22.26 146.76-20.86Q146.26-19.45 145.94-18.15Q145.62-16.85 145.62-16.01L145.62-16.01Q145.62-14.89 146.36-14.89L146.36-14.89Q146.95-14.89 147.50-15.40Q148.06-15.90 148.80-16.75L148.80-16.75Q148.91-16.85 149.07-16.70Q149.23-16.54 149.12-16.32L149.12-16.32Q148.17-15.16 147.08-14.20Q145.99-13.25 145.04-13.25L145.04-13.25Q143.66-13.25 143.66-15.00L143.66-15.00Q143.66-16.01 144.01-17.41Q144.35-18.81 144.88-20.25Q145.41-21.68 146.07-23.00Q146.74-24.33 147.37-25.28L147.37-25.28Q146.79-24.86 145.91-24.19Q145.04-23.53 144.62-23.11ZM149.39-29.10L149.39-29.10Q149.23-28.94 149.09-29.07Q148.96-29.20 148.91-29.44Q148.86-29.68 148.86-30.00Q148.86-30.32 149.01-30.53L149.01-30.53Q150.39-32.44 152.88-34.61L152.88-34.61Q153.04-34.66 153.20-34.53Q153.36-34.40 153.25-34.29L153.25-34.29Q152.14-33.28 151.13-31.88Q150.13-30.47 149.39-29.10Z"></path></g></g></svg>